<mxfile host="65bd71144e">
    <diagram id="fj0EYs5FHcrPIWMEf9jZ" name="Komponen Elektronik">
        <mxGraphModel dx="1585" dy="826" grid="1" gridSize="10" guides="1" tooltips="1" connect="1" arrows="1" fold="1" page="1" pageScale="1" pageWidth="827" pageHeight="1169" math="0" shadow="0">
            <root>
                <mxCell id="0"/>
                <mxCell id="1" parent="0"/>
                <mxCell id="2" value="" style="rounded=0;whiteSpace=wrap;html=1;fontSize=29;fontStyle=1;strokeWidth=2;fillColor=#f5f5f5;fontColor=#333333;strokeColor=none;" parent="1" vertex="1">
                    <mxGeometry x="240" y="60" width="1920" height="1080" as="geometry"/>
                </mxCell>
                <mxCell id="4" value="Komponen Elektronik" style="rounded=1;whiteSpace=wrap;html=1;fontSize=40;fontStyle=1;strokeWidth=3;fillColor=#6d8764;strokeColor=none;fontColor=#ffffff;" parent="1" vertex="1">
                    <mxGeometry x="926.25" y="100" width="517.5" height="100" as="geometry"/>
                </mxCell>
                <mxCell id="5" value="Dasar Elektronika" style="rounded=1;whiteSpace=wrap;html=1;fontSize=29;fontStyle=1;strokeWidth=3;fillColor=#a0522d;strokeColor=none;fontColor=#ffffff;" parent="1" vertex="1">
                    <mxGeometry x="270" y="90" width="300" height="60" as="geometry"/>
                </mxCell>
                <mxCell id="7" value="" style="rounded=1;whiteSpace=wrap;html=1;strokeWidth=4;arcSize=4;fillColor=#dae8fc;strokeColor=#6c8ebf;" parent="1" vertex="1">
                    <mxGeometry x="355" y="250" width="260" height="260" as="geometry"/>
                </mxCell>
                <mxCell id="8" value="" style="shape=image;verticalLabelPosition=bottom;labelBackgroundColor=default;verticalAlign=top;aspect=fixed;imageAspect=0;image=data:image/png,iVBORw0KGgoAAAANSUhEUgAAAgAAAAIACAYAAAD0eNT6AAAABHNCSVQICAgIfAhkiAAAAAlwSFlzAAAOxAAADsQBlSsOGwAAABl0RVh0U29mdHdhcmUAd3d3Lmlua3NjYXBlLm9yZ5vuPBoAACAASURBVHic7N1pnBTV2Tbw+1RV73sPmztqTHzcTXyjQRbBDWbAhUSMhmFEhpDok9VdY5wo4gJu0cQtiY9xSYImUZFlcKDZRRgYBhhgAHfECCgwzNZbnfcDtgGcvU/Vqaq+/l/yE2buvg0y19WnqruJAAAAAAAAAMD5mOwFAAAAoHNLl27t05je90uVtHM0t9KXEYtxrmeI2J5MNvNhOsVn8FTg+eLiE5JdmYcCAAAAYFEVFRXK2YNG3en3+a8P+L29maJ0+PW6rvN9+5o2NLW03Dzqov83q6OvRQEAAACwoNlVq8YGg4E/+P2+cHe/l3NODfua3t3VuGP4mOFDt7b1NSgAAAAAFlOZWD09HotfoSj5xXQqlcnu2v3FL0dd+P+eOPT3UAAAAAAsIpFIaFzrtSoSCZ8mYl4qlaatW9/LJFOp0vJxI/9+4O+hAAAAAFhAIpHQmLvPhlAoeIKIealUmrZsfZ9SqRQRUZZz+v7EspLXc7+PAgAAACDZ9Ol17j5H8A2hUOh4EfMOCf8v8UZV5d8e/6NRW4iIOr6dEAAAAAz1+1lbPH2OYPXGhj8REQtmssqzuX9CAQAAAJDkuefe954eSW8OhQL9RcxrP/z3Y0RDnv3rm6OJUAAAAACkSCQSweO+2fJeMBQ4WsS8zsI/hxG7ef//AgAAgKkSiUSQeftuCQUC/UTM62r45ygqP14V8cAAAADQNbNmLQ97QkXSwp+ISCelHgUAAADAJDNmVPeKFIW2BgKB3iLm9ST8iYgYUQYFAAAAwAQzZlT3ivYO1vsD/riIeT0N/9y3owAAAAAYrLKytk847q/3+31WCH8iIo4CAAAAYKBZs5YfGYqH6n1+X0TEPAHhT0Tk0kQsAwAAAF/3WuWKo8LRyAafzxsUMU9Q+BMn2oUCAAAAYICZM5ceE4mF63xeb0DEPFHhT0TEiLahAAAAAAj2+pxl34jGe9V6vR6/iHkiw5+IiHF6DwUAAABAoFlVq0+KhIOrvF6PV8Q80eFPRKQTn4V3AgQAABDkzcTKU+LB6EqPx23Z8CeirIsn++KzAAAAAAT499ylZ8SDkVUWD39iRLPLykZ/jksAAAAAeZpZWXt2POZf7Pa4XSLmGRX+RMR1hd1LRIQCAAAAkIfZC975XiwYWOhyu6we/kREL04cW7ycCAUAAACgxyoXrhgQCcYXuFy2CP+PXDz5q9w/oAAAAAD0wKy5q4eEg+Eql0vMm+oZHP57VIVGlo0d/XnuF3ATIAAAQDfNfmvNxfGiyDy3PcK/gXG9ePzYknUH/iJOAAAAALphxtyVxbGi8BsuTRXyeToGh/9errDh5WNHLT/0N1AAAAAAumjO/OqSWCT2hqapQk7QjT72J65fPHHsqBVt/SYuAQAAAHRBZdWqK+Px+BuaS7ND+O9mRBeWl7Ud/kQoAAAAAJ2aOXflVbF47G+qYv1n/oxoB+fKeRPGlVR38nUAAADQntlVq8YWFcX+qqqqkMw0+Jn/Z0T8gvJxI9d39oUoAAAAAO2YnVg1qVc0/qSiKnYI//8oCjv/2rHFG7ryxbgJEAAAoA2zq2qu6x2LPcEUZofw/5iYOuzascO3dvUbcA8AAADAIeYkaq7v3cs24f9RVmdDy0u7Hv5EuAQAAABwkMr5tT+Px8OPKootjv0/VFQ+7NofjXyvu9+IEwAAAIAvzamquT1eFH7MJuH/gZpVzutJ+BPhHgAAAAAiIpo7f/Wd8Xj0bsbEPDc2OPw3u7g+rGx8ySc9HYACAAAABW92YlVFLBa/i4l54m/06/w3kStzftlVl27Pcw4AAEDhmptYMy0ej97AxNzvZ/Qz/41Zpp4/qXT4p/kOwgkAAAAUrMpEzSPxePSXtgh/Rmuyqn7hpKtLdokZBwAAUIAq56/5fVFR9Ge2CH+iGhdPXlhWNvpzUQNRAAAAoODMTdQ8UVQUu15UDBr8zH8VJdWLysuHfyF2LAAAQAGpXFDzfFEsNs4Oz/wZ0TKPwkaMHVvcIHo23gcAAAAKxtwFa16wS/gT8SWUzgw3IvyJcBMgAAAUiLcW1L4cj0evEjXP4Gv+i1k6WzJhwqX7jBhOhEsAAABQAOYtXPt6NBa5RNQ8I8OfEy1Mef0jrx8ztFH48APgBAAAABytauHaN6OxSImoecZe82eVYW/j5WPGlLQIH34IFAAAAHCseYvXzopGIiNEzTP4bv/ZSsY3esyY4lbxw78ONwECAIAj2Sr8iWY272aXjx8/1JTwJ8I9AAAA4EDzFq9dFI1EBomaZ+ixP+OvZpr7XT1p0llp4cM7elwzHwwAAMBo8xatXRqNRgaImmfoDX+cpuutfceaHf5EuAcAAAAcgnOuzF+6rjoajpwpaqaxx/7s758c7SutGHpWxoDhnT+6jAcFAAAQiXOuJJbWrY6EQ6eLmmnwNf+Xw96mcWPGjMkaMbwrcBMgAADYGudcWbB0wxrbhD+nP217b2WpzPAnwgkAAADYWCKR0Ji7z4ZQKHiCqJkGv87/mY/fW/HTiooKXfjwbu8CAABgQ9On17n7HME3hEKh40XNNPgd/p4qLy2+jjHGhQ/vAVwCAAAA29kf/rTRLuFPjB6eOK7kp1YJfyIUAAAAsJkvw78+FAoeJ2qmoc/8GU0tLy25QfjgPOFlgAAAYBuJRCKouJX6YMh/uKiZxt7wxx6YOK74VvGD84cCAAAAtpBIJILM23dLMODvJ2qm0eFfXmbN8CdCAQAAABuYNWt5WPGGNwcDgb6iZhr7Dn/stxPLiu8RPlggFAAAALC0GTOqe4XjwU0+v69I1Exj39uf3VE+rniK8MGCoQAAAIBlzZhR3SvaO1jv8/viomYaGP6cEf/1hNKSR0UPNgLeBwAAACypsrK2TyDi2eTz+2KiZhoa/pz/YkLZyMdFDzYKCgAAAFhO1fL3+noovcnv90ZFzTQy/DnRzyaOK/mD6MFGwiUAAACwlNcqVxzlZekNPp83KGqmgeGvc0blE0tLnhM92GgoAAAAYBkzZy49JhIL1/m83oComQaGf5Y4nzBx3MjnRQ82AwoAAABYwhuV7xwbiUXX2Sb8icaXl418QfRgs+AeAAAAkG5W1eqTIuHgKq/X4xU108jwZ4yVTSgtfkn0YDPhBAAAAKR6M7HylGgwtNLjcdsh/FOc+FXlpSX/Ej3YbCgAAAAgzeyq5aeFQ5EVHrfbI2qmkeFPjF05sbTkNdGDZUABAAAAKWZW1p4difoWe9wel6iZBoZ/kohdUV5aPEP0YFlQAAAAwHSzEqvOiYf8i1xutx3Cv5kzumxiafFbogfLhAIAAACmqly4YkAkGFngcrlsEf6kKJdMHDtinujBsqEAAACAaWbPrh4YDkQSLpdLWP4YGP5NjPNRE8aOSIgebAV4GSAAAJhi7tw1F4WLQrNcLk0VNdO48OeNnPFRE0tHLRA82DJwAgAAAIabWbVqeDgeftOlqTYIf9rLFWX4xLHFy0UPthIUAAAAMNSc+dUlsUj0DU1TFVEzDQz/PcT1iyeOHbVC9GCrEfaHAQAAcKjKqlVXxuPxNzSXZofw360rykXlZc4PfyKcAAAAgEFmzl15VSwee0lVVGH3mxkY/js5Vy748dgRa0UPtioUAAAAEG521aqxRUWxv6qqLcL/M1WhC8ePHbFO9GArQwEAAACh5sxbXRqPR5+3Sfj/R9fVC8rHDa8TPdjqcA8AAAAIM2fe6p8UxWN2Cf+PVVUf/ONrCi/8iVAAAABAkDmJmut7FcX/qKiKHcL/o6zOho7/0agtogfbBd4ICAAA8lY5v/bn8Xj4UUWxRfh/qKh82LU/Gvme6MF2ghMAAADIy5yqmtvjReHHbBL+H3DKDi308CfCTYAAAJCHufNX3xmPR+9mTNzzSQPDf7OL68PKyi75RPRgO0IBAACAHpmdWFURj8XuYootwr+euTLDyq66dLvowXaFAgAAAN02N7FmWjwevYExcbeSGRj+G7NMPX/SVSWfih5sZ7gHAAAAuqUyUfOIbcKf0Rolw4ZMKh2O8D8EXgUAAABdVjl/ze+LiqI/s0X4E9W4ePLCsrLRn4se7AQoAAAA0CVzEzVPxOOx620R/oxWUVK9qLx8+BdiBzsHCgAA2AZPVHizUfdwrrGBOtGpqsqOI0WNM8Y8xBQ3U5lKnBPplCUiIsazekZvJJ7do3P+H9L19RmdL/K1ZGaycyoaJP/r2MrchTX/F4/GymwR/kTVKZVfdN2PRu4WPdhJUAAAwLJ4XUU8xT3XM6KLFc11sqJpUSbopeZ6Jt2qp7P1pOtVusL/4jn59g1CBjvQ3AVr/hqPRUttEf6MlnoZKx47thgFrxMoAABgKclV957GPOxW1aUNY6qrr8iXmHVET6f36Zn0YtIzj7lOvXOuKQ9qA28tqH05Ho9eJXKmgc/8F7N0pmTChEv3iR7sRCgAACAdr3kkmlKbblBd7mtUj/tI2T+a9EwmqWfS8/WM/mvPabdvkrqMRPMWrn09GotcInKmUeHPiRamvP6R148Z2ih0sIOhAACANKnqu89mPvdjqsfzXSbwbWRF4ZyTnkq+l04m7/Kd8dsXZe9jpqpFtTNi0ehIkTONCn9GrDLkbbx8zJgxLUIHO5zl/sIBgPMlayZfqnrcv1e9nqNl79JVejrdkEklH3efkv4tYxW67H2MNG/x2lnRSGSEyJkGXvOfrWb8o8ePH9oqdrDzoQAAgGlaa+8Zrrk9T6oeT3/Zu/SUnsm0ZFpST7hPS97qxCJgq/Anmqlm/T9A+PcMCgAAGK5l9eRjNLf2uub3nS57F1H0TKY529p6s/u0O/4gexdR5i1euygaiQwSOdOwY3/GX80097t60qSz0kIHFxAUAAAwDOcVWnqD5znN672amXU7v6k4ZZOpj1KZ1FX+U3+zTPY2+Zi3uHZJNBI9V+RMw2744zRdb+07FuGfHxQAADBEy9rJg91uz2uK2x2TvYvhOFGmpaU2ncmU+M/4ja0+apZzrsxfuq46Go6cKXKuccf+7O/bjvKVVgwdmhE8uOCgAACAUJxXKKk69ysur2+0I5/0d4Drejbd1Pyg5/Q7bpe9S1dwzpXEkvWrI5Gw0EszBl7zf3nbUf4yhL8YKAAAIEzzioeOcoezy1S350jZu8iUTSa3ZdOZC638HgKcc2XB0g1rwuHgqSLnGvg6/z9/8t7KH1dUOO/GS1kKq54DgGFa10yZ5Ikr7xd6+BMRqR7Pka6Ary697t5HZe/Slv3hX7fWLuFPxJ9F+IuHEwAAyFtq3X3Pu/z+cfiJ8nXZZHK7mmweys6o2Cx7FyKi6dPr3H2O4BtCodDxIuca+Mz/qfLS4usYY1zoYMBfVwDoOZ6o8Gb6+t7RvN7TZO9iZTyrZzPJ5pvcp9zxiMw99oc/bQyFgseJnGvgm/w8PGFs8Y0If2OgAABAjzTUT+vl53qd6vb0kb2LPXDKNLfWaq2tA9hZFc1mP/qX4V8fCgX7i5xrWPhzNq28rPgmsUPhQLgHAAC6bXbNk+dt5JFtCP/uYKT5fafrocB/mtdNHmDmIycSiWDfI5T3bRT+DyD8jYcCAADdUrXh2Qs3FX0zsSJysmeJHpa9ju0oLnfI6w0sSa6bYspLBROJRFD19N0cDPkPFznX4PC/VexQaAsuAQBAl7284bkLdwT7z3W5fUREpHOdzmiqp4FKg+TN7IhTpqV1uXZS6yDGKgx5XfusWcvDgVikPhjw9xM517h3+GO/nVhWfI/QodAuFAAA6JLpdS8P2x4+fJ7L5T3o13Wu07eb6mkASkCPZFPJHelk8hzf6Xe+L3LunDnL4sFofLPP7ysSOde4u/35byaOG3mv0KHQIVwCAIBOvVr3pzO3h/tVHRr+REQKU2h14FuEywE9o7o9fdz+QH1yzZTRombOmFHdyx+NbbFJ+HNG/FcIf/PhBAAAOvRq/XMnfuI9eoPmCXT48wInAfnhnFOmtfnP7pNvL89nTmVlbR9/xLPJ7/cJ/QwGo8KfE/1y4riS34scCl2DAgAA7are/rR/WfLofaov1qXTQtwTkL90S8sqF7UOYCdXdDtp94e/t97v90ZF7mRg+P9s4rgSx3ycst3gEgAAtGtFy2E7uxr+RPsvB6zB5YC8uHy+72TVwCfNyx/o1lsqv1a54qhA1PuubcKfsesR/nKhAABAm57Z/Or7PNDH393vy5WAZSgBPaa63b08cXVLc82Uc7vy9TNnLj2mVzSywefzBkXuYVD4Z4nz8RNLi58UORS6DwUAAL7mbxtffCUdOqJ/T78fNwbmT9FcXm/YtyhVO/m6jr7ujcp3jo307lVnm/AnGl9eNvJ5kUOhZ1AAAOAgM9b/eeLOcP8fEMvvFiFcDsgfY4qiBYN/aK2d8se2fr+ycu2JRbHYBp/XGxD5uEaFP2OsrHxcyQsih0LP4SZAAPhK5Yq/HLWx3zEfudzi8gSvDhCBU6aldZ52UutFjO3/SNxZVatPioaDqzxez9dfm5kHg8I/xYlfNXHcyH+JHAr5QQEAgK88+e7rTXqgb7ev+3cGrw4QI9vS+q7a0nLazH0lx8VCkWqv2+MROd+o8CfGriwvLX5N5FDInyZ7AQCwhr9veKFyV6Cv34hnBbnLAYQSkBfV5z0+q6rb+5LHq9gj/JOM8TETSkveEDkUxFBlLwAA8s1Y+1TxttgJv1UV434kMMboU1cRpVKNdDRLGvY4TqeoqreP9p62J3s4ZUnM6b8R4c+JWojRJeWlI2cLGwpCoQAAFLgET2ibWkIbNHfH7/QnAkqAGIrKqEh5nxoyvSlD+V2xMeiZf7PK+aXl40ZWiRwKYuFVAAAF7sMtO97TfFHTfhbgfQLEUDVG3/IvohB93OMZBoV/Eyc26toyhL/V4QQAoIC9VvenSTsj3/gRy/Mlf93FGKPtOAnIG2OM4tonlE6r1ELd+9wfw8Kf6SMnjhuZEDkUjIETAIAC9lHgqD8qipwfA3ifADGYotDRgTrqQ+u7/D0Ghf9errALJpaOWiByKBgHJwAABer5+r9tyAT79ZG5A+4JEIMxRmH3F8RTrdRI/Tr8WoPCf49CNLy8tOQdkUPBWCgAAAXotfXPXPxZ9Bu/Upj8Q8BcCcikGukolIC8hNx7iJJN1MgOb/P3DQr/3bqiXFxeWrxC5FAwnvy//QBguk98h83QFOu8DQg+O0Ccw4If0eH09Sw2KPx3cq6c9+OxI1aKHArmwAkAQIGZsfH//rI3fPR3rPZGoLgcIAhjFHQ1EMvso310BBEZE/6MaIeq0AUTxhWvEzYUTIUCAFBAEjyhbWwO/UvVhL6JnDAoAYIwRkF3A2npPbQr1Y+2in/m/2k2qw8tLxu5QeRQMBcuAQAUkIZNHyx2eYR+aqxweJ8AURgVebYT/2wRJcWG/zad03mTxo/aJHIomA8nAAAFomHjlKKTtcwj67JuJeuydgnA+wTkT89mqWXXDurt2kktWTftToVEjP0oq7Ohk64p2SpiGMiFEwCAAuHTlVdUVVUn0Afkbv5M9jqdwvsE9JyezVLLzh2kZ7JExOk78c10dCDvP/MPFZUPnXRN8bsCVgQLwAkAQAFIrrr3NFfIf//+59ZEZ9IeWpt2kR1OAnBPQPfo2Qy17Nz5ZfjvxxjR4f4vaE8qSPsyPfrsgHezpJ83sXTUB6L2BPlwAgBQABSv9vz+GNiPERFOApxn/zP/g8M/R2E6Deiznvr5vuju2M0urg+ZNG7UR0KWBMvACQCAw6VqKs7QAsGKQ9/vHycBznLwsX/bGCM60r+TdrVGqTnbpY8SrmeuzLDxYy/ZLmxRsAycAAA4HPP4/treh/3gJMAZuhL+Oaqi08B+6yjqbuzw6xjRpixTh0646lKEv0PhBADAwVLVd5+tBQN3dPRpfzgJsLfuhH+OynQ60r+TPm3pRUnd1daX1CoZNmziNSOs3wyhx3ACAOBgzO/+S1c+6hcnAfa0/4a/7oV/jkdN0+C+a8mnfa1I1WQ1/YJrry3eKWRJsCycAAA4VHLlvadoIf9dXSkARDgJsJuObvjrKpeSoX6+3fRRU1/SuUKc2Go3T140ofSyzwWuChaFEwAAh1L86rNdDf8cnATYQ0+O/dsTcTXRuX3Wk8r4O7rXNaysbDTCv0BY69NAAECIpup7D/NFA58wpZsN4EuciP5M/Snl7yt4M/F0rtMZTfU0UGmQvYopRIb/QXNJfSUy6P4rGSMudDBYFk4AABzI7VWe6Wn4E+EkwKqMCn8iIoWyVzQsuvku4YPBsnACAOAwvLrCz6PhBqaoed/jg5MA62jrHf4MwWhCeNDUvxj7IGAFOAEAcJiMxzVFRPgT4STAKkTc8NdlnJ7au+iWi41/IJANBQDAYZjLUyZ0HqEEyGTksX87XIz0V/YtueVksx4Q5EABAHCQ1pp7ilW3FhU9FyVADgnhnxPiuv5mQ+KGXmY/MJgHBQDAQVS3a7JRt/agBJhLYvjn9Oeq8neeqNBkLQDGQgEAcAheVxFXPd4zjHwMlABzWCD8iYiIEZ3fqDVNk7oEGAYFAMAh0rpnaj4v/esqlABjWSX8czinXzQsunGi7D1APBQAAIdQ3e4xZj0WSoAxrBb+/8X+sG/hDYNlbwFioQAAOEBm7X1XKC7N1DfwRwkQy7rhT0RELk7K9OaFvz5K9iIgDgoAgANwVfmdjMdFCRDD4uG/H6O+Gab+k8/6mUf2KiAGCgCAzTXUT+uleb0nynp8lID85PORvhL8v8agBzcFOgQKAIDNeZPpu4jJfVtvlICeMfUd/gThxP5378Ibr5a9B+QPBQDA5hS3eqXsHYhQArrLFsf+7WCMnm5I3CDt1AnEQAEAsLFk3ZSTVLe7t+w9clACusbO4b8fC5KqTOfLfuWTvQn0HAoAgJ3pzLB3/usplICO2T/8v3Lqvqz2iOwloOdQAABsTHO7LpK9Q1tQAtrmoPDfj9OkvYtvLpW9BvQMCgCATbXW3jNccbkCsvdoD0rAwRwX/l9iXP8j7gewJxQAAJtSVNedsnfoDErAfjZ7qV83sSBT1Rd59Y9dsjeB7kEBALAhzis01es5W/YeXVHoJcCOL/XrLk78Ow3NUcsXUjgYCgCADaXWum5SFEWVvUdXFWoJcOqxf1sY8dv2Lrn5HNl7QNehAADYkOp2/Vj2Dt1VaCWgkML/SxrT+Ys7EhWmfiYF9BwKAIDNPPSXhQM27Dmiv+w9eqJQSoCzr/l36HiP0viA7CWga1AAAGxm9Z7+r09IXEmr/9NP9io94vQSUAjX/DvCGPvp3kW3XCx7D+gcCgCAjTz9cqJXfesRvXRVpZ8s+D5KgAm6UwIK8Ni/LUwh/Zn/VN5o2Zeown4oAAA2suqLw5dydf+9fygB5ulKCUD4/xcnOtrvJbwqwOKs9R6iANC+Cq6c405l06r7oF9Wsll6asi/6NuHfSppsfxwIvoz9aeUv6/sVTqlc53OaKqngUrDwb+O8G9LRmHKWcFBD9TKXgTahhMAAJv4SdGW+kPDn+jLk4CFo2n1p4dJ2Cp/dj8JQPi3S9O5/qjsJaB9KAAANvDAX5eWVjd+4xvt/b6uqvTThZfT+h19zFxLGLuWgAK+27+rzmtYfNNI2UtA21AAACxu+vQ58RmfnPk8Vzq+YpdVNbp2/hUOOAnYIXuVTilMoRWeY6lm1z6Ef2c4TcPbBFsTCgCAxf3twzO2tSi+Lt2vo6sq/WSR3U8C3rf8SUAyk6RN/9lCT/Ii2sS8stexum/ta46UyV4Cvg4FAMDCfvz45nc/0vv6uvM9uuKUkwBrloBkJkkbP91MrekkpYjR02oflIDO3coTFZrsJeBgKAAAFnXDU7XzVzWfcFxPvhc3BhrjwPDPQQnokuMb1MYfyl4CDoYCAGBBD/zf0scW7D51aD4zUALEaiv8c1ACOseI3cY5XnpuJSgAABbzh7+9NfGV7Wf/nDq56a8rUALE6Cj8c1ACOnVS05Ibz5e9BPwXCgCAhTz+8rxhL7w/+Jncu/2JkLsxcO0O67/RTltkl4CuhH8OSkDHdE6TZO8A/4XjGACLeOj5xd/89/azNrUoXkP+XuIdA7uvO+F/IDdxmpTdQSfyVoM2s620kqWjg0On/kf2IoATAABLePrpOYe9uf3MjUaFPxEuB3RXT8OfCCcBHXDpKo2TvQTshwIAINm///3v6Kt7zvm4QQkY/vcRJaBr8gn/HJSAdo2WvQDshwIAIFEi8Zz32a2Dd3xBEXEX/TuBEtAxEeGfgxLQpu82L/z1UbKXABQAAGkqEgntkeriPZ/pcdPfJhU3BrZNZPjnoAR8DUsz9TLZSwAKAIAUnFco62u+2fCJ3scjawdd0ah8/g9wEvAlI8I/ByXgYIxouOwdAK8CAJDiioc/2fde+vCg7D2I8OoAImPD/0B4dcBX9oQGBYoYq9BlL1LIcAIAYLIxD3281yrhT4R7AswKfyKcBBwg2rig8STZSxQ6FAAAE4155JNd72aODMve41CFWgLMDP8clIAvKXSu7BUKHQoAgEmueey9He+mDi+SvUd7Cq0EyAj/HJQAIq6wM2XvUOhQAABMsHfdI3O2NvfrLXuPzuRKgNNfHSAz/HMKvgRwOkH2CoUOBQDAYOkN988KB5SLX7/kRQrwZtnrdEpXVUe/OsAK4Z9TyCWAEwqAbCgAAAZKb7h/lub1jSAiivta6N+jXrJNCXDi5QArhX9OoZYARnQkX/Yrn+w9ChkKAIBB0nX3z82Ffw5KgHkOLQFWDP+cAi0BrCGtHSl7iUKGAgBggPSG+2dpPt+Fbf0eSoB5ciXA07iNNmyvt2T45xRkCVB4XPYKhQwFAECwdN398w995n8olADz8GyGrtyxir6X3iV7lU4VXglgMdkbFDIUAACBvnzmP7QrX4sSYDw9m6WWnTuJZzL0g+weOo83yF6pUwVVAnScAMiEAgAgAOfEUnX3vd3ZM/9DoQQYSdirAwAAIABJREFUZ3/47yA9kyUiIkYcJcBimOLwf0GLQwEAyBPnFUpmwwOrXT7/OT35fpQA8Q4N/xyUAIvRWbbzLwKjoAAA5IHzCiWz0Ver+bxn5DMHJUCc9sI/ByXAOjjTUQAkQgEA6CFeV+HObvBt0bzeU0TMi/ta6PVRL9iqBFRvP1z2KgfpLPxzUAIsghM+DVAiFACAHuDVFf6s6n9X9XmPEzk36kvaqgRct+hyy5SAroZ/DkqABTDaK3uFQoYCANBNvK4imA0EtqpujyFvYoIS0IM9uhn+OSgBkul8h+wVChkKAEA3NNRP65VV/R+oHrehF8BRArrx+D0M/xyUAHl0F6EASIQCANBFfOvUPgHON6tujykf6YsS0IXHzTP8c1ACpOBRpqMASKTKXgDADppXPHSU6ub1itsdMfNxva4sXX5cHf2z/iRKM5eZD91tXFFo1gffojPjn9DhoX2GP56o8M9hRHQST1IzY/QB8wiZaZQsMVqjBKg/T1Ivyshep0c40TbvwIemyt6jkOEEAKATLasnH+OJ0AbF5Q7JeHycBLTxOILDPwcnAeZhRHWydyh0KAAAHUjWTTnJHfRtVFxaUOYeKAEHzDco/HNQAszCNsjeoNChAAC0I7X67tM1l2e1ommW+MxylADjwz8HJcAEnNbKXqHQoQAAtCFVO/kcNRhcqWiapS4GF3IJMCv8c1ACjKUrymLZOxQ63AQIcIiWNZMHuv3+BYqmWvKuu0K8MdDs8M/BjYEG4fRJZPCDd8peo9DhBADgAK219wz3BP0LmEXDP6eQTgJkhX8OTgLEY4wWyd4BUAAAvpJcM2W0OxCYyRTVFidjhVAC9GxGavjnoASIpTOaI3sHQAEAICKiljV3j3WFfK8wRbXV3wknl4D9z/x3Sg//HJQAYdKc1BmylwDcAwBAmWWjn3dHjq5gqttW4Z/jxHsCZB/7twf3BOSPEa+KDH7wT7L3AJwAQIFLL7t0turdPo7veZ2Rbv1n0e1x0kmAVcM/BycB+eHEXpW9A+yHAgAFK72seInm/Ww4KYyYm4h/8QahBJijvRJg9fDPQQnoKd6YdrdOl70F7IdLAFCQ0kuHr9cCu79DjH31a0wl4o31xLzHEVn8KL09dr4cYJfwz8HlgJ5Qno+d+whOACwCJwBQcDJvX/iR5t978v4f4Qdz0klA0EYnASu29bVV+OfgJKB7OBGu/VsITgCgoGTfvmCH6ms6rI3s/4pTTgIuO66O/lV/EqUs/u+g60QLa3rR4MM2UNjTKnudbsNJQJe9HRk89W6zHxTahxMAKAicVyjZt4c1KL6m3l35eqecBLxm8ZMAntGpdVsT7Wjw00/mltIn+6KyV+oRnAR0jjNC+FtMB8+DAJyB8/M0/W29QfGnu/2hPjxFxOKXECl+I1YzxZ4WD102o5QambX+HXLhr6f1r36tb6CBnrroBToitEfiZj3HidGrapQWsLDsVTrlJk6TsjvoRG78qQvntCY8eOq3GSNu+INBl+ESADgaX3JtSP90V4Piy/TobBaXA4zRVvgTETWlPbTg4xNp8FFbcDnAYGZeDmDEJnn7L6039EGg21AAwLH4iiv6cfbBDsWb1fKZgxIgVnvhn7O/BHwLJcAEJpWAheEhU28zajj0HO4BAEdKLvv+iTrftp15dSElF/cEiNFZ+Od81hSmn84dS9v2xUzaTCzcE/AVrivsRiMGQ/5wAgCOk172wwGa9vEqxcOE3uOCk4D8dDX8c3ASYB7DTgI4vRAZPPWP4gaCSDgBAEfJrLziEtX1/lLmFhv+OTgJ6Jnuhn8OTgLMY8BJwOeMaXj2b2E4AQDHSC2+dJyqbf8Hcxnba3ES0D09Df8cnASYR+RJAGf00/DgB94WtBoYAC8DBEfIvj3m50z78DGjw/9AeIlg5/IN/wP1DTTQkxe9SEeGdgvYzHyF9BJBRjQ3OGjqcLzsz9pwAgC2l11+2d3Mve0+ppl7RQsnAR0TGf5EOAkwU54nAbs1ni129397rxG7gTgoAGBrqWWjntLcO37NVDm3s6AEtE10+OegBJinpyWAcX5NcMhDOPq3ARQAsK3M26P+qXl3lpIq90oWSsDBjAr/HJQA83S/BLBnw0Om3m/4YiAEXgUAtpReVrxA9e4cTYo1bmPBqwP2Mzr8c/DqAPN09dUBnFhNSEv/wqS1QACcAIDtZJePqFG9e84hY17p12OFfhJgVvjn4CTAPF04Cficc36Bb9DDO83eDXoOBQBsJbPsgq2qd99JVn39SqGWALPDPwclwDwdlIAUY/ySyOBpa2TtBj2DAgC2kV5zxxsqqz+HSb7m35n9JWAzMc/xRIrzS4Cs8M9BCTBPGyWAE9HE8OBpr0leDXoABQBsIbXuvgWuUPQiUvoSJd8lZpFr/+1hKhFvcv5JgOzwz0EJMM+BJaA3S/8uPHjaY7J3gp6x9k9RACJKr79/qeb3Dcj9M0/uIGqqIrNf998TznmzoLHUyAIH/bpVwv9ATnizoFeUGC1UQrJX6dSp1LLhpu/ddAre7Me+rP8TFAoW5xVKuu7+1QeGPxER8/QhClxAPGOd4GmPc14d8CIFedNXv2bF8CdyxqsDrtB3W/7VAd/grZ/0TjZ9B+Fvb7gEAJbEeYWS2eir0Xy+M9r6faYFyFaXAxxxY+AG+lf9/1Ayq1ky/HOccjmgiRT60IKXA47lyc/O8jR+48pzK1pk7wL5QQEAy+F1Fe7sLt9Gzev9n46+DiXAXF5Xli7pv47eWR+iT/cEZa/TIWeUgFbL3RNwLE/uOKU5/a3Rg37TKHsXyB8KAFgKr6twZxXfRtXrPb4rX48SYB49myW++1O68Ii1tH7XkbS9MSp7pQ45owRY58bA4yn52dl7933zsuG/sfb1CegyFACwDF5XEcwqvq2qx3t0d74PJcB4ejZLLTt3kJ7JkqbodMExG1ECTGCVywHf4q0fnsiUEy4bdltT518NdoECAJbAl1eEsz7/ZtXjPawn348SYJwDwz8HJcA8si8HnKa31J5zbtMpI4++LWX6g4OhUABAupbVk49Rwv561e3ulc8clADx2gr/HJQA88i4HKAQp7P1ln/8cuDNFzz/uwXWvOMT8oICAFK1rpkyyRP0zVY0LdD5V3cOJUAcPZuhlp072wz/HJQA85hZAjyM8+/qzXddN/CWnxv6QCCVtX9CgmMla+/5ger2TFU9nv5GzMebBeWnK+F/oGRGo18nrqSVn/Y3djEBnPBmQa+qUVrAwobMD1E2e6be/KOJA2/7hyEPAJaBAgCmaV43eYCLqbcyTRumut1CnvF3BCWgZ7ob/jkoAeYx6h0DD+Pp5pPU1sHXnHPbKqGDwZJQAMBQqdrJ53BFvVlzu85XXFrY7P/kUAK6p6Nr/l2BEmAe0ScBJ/LW905gjf9vzICKL4QMBMtDAQDhZIf+oVACuibf8M9BCTCPiBLgIc7P4k1P/OTcW3G9v8CgAIAQzesmD1BJvdEqoX8olICOiQr/nGRGoxsSY2jFp8cKmWekQi4BvXgmeTpvHnPNwNvfMGA1sDhr/ZQGW0nV3Xcm43S34nYPUzRN/sXrTqAEtK2n1/w705rV6Mb5KAFm6EkJ+Ca1bjlZTX1v9Nm3f27gamBhKADQLQ3vTCny+vldisv1Q9Xt6S17n+5CCTiY6Gf+h0IJME9XbwwMUFY/gzc//pNzb/ulSauBRaEAQJck10wZrbjVKZrX800iZuv/blAC9jPqmf+hbFUC/PvoyYtfsHUJ6OgkoL+e/PRovXX4xMF3rDV5NbAgW/8gB2NxXqFl1rl/rXi0Xysud18n/edS6CXA6Gf+h0IJME9bJSDAdP2kbOuTPx948/9KXA0sxjk/0UEYXvNINONqfUbxeC5TVNV6b1EnSKGWALOe+R8KJcA8B5aAE3jy42+w5EVXD7h9k+y9wFpQAOArfHlFOBVwP+Py+n7AVKUg3ia60EqA2c/8D4USYB5O7MO5LPLkFYPueED2LmBNKABAvK4imCbPk5rbe1WhBP+BCqUEyA7/HJQAw6UYZ0+16P47+gytaJS9DFgXCkAB47xCS6/3PK15vWWFGPwHcnoJkHXs3x6UAMO8pnP+6+iQae/LXgSsDwWgQKXW3Xut6vI8prhdQdm7WIVTS4BVnvkfCiVAqC2c0y8jQ6bOkr0I2AcKQIFprqkY4Pb4Xla9nmPwx/91TisBVg3/HJSAvG1nRJOD/r1/Ymc9k5a9DNgLEqBA8JpHomlX65uaz3cus/fL+A3nlBJgtWP/9qAE9MjnRPRgoz/wxOFnVTTLXgbsCUlQAFK1k69Tfb5HFE1zy97FLuxeAqz+zP9QKAFd1kScP5HVM/fHhj66R8YC4BwoAA7WUn3/0aqPZrl8vpNl72JHdi0Bdgv/HJSADu0lRk8yrj0cGnzfTrMeFJwNBcChkrVTpmp+768VVbV+elmY3UoAj5RQy+eNtgv/HJSAQ7FPidFjaVfLk0XnPN5g4ANBAUIBcJim6nsPc/u0eZrP+z+yd3GK/SVgHjHN2n9deCZLqf/olA4NIs402ev0GEoAERG9zzk9FnZlnmEDHmkRPRyACAXAUVrW3DPeEwg8zRz89r2yWP0kgGeylPl4F/F0hnR3b8rEBqMEmERgCdAZ8bc40ZOh/3z4Jhvzij2PccA2UAAcgPMKJbXe86rb778cf6LGsWoJODD8c5xQAlK6RrcsGE1Lt50ge5VO5VkC9hKnfzCmPxYa/NAG0bsBtAdxYXOpjXd/R1X8VYrLFZW9SyGwWgloK/xzUALM1c0SoBPRYuLsuZDu/wcbWtFq8HoAX4MCYGOpdff9RPN5/sAU3OhnJquUgI7CPwclwFxdKAEbOWfTuaL8NTro/vfM3A3gUCgANpVaP+Ully9wNf4E5ZBdAroS/jkoAeZqowR8SIxe1Tm9HB08dbXM3QAOhPiwGb68IpwJ+1ZoXu+3ZO9S6GSVgO6Ef44TSoCdbgw8uWh78unhLz3rdmX+ETr3gaWMEZe9E8ChUABsJFV335mq6lqED/CxDrNLQE/CP8cJJcDKJwF9AvsyJ8Q+q+0V2P30Azdd8CcihtAHS0MBsInWmnuK3cHA60xV7fvT26F4cgdRYxUxl7ElIJ/wz3FCCbDSSYBHzdA5R7z7zmGBL56ouGHEi7L3AegOFAAbSNVOLtOCgb8wpuBmP4syugSICP8cJ5QAK5wEeNQMXX7CmlsqbrzgQWlLAORBlb0AdCy9dsrNrmDwCcYYwt/CmBYgUvsStb5LTBXbq0WGPxERyzYTS+8i7j2KyKb/WalMp2HH1FP9F33p44Yi0x8f4Q9OgAJgYal19z7pCgZuI3x+ry0YUQJEh38OSkDPIfzBKVAALCq5fso/3YFAKa7S2IvIEmBU+OegBHQfwh+cBAXAglLr7nveHfD/EOFvTyJKgNHhn4MS0HUIf3AaFACLSa2778+ugP8ahL+95VMCzAr/HJSAziH8wYlQACykdd19z7oD/gmy9wAxelICzA7/HJSA9iH8walQACwitfbeh93BwPWy9wCxulMCZIV/jpNKwOYv+tJHAkoAwh+cDAXAApK1997lDgVvk70HGKMrJUB2+Oc4pQQMFVACEP7gdCgAkrWunzzKHQg8xfBSP0frqARYJfxzUAIQ/lAYUAAkSq669zR3wD+fKSr+HApAWyXAauGfU8glAOEPhQLBIwmvq4gzj3+d4tK8sncB8xxYAojrlgz/nEIsAQh/KCQoABJwXqFkP/dvUD3uPrJ3AfMxLUA69aLMR3VEqRbZ63SokEoAwh8KjT3/Rttcps7zlurxHCN7D5BDz2aotYEoGRpCXLP+JzsrqZ2k7V5EjFvzpKIr3EqG7j/vXzTwyC1t/j7CHwoRTgBMlqqdfJ0rGPxf2XuAHHo2Sy07d5KeyRIpLsp6jiQ1tZ2YnpK9WoecchIw7OhNtHn3wScBCH8oVCgAJmpZPfkYd8A/myn4WN9CtD/8d+wP/xyUAFOpCj+oBCD8oZDhpWcmymx48EPV6zla9h5gvjbD/0DZZnLvThDLNJq7WA/o7t6UiQ0mzjTZq/RYMqvR7Ysvzx7hb7gd4Q+FCgXAJKl1973oCvh/JHsPMF+n4Z+DEmCmFoXxS4KDplXJXgRAFlwCMEFrzT3FroD/frzXT+HRs5n/XvPvDC4HmAXhD0B4FYApNJ/3RYbL/gXnoBv+ukr1Uyo2FK8OMA7CH+BLOAEwWGrtfY9rPu8Q2XuAubp87N8WnAQYBeEPcAAUAAM1Vd97mCfoe5kp1v/JCOLkFf45KAGiIfwBDmHZv61O4ParM5iqoGQVECHhn4PLAaIg/AHagAJgkGTN5Es1r/c7svcA8wgN/xyUgHwh/AHagQJgEM3n+TNeZVk49t/tLzj8c1ACegrhD9ABFAADpGonX6e43d3/EHKwpR7d7d9dtisBC2WXAIQ/QCdQAAyger33yt4BzGHIsX97bFUCdsksAQh/gC5AARAstf7eXykuV1T2HmA8Q4/924MS0BmEP0AXoQAIpmiu22TvAMYz5di/PSgB7UH4A3QDCoBArbX3DFfdnt6y9wBjmXrs3x6UgEMh/AG6CQVAINXlxqeKOZyUY//2oATkIPwBegCvUxOE11XEuSeyiykK/j91KEs882+LrT5FsBdlYkNEfoogwh+gh3ACIEhad09B+DuXZcOfqJBPAhD+AHlAARBEdbm+L3sHMIaljv3bU3glAOEPkCcUAAFaVk8+RnG5e8neA8STerd/dxVOCUD4AwiAAiCA6lHuxN0UzmPpY//2OL8EIPwBBEEBEEBRXcNl7wBi2eLYvz3OLQEIfwCBUADyxOsq3IrmOlz2HiCOrY792+O8EoDwBxAMBSBP6Yx2FVMYLgA4hC2P/dvjnBKA8AcwAApAnpiqjpa9A4hh62P/9ti/BCD8AQyCApAnpqhnyN4B8ueIY//22LcEIPwBDIQCkCemaYfJ3gHy46hj//aofkrHhhJXA7I36ZSS2kWuPUuzCH8AY6EA5GFfbUUfRVNdsveAnnPksX87uOqnVHyY5U8COFNJV0K3I/wBjIUCkAc3dw+UvQP0nKOP/dtj8csBnKmke4+7xT9qHj5YC8BgKAB5UDT+Xdk7QM8UxLF/eyxaAhD+AOZCAciLcqLsDaD7CunYv10WKwEIfwDzoQDkgTPqI3sH6J6CPPZvj0VKAMIfQA4UgDwwxiKyd4CuK+hj//ZILgEIfwB5UADywBQlJHsH6Boc+3dAUglA+APIhQKQD87wEkAbwLF/F5hcAhD+APKhAOSBKRyfAWBxOPbvBpNKAMIfwBpQAPLAOf7/szIc+/eAwSUA4Q9gHQiwfHBKy14B2oZj/zwYVAIQ/gDWggKQF94qewP4Ohz7CyC4BCD8AawHBSAPnFOT7B3gYDj2F0hQCUD4A1gTCkA+ON8lewX4Lxz7GyDPEoDwB7AuFIA88Kz+kewdYD8c+xuohyUA4Q9gbSgAeeBEW2XvADj2N0U3SwDCH8D6UADyoOt8qewdCh2O/U3UxRKA8AewBxSAPHhPTy/mnMteo2Dh2F+CTkoAwh/APlAA8sBYRYZnsy2y9yhEOPaXqJ0SgPAHsBcUgDzpmfT7sncoNDj2t4BDSgDCH8B+UADyxLPZRbJ3KCQ49reQr0pAWEf4A9gPCkCesln+kuwdCgXC34JUf0um6MIRCH8A+8Gn2QmQ3fpIRlEUVfYeTobwt6QWhfFLgoOmVcleBAC6DycAAvBU+hPZOzgZwt+SEP4ANocCIICezS6QvYNT4W5/S0L4AzgACoAAeiYzWfYOToS7/S0J4Q/gELgHQJDMpqmfq253XPYeToFjf0tC+AM4CE4ABNEz6UrZOzgFwt+SEP4ADoMCIAjX6W7ZOzgBwt+SEP4ADoRLAALhMkB+9t/wh2v+FoPwB3AonAAIpKdSz8vewa5ww58lZYnY1Qh/AGdCARDI1bjrDq7rSLBuwrG/VbHbwoMffE32FgBgDBQAgdiAR1oyydZlsvewE4S/Zb0dGuR/SPYSAGAcFADR0tkbZa9gFwh/C9PpFsYqdNlrAIBxcBOgATKbpm5T3e4jZO9hZbjhz7o4sZrI4Ae/LXsPADAWTgAMkEombyListewLNzwZ3Gc42ZWgAKAAmAA/+m/+Vs2ldopew8rwrG/5XEXZf8lewkAMB4KgEHSmfTtsnewGoS/LSzzD3n4Y9lLAIDxUAAM4jvljj9lU6ndsvewCnyqnz1w4q/K3gEAzIECYKB0a/oG3AuAa/42wrOKiuN/gAKBVwEYLLPxwY9Vj+dI2XvIgmN/O+HLwoOnnSt7CwAwB04ADMYpM7ZQDwEQ/vbCiV6RvQMAmAcFwGCu/7l9Yaa1tVb2HmZD+NsOjv8BCgwKgAmy+r7vc64XzLuqIfxtaXl84AMfyV4CAMyDAmAC76mT3820tPxD9h5mQPjbE47/AQoPCoBJXCenxmVTqSbZexgJ4W9bXFd1HP8DFBgUAJMwVpHR06mfy97DKHidv62tiJ370IeylwAAc6EAmMh96h1/ybS2rpO9h2h4nb/NcYbjf4AChAJgslRz5mJd1x2TlDj2tz1d06kg7k8BgIOhAJgscNYdn2aamu+RvYcICH/7Y0RV/qEPbpO9BwCYDwVAAs/pd/wum0za+ocurvk7g87ZX2XvAAByoABIkkklL+C6Pd8bANf8nYI3JnX/67K3AAA5UAAk8Z5+Z326uelB2Xt0F479HeWVPkMrGmUvAQByoABI5DntN7fpydb3ZO/RVQh/Z+E6f1L2DgAgDwqAZKkmPlTXs5ZPVFzzdxq+LHLeQytlbwEA8qAASOY769aPsk2tN8reoyO45u88jOhx2TsAgFwoABbgPv32RzPNzQtk79EWHPs70vagv+GfspcAALlQACxCY8mLs63JPbL3OBDC35kY439kZz2Tlr0HAMiFAmAR7OSKVLZ532A9m7XESwMR/o7VkCXtj7KXAAD5UAAsxHPWPesyTU23E3GpeyD8nYsz+n100P27Ze8BAPKhAFiM54w7H0g3NS2S9fgIfyfjjSyjPyZ7CwCwBhQAC3KdcsKwbCq50+zHRfg7Hft9eOhDu2RvAQDWgAJgQYyNyWbTySFmfmogXufveE2MtEdlLwEA1oECYFGeU+/cmGpsGM+58fcE4nX+zseJHgoNvs/0UyUAsC4UAAvznXHXC+nG5vuIG3dTII79CwCnz1IKmyZ7DQCwFiZ7Aejc7trffxQN8aNEz0X4FwjOy8NDpv1Z9hoAYC04AbC4ynk1f3yXjTqquUXsHxXCv2CsDX324f/JXgIArAcFwMKqFq55uqhX7KeMFNqcGU7ppJhLAQj/wqFzuomNeQV/0ADwNSgAFlW5oOb5aDT6Y8b2X6XRmZs2p86nbCa/mwIR/gXlzeiQqXNlLwEA1oQCYEGVC2pfKorFxuXCPyfJwrS15Vzies9KAMK/cDCiZp3zn8veAwCsS5W9ABzsrQW1LxfFo1cfGv45aRakZMZNUddn1N7XtGX/6/zxUr+Cwen2yJBps2SvAQDWhRMAC5m3cO3r8Xj0qs6+bjc/nj5u/CZxvWv3BOB1/gVnXSiwF2/5CwAdwgmARcxbWDszGouO7OrXN7M+xFMtFHbvIergJADH/gVHJ52P9g54/EPZiwCAtaEAWMBbC9dUxmKx4d39viZ2GLHUXgp6Gtv8fYR/4WFET4SHTHtW9h4AYH24BCDZvMVrZ8VjsYt6+v3b2Tm0Y18vOvTdAhH+hYht3ucP3Cp7CwCwB5wASDR/0brF0Wjk/HznNLCjyZXaRX5PMxExhH9hynDGR/X+3pQPZC8CAPaAAiDJvEVrl0WjkXNFzdvLjiF3eid51UaEfwHinN0TGTz1Jdl7AIB94BKAyTjnyvyl61ZFo5HviZ69Jfk9qt4SRPgXGEa0OhzYc6/sPQDAXnACYCLOubJgSd2qSDh8pujZqVSatmx9nz7dF6AMV6mfb4/ohwALYkTNXGEXec/5/Q7ZuwCAvaAAmIRzriSW1NVEIqHTRc/OhX8qlSIios+TEWrNuukw3+cdvUIQnOHH4UFT58leAgDsBwXABJxzZcHS9bWRSPhU0bMPDf+c3akQNWb8dLj/c2JMzIcIgbVwoqcig6fi6B8AegT3ABjs6aerXYve3rApHA6fInp2e+Gf81FTH1q28yTKcvwxOw6n6nBj6y9lrwEA9oUTAANNn17nPvoE18ZQMPgN0bM7C/+cfWk/fdYaoyP8u0hT8vskQbCML3TiF/oufHSX7EUAwL5QAAwyfXqdu8+RbFM4GDxO9Oyuhn9OS9ZD21t60eH+z8mtZESvA+bSOaPvRwdPq5a9CADYGwqAAb4M//pQMHCs6NndDf+vvk930ceNfamPdw/5tO59L1gIZzdFBk99QfYaAGB/KACCJRKJYDge2hoMBo4SPbun4Z+T4Sp92NSXIu5mCruaBW8HRuNET0aGTP2N7D0AwBlwd5hAiUQiqHj6bg4E/YeLnp1v+OdkuUpLd5xMdXv6ExHh5QH2MSecDfxc9hIA4BwoAIIsWbIkpHj7bQkGA4eJni0q/P+L0Ya9x97BOP8hI8JRgNUxWp9JKj9kQytwAwcACIO3iRFgzpxl8WA0ttnn9xeJni0+/IkTo1+Vl5Y8RkS0d9HN32XE/0lER4p6ABBqm6ZlzvEPeOQT2YsAgLPgBCBPM2ZU9/JHY1vsEv6M81/kwp+IKDL4wRWU1c9kjN4S9SAgzA5G+sUIfwAwAk4A8lBZWdvHH/Fs8vt9MdGzjQh/TvSzieNK/tDmb06/Qm3oe+ydjPE7CcXQCnaxLB8aGjptvexFAMCZUAB6aH/4e+v9fm9U9GwDwl/njMonlpY819kXNiy6+TIi/hciEl5qoMu+UJgyLDjogVrZiwCAc+GZXg+8VrniqEDUt9Um4Z8lzq/tSvgTEYUHP/iaxrNSPfrHAAAO8ElEQVSnE6PFohaAbtnLdX04wh8AjIYC0E0zZy49plc0ssHn84REzzYk/InGl5eNfL473+Qf8vDHoUxgGGc0+csZYI7dnPGLI+c9tFL2IgDgfLgE0A0zZy49JtK7V53P6w2Inm1E+DPGyiaUFr+Uz5B9C24eqiv8eUYk/I2N4CDbWJaPwDV/ADALTgC66I3Kd461UfinOfEx+YY/EVHovAcTGXfrKcTpGRGLQZs2ZhTlXIQ/AJgJJwBdMKtq9UnRcHCVx+vxip5tQPiniLEry0uLXxM1MGfvkhtGMF35ExEJf6fDAraCkTYyNPi+nbIXAYDCghOATryZWHlKNBKyTfgzxq8wIvyJiCIDH5rNSDuDE/3DiPkF6M1Gf2Aowh8AZMAJQAdmVy0/LRwpWuH1uD2iZxsQ/kkidkX5uOIZogZ2ZO/Cm4oVRk9yoqPNeDyH4Yyzx4O6/wa8vS8AyIIC0I4Z89Z8tyjiX+Jxe1yiZxsQ/s0K55deWzayStTArtheXeEPNjX+lhi7kfDJkl21jxGNDw2e+k/ZiwBAYUMBaMOsxKpzYqHwIrfbbYvw58RGTRxXPF/UwO7au/jGs5nOniBGZ8nawSbWcU7fjwyZukX2IgAAKACHqFy4YkAkGF/gcrnsEP5NjPNRE8pGJkQN7CnOK5TGJc3lnPMpRCT8cxHsjhG91NTCJ/W7eFqT7F0AAIhQAA4ye3b1wGjvSMLtdmuiZxsQ/nsZ10dMKBv1tqiBIjRU3VbE3ZnJjGgi4bIAEdEuRvxnocHT/i57EQCAA6EAfKmqqubCQCw82+3ShIeWEeHPFTZ84tji5aIGitaQuOFEUpW7iegK2btI9KaqsEmBgQ9ul70IAMChUACIaGbVquFF8dibLk21Q/jvIa5fXF42aoWogUbas+DmC1WF38+Jvi17FxPtYMSuDw1+8FXZiwAAtKfgC8CMuSuL+xQVvaG5bBH+uxnRRRPGlVSLGmgGzok1Lrr5cq7w3xGnU2TvY6AMEXuOstnbw0Mf2iV7GQCAjhR0AZgzv7okFo29oWma8DdEMiD8d3KuXDCxbMRaUQPNxnmF0rCk6UrG6VYiOk32PgJx4vQa6frt4aEPbZK9DABAVxRsAaisWnVlrFfsZVVRLR/+jGiHotAF48eWrBMy0AIaltwykHT9FiIqITv/d8hpOSP9ltCQhxbJXgUAoDvs+4M3D7Pnrb6qKBZ9SdVU4f/+Bjzz/0zX1fN/fM3wOlEDrWTP4hu+o+jKdcToSiIS/kFLxmGLOOcPRIZMnSV7EwCAnii4AjC7atXYoqLYX1XVFuH/H0Vh5187tniDqIFW9fnyn4XdSc9VxJSJnPh3ZO/TjlZG9M+swh6NDnzQVvdhAAAcqqAKwOzEqkm9ovEnFVWxQ/h/TEwdVl46fKuogXaxb8ktJ5OeHa1zNpoxOkP2PozYKp3485ypL0YH3b9b9j4AACIUTAGofGv1T4t6x//AFGaH8P8oq7Nhk64pflfUQLvas/jW4xRdv5wYH0ZEA4kobMLDponY28TpDZ30f0WHTHvfhMcEADBVQRSAOYma63vFYo/bJPw/4JQdNnHcJQidQ/DpV6h7+/U/nXEaxBidS0QnE9E3iMid5+jdnGgV43wVJ7YoqQcW9Rla0Zj/xgAA1uX4AlA5v/bn8Xj4UUWxwbE/py1cZcMmji3eJmag8/HpV6h7j+jfn3H9m5RVvkmM4oxYkIhCRDy6/38pw4maGKe9xKiBc9bEFP4RI/6equvv+oc8/LHkfw0AANM5ugDMqaq5vah39F6FCX+lnxHP/OtdXD+/rGzUJ6IGAgAAtEf4h95YRWVi9W+KYtF7mA3CnxFtIlfm/LKrLsV7xgMAgCnEp6MFVCZq7iqKxe5hivXDn4g2Zpg6bALCHwAATOS4E4A5C9b8Lh6N/paJv+QvPvwZrcmq+oWTri7B+8YDAICpHHUPQOX8moeLimK/YuJv9jfimX+NiycvLCsb/bmogQAAAF3lmAIwN1HzaDwe+4Utwp/RKkqqF5WXD/9CzEAAAIDuccQ9AJXz1/zeNuFPVJ1S+IUIfwAAkMn2JwBvLVjzl1gsOt4W4c9oqZex4rFjixvEDAQAAOgZW58AVC6oed424U+0mKUyIxD+AABgBbY9AZi7YM0L8Vh0rC3Cn9GipMdfcv2YoXh7WQAAsARbvgzwrQW1L8fj0auMmG1A+M8Ne5ouGzOmpEXMQAAAgPzZrgDMW7j29WgscokRsw049p+jZvyXjyktaRU1EAAAQARb3QNQtXDtm/YJfz5LzfovHz9+KMIfAAAsxzYFYN7itbNisUiJEbMNeG//N5v3KKMR/gAAYFW2uAlw3uK1s6KRyAgjZgsPf8ZfzTT3u3rSpLPSQgYCAAAYwPL3AMxbtHZhNBIZbMRs0eHPOU3fdlTgRxVDz8oIGQgAAGAQSxeAeYtrl0QjkXONmC3+mj/7+ydH+0orhg5F+AMAgOVZ8hIA51yZv3RddTQcOdOI+Qbc7f9y2Ns0bsyYMVlRAwEAAIxkuZsAOefKgiV1q2wT/pz+tO29laUIfwAAsBNLXQLgnCuJJXU1kUjoNCPmG/BSv2e3vV/9k4qKCl3QQAAAAFNY5hIA51xZsHR9bTgcPsWI+cJv+CN6qry0+DrGGBcyEAAAwESq7AWIiJ5+utrVmNyzKRwOnWjEfAPe3vfh8tLiXyD8AQDArqSfAEyfXufufSRtCAeDxxsxX/w1fzatvKz4JjHDAAAA5JBaAKZPr3P3OZJtCgUDxxox34C7/R8sH1dyi6hhAAAAskgrANOn17n7Hsnqg8FAfyPmG/DM/4HysuJbxQwDAACQS8qrABKJRFD1KPWBoP9wI+YbcLf/XeVlJXcLGgYAACCd6QUgkUgEFU/fzYGg/zAj5htw7H9n+biRk0UNAwAAsAJTC8CsWcvDijdSHwz4+xkx34Dwv718XMl9ooYBAABYhWkFYM6cZfFgNLrZ5/cVGTFfcPhzYvSr8tKSx0QMAwAAsBpTCsCMGdW9/NFAvc/vixsxX3T4M85/MWHcyMdFDAMAALAiwwtAZWVtH3/Es8nv98WMmC/8mT/n/zuhbOQfRQwDAACwKkNfBrg//L31fr83asR8weGvc0blE0tLnhMxDAAAwMoM+zTA1ypXHBWI+rbaJPyzxPm1CH8AACgUhlwCmDlz6TGRaGS9z+cJGjFfePgTjS8vG/mCiGEAAAB2ILwAzJy59JhI76I6n9cbED2bSHz4M8bKJpQWvyRiGAAAgF0ILQBvVL5zbCQWXWeT8E9z4j8sLy35l4hhAAAAdiLsJsBZVatPioaDqzxej1fUzAMJDv8UMXZleWnxayKGAQAA2I2QE4A3EytPiQZDKz0ety3CnzF+xYTSkjdEDAMAALCjvF8FMLtq+WmxUKTaJuGf1Dl9f0LpSIQ/AAAUtLxOAGZW1p4difoWe9wel6iFDiQ4/JsVzi8tLxtZJWIYAACAnfW4AMxKrDonHvIvcrndtgh/TmzUtWUl80UMAwAAsLseFYDKhSsGRIKRBS6Xyw7h38Q4H1VeVpIQMQwAAMAJul0AZs+uHhgORBIul8uQNxESHP57GddHTCgb9baIYQAAAE7RrZcBzp275qJQUWiW26WpRiwjOvy5woZPHFu8XMQwAAAAJ+nys/iZVauGh+PhN12aaofw30Ncv3ji2FErRAwDAABwmi4VgBlzVxb3isXe0OwR/rsZ0UUTykZVixgGAADgRJ0WgDnzq0ti0dgbmqYa8smBgsN/J+fKBeVlI9aKGAYAAOBUHRaAyqpVV8bisZdVxfrhz4h2KApdMH7siHUCVgMAAHC0dgvA7Hmrr4rFoi+piirs8wIOJPiZ/2dZXT1/wrjhdSKGAQD8//buJjaKMo7j+P95pmyn20KlL8SExGjixYSTIfVCjNsC1gXbeBkElyZLaUgkxpPhZGjC1QOJcuPUA5h4MDEGy0slUi6N3egJBRJsFJWYpov0ze3uzOOBsIBs2LbzXwvs93PcPPPbvf1mnn3meYBnXcVy/+ZCLtPevnHE856K8r9lrek5kElf0QgDAKAePDK1PzqWG+pob6tx+d/QKv9fw8hso/wBAFiZh0r+7IXcno0dbac9a2tc/kWNuCkvtKls9q0pjTAAAOpJuei/OjvxUmdH+7XE07HD35STsHtooO8XjTAAAOpNuexb16//trblr/Tk7+S680z3UKbvZvwwAADqkxURGb34w+GWluYXa/EFmuVvRH42idIbQ5k05Q8AQAxWRCTpNx2tRbjyf/5XbCipwb39f2iEAQBQz+z587lXmpv9Tu3g+//5q5T/T6Hxtmezu25phAEAUO+sW2c/WuGhgFWpLvgz8mPYEL1+aH/vn/HDAACAiIhtTCR2aAaqvudvJCcFr+fQvren44cBAIB77LqGRJtWmOq0/93y33nwYO9M/DAAAPAg6zVYXyNI+T3/ySXrdlD+AADUhvW8+Cf96W7v6y6bYqn7/fd25xXCAABABTYKoyhOgPJq/3FTDNODg/2zGmEAAKAyWyqVVv3Yrrza/1LBT1L+AAD8D2wxDG+v5kLl1f7nNjTO9x4OUnPxwwAAQDW2WFwaX+lFytP+o14p2R8EwaJGGAAAqM4WFgufreQC3dX+7owXJt/JZlP/KIQBAIBlMiIilyeuzjY1+S3VBmvu7e+M+bK1ce7dIAhU3hsEAADLZ0VEFhbmT1QbqHuwj/kiWti0h/IHAGBtlA8BGJ+4mk82+c9VGqR6pK+T07+9kBwYTqVKscMAAMCqlDcBunP77/4oitx/B+gu+DOfU/4AAKy98g3Arje7LuVn8kedu38PoLy976kN/lyG8gcAYO09tA3wzu5Xj03P5I+7yKm+529ETty88f3+IAjC2GEAACA2U+nDM2OTH0xPz3y8VCh2xsxfMuKODA7sPh4zBwAAKKp4EFC6Z+un8wW3xYmMiMgj6wKWxci5KJTXKH8AAJ48FWcAHnRy5Ost4syHxkifE9n0uLFOZNGKjBkxnxwYSH+n9zMBAICmqjcA9wwPD9vNL3d1GRdtc042G7HPizjfiPzuxP3lxJts9WcvsqUvAAAAAAAAAABPgn8BZ6lCJVvBU0QAAAAASUVORK5CYII=;" parent="1" vertex="1">
                    <mxGeometry x="390" y="285" width="190" height="190" as="geometry"/>
                </mxCell>
                <mxCell id="13" value="" style="rounded=1;whiteSpace=wrap;html=1;strokeWidth=4;arcSize=4;fillColor=#d5e8d4;strokeColor=#82b366;" parent="1" vertex="1">
                    <mxGeometry x="705" y="250" width="260" height="260" as="geometry"/>
                </mxCell>
                <mxCell id="14" value="" style="rounded=1;whiteSpace=wrap;html=1;strokeWidth=4;fillColor=#f8cecc;strokeColor=#b85450;arcSize=4;" parent="1" vertex="1">
                    <mxGeometry x="1055" y="250" width="260" height="260" as="geometry"/>
                </mxCell>
                <mxCell id="15" value="" style="rounded=1;whiteSpace=wrap;html=1;strokeWidth=4;fillColor=#fff2cc;strokeColor=#d6b656;arcSize=4;" parent="1" vertex="1">
                    <mxGeometry x="1415" y="250" width="260" height="260" as="geometry"/>
                </mxCell>
                <mxCell id="16" value="" style="rounded=1;whiteSpace=wrap;html=1;strokeWidth=4;fillColor=#e1d5e7;strokeColor=#9673a6;arcSize=4;" parent="1" vertex="1">
                    <mxGeometry x="1785" y="250" width="260" height="260" as="geometry"/>
                </mxCell>
                <mxCell id="17" value="" style="shape=image;verticalLabelPosition=bottom;labelBackgroundColor=default;verticalAlign=top;aspect=fixed;imageAspect=0;image=data:image/png,iVBORw0KGgoAAAANSUhEUgAAAgAAAAIACAYAAAD0eNT6AAAABHNCSVQICAgIfAhkiAAAAAlwSFlzAAAN1wAADdcBQiibeAAAABl0RVh0U29mdHdhcmUAd3d3Lmlua3NjYXBlLm9yZ5vuPBoAACAASURBVHic7d15lFzVYe/73z6n5up5QHNLAoExYAaDEBbtAQc5if28nNyX4Tqw8uIMTq6N37tZzr0O1247C8WXDPaL824m3xg8RDhxnMSOk9hOGowH0UJgG2wGg0FoQLPU6rHmOme/P6qEEAiQ1NXap+p8P2vVqkZSV/+K6tr7V/tMxlorAKc2c+tNGyW9RdJ6SVdLqkr6bvP2r7233/VDh/Fib+bWmy6X9H9IuqZ5S0n6nqQHJf1H7+13TTiMB0SaoQAALzZz6009kj4u6ddf5p/VJf2hpNt6b7+rek6CQZI0c+tNKUkflvQBSYmX+aefkvT+3tvvmj0nwYA2QgEAXmDm1puulPQvklae5rc8Iumnem+/a//ipcJxM7fetFzS1yW95jS/Za+kt/feftfDi5cKaD+e6wBAlMzcelNa0l06/clfakxEn1qcRDiFT+n0J3+p8Vre1XxtATRRAICTfUTSJWfxfT89c+tNv9bqMDhZ8//xT5/Ft16ixmsLoIlNAEDTzK03LZX0rF5+m/LLPoSkwd7b7wpalwrHzdx6ky9pUlLvWT5EXdKq3tvvOti6VED7YgUAOGG9zn7ylxoT09msHuD0XKKzn/ylxmu7vkVZgLZHAQBOaMXkwASzeHh9gBaiAAAnXBWRx8Cp8foALUQBAE7ojshj4NR4fYAWogAAABBDFAAAAGKIAgAAQAxRAAAAiCEKAAAAMUQBAAAghigAAADEEAUAAIAYogAAABBDFAAAAGKIAgAAQAxRAAAAiCEKAAAAMUQBAAAghigAAADEEAUAAIAYogAAABBDFAAAAGKIAgAAQAxRAAAAiCEKAAAAMUQBAAAghigAAADEEAUAAIAYogAAABBDFAAAAGKIAgAAQAxRAAAAiCEKAAAAMUQBAAAghigAAADEEAUAAIAYogAAABBDFAAAAGKIAgAAQAxRAAAAiCEKAAAAMUQBAAAghigAAADEEAUAAIAYogAAABBDFAAAAGKIAgAAQAxRAAAAiCEKAAAAMUQBAAAghigAAADEEAUAAIAYogAAABBDFAAAAGKIAgAAQAxRAAAAiCEKAAAAMUQBAAAghigAAADEEAUAAIAYogAAABBDFAAAAGKIAgAAQAwlXAcAcPpu2zKRM1K3MeoxUpcx6m7e55t/njdGOSPlmvdZzyhrjMkao4wnZYxRxjNKG6OUJFmramhVsVblUCpbq7K1thRalaxUslZFKxWtVdFaFaw017yft1ZzzftZK819+OaNRdf/jwCcHgoAsIhu2zKR8IzO941e5Xu6IOFpdcIzKxO+liY9DaZ89Xqekp5RwjdKeEa+Z+T5nnzPGON78nwj43syvpFG15yrRTtzVt91z3fuV2ClIJQNrGwQKgyttUGoILQKQ6sgsKqHVvUwVK0aaKYWarIe6GA9tHvroXYHoXYEVk+GVs98+OaN9RY/MQBNFACghfYOXfh//utXt709nVAukzSp61d7njm7ubQtGSMljJTwZNRoEV6zTCRf4luWP++7T/oLa6V/vff+sFyz1UpdxSuHLkytPPrU4gQHYoh9AABJm7dMLCsmcsMLfZxsJtG1rMcMDORMJpdUrCb/VjNGyiXlDeRMZlmPGchmEl0LfcxiIje8ecvEslbkA9odKwCIjdu2TGQSnl6f8jWaTpirMgmty6e0rDtteq5f43nBwX5pkk3YnSzo7b/k+jXe/n/5xv3hXMXOFqo6UK7r6UrdPlQNtLUe6jsfvnlj2XVO4FygAKDj/P5dE5elfN2Q8nVNJmlenUtqpCul/o2rvZTHJ3JIyqfk5VOmT1KfpFdL5u2SFFrpn8a3VeermirWtKdcsz+qBvpuNdC9H7pp46NuUwOtRQFAW9q8ZWIo6esnUr6uSyfM5dmk1uZTOq8nbXIbVzPN4+x4RurLmlRfVkskLZHMekm/LElf++b9drZii4WqDpdq2lmp2x9WA91fC3TP2M0bj7pNDpw5CgAi7aOfn7gu5evGdMK8NpPQhfmklnenTe/1azzfdTbESzohM5ww+eG81kpaK5k3H/+7r9xzfzBXsTOFmvaX63qqUrffrwa6+4O/tPF+h5GBl0UBQGT8/l0TF2cS+sVcyrypO6VLB3Jm8HUjHjuqIvK60vK70mZA0oCkyyTzs5I2/9u994fHinZyrqrHilX7zXJdX/jQTRufcBwXkEQBgCMf/fzE0pSnX8wmzVu60rq8P2uWblzt8fuIjpJNylvRa4YlvUkyb5L0e/98z/31qZI9OF/VD0pVO14N9YUP/tLGg26TIo4YcHFO3P63E9dlE3pXd9rc0JfVyHWrvDSHyCGOutNKdKfNSkkrJfM2a/WJfxzfVpkuac9cxd5bquvTt76TTQdYfBQALIr/+fmJa7NJ/VpP2twwmDdrN6zi0z1wKsZI/VmT7s/qQslcKOndX77n/vpkwe6crdh7SzXd8T9+aeMDrnOi8zAooyU+etfE+lxKv9qTNm8ezJm11414L3XmNwCvoCetRE/anCgEd99fmyzanbMV+41iVXd+8KaND7rOiPZHAcBZuW3LRCqT0G/2ZMwvn9ely1+32ku5zgR0qp6Mkj0Zc5FkLpL0W/9097bq4Xn9cLZsP1eu65Mfvnlj1XVGtB8KAE7b5i0TS3Ipvb8vY/7TNSu88zPJs7xiDIAF6cuYVF9G10jmmnJNf3rHV7Y9M122/1Ss6uNjN2885Dof2gMFAC/ro3dNXNWVNu8fyOot1414wz4H5QGRkknKrB0wF0jmvwWh/tvf/Nu2I8dK+o/5iv34B2/a+JDrfIguCgBe5PfvmriwJ21+f0mX3vq61d6CL8AC4NzwPWlFrxle0aubJHPTF76+bf7QvL46W7Ef+tBNG7mUIk5CAYAk6bYtE7lcUv9jOG/etWHEW+6zuA+0veEu0zXcpV8IrPmFz/7rtv1HCvbTxZr+54dv3shVr0ABiLs/+NuJd/ZnzX+/eoV3eTbJ5aGBTuQbaVWfWb6qz3ywVNOtn/zyth9Olewf/e47N/6t62xwhwIQQ5u3TKzoy5o/W9atn7p2lZdxnQfAuZNNyrtwyFwpmc//w39su/PAnL4+XbK3jN28cZ/rbDi3KAAx8tG7Jq4ezJu/uGaltz6dYA9+IO4GciYzkNPPVOrmHX/15W0PThbsez5408bvuc6Fc4MCEAO3/+3Ez5yXNx/bMOJdwIVyAbxQOiFz0ZC5Nhw0373jK9t2HC7Y37n1nRu/7DoXFhcFoIP90d9NvH9Zj/ndDau8IddZAESfZ6S1A+aCtQPmS3/z1W1HD8zaP/jv/3njx13nwuKgAHSgP/zbiXet7jd/es1Kr9t1FgDtaUWPGVrRYz72d1/f9pHdU/b/+cA7N37adSa0FgWgg3z0rokrl3abf1i/yrvAdRYAneG8LtN9Xpe5846vbPvgwTn7cx+8aePDrjOhNSgAHeC2LRM9Aznz99es9N6S9Nm5D0DrrR0wF6zsNd//s3/a9h/HivYXPnzzxlnXmbAwHPfd5j7+9xO3X77UO3rJeeYnmfwBLKakL3PJeeYnL1/qHf3430/c7joPFoYVgDa1ecvEeSt6zf1XLffWus4CIF56Mkpetdz73Tv/Zdsv7pux143dvPGw60w4c6wAtKHbPz/x9kuWmD1r+g2TPwBn1vSbtZcsMXtu//zE211nwZmjALSZP/nixCdfu9L7Sn/WpF1nAYD+rEm/dqX3lT/54sQnXWfBmWETQJu4bctE3/Ies/2KZd5FrrMAwPMlPemKZd67P/WVbW/aP2s3fPjmjdOuM+GVsQLQBm7bMpFbO2CeOn/AMPkDiKzzB8xFawfMU7dtmci5zoJXRgGIuNu2TCRW9ZofregxnM0PQOSt6DFDq3rNj27bMsEKc8RRACJuabd5aHW/GXGdAwBO1+p+M7K02zzkOgdeHgUgwv7iS9u+vW7QXOY6BwCcqXWD5rK/+NK2b7vOgZdGAYioP/7CxAcuHjavd50DAM7WxcPm9X/8hYkPuM6BU6MARNBtWyYSa/rNR1znAICFWtNvPsL+ANFEAYig7rT+cjBnsq5zAMBCDeZMtjutv3SdAy9GAYiYzVsmBi4Y9N7lOgcAtMoFg967Nm+ZGHCdAyejAERMT8b8aVdKvuscANAqXSn5PRnzp65z4GQUgIjJp3SN6wwA0GqMbdFDAYiYrpRWus4AAK3G2BY9FIAIuW3LhNefNXnXOQCg1fqzJn/blgnmnAjhxYgQ3+j6pC/jOgcAtFrSl/GNrnedAydQACLkyaOW8/07VMn1Lvwx8gt/DJxaK/7ftuI1xtn78VE76DoDTqAARMiBWZufq7hOEV/F3vMW/BiF3iUtSIJTacX/21a8xjg7cxVp/6xNuc6BEygA0WIOz1vXGWKr2Du88MfoY4JZLK34f9uK1xhnpzm2sYkzQigAEXOkQAFwpdh7nko9Z78VZnrp+aonMy1MhOerJzOaXnr+WX9/qWeIFQCHGNuihwIQMc8c403iijWedl1+o6w587dFPZnRnstuWIRUeL49l91wViVrIa8tWoOxLXp4N0TM7inLG8WhYu+wDq67+oy/79nL3qhaOrcIifB8tXROz172xjP+voPrrmb536FnjlntnmJcixoKQAR94+lQlveKM/svuk57LnujQj/5iv+2nspqx9Vv1bHlF52DZJCkY8sv0o6r36p66pWvlxX6Se257I3af9F15yAZTsXaxpiG6OESjRF0pGD1w4OhrlhGP3PlyOrLNTu8WiOP3KvuyX0y9uQBzHq+ppeerz2XvvG0JiK01vTSCzQ/sFwjj31LfQefkQmDk/7eGk9zgyu05zU3cOifYz88GLL9P6IoABH17Z2hLhrylH3lD6FYJJVcr57a8DPywkDZ2SPKzRyR9XwVe4dV6h5ke7Jj9VRWz1z1UzI2VHZuUrmZIzJh0Hh9eoYVelxTy7VSrTGWIZooABE1X5H+/oeB3nmlrxTjmFOh56vQt1SFvqWuo+AUrPFU7BlWsYdt/FFSDRpj2DznNoksPsJE2P5Zq398JFBAgQbQRoJQ+sdHAu2fZek/yigAEbdryuqfHw/YKRBAW7BW+ufHA+1ir//IowC0gSePWH3tSY4MABBt1kpfezLUk0cYrNoB+wC0iR8cCDVdtnrHJb7ynE0bQMQUqo1P/hzv3z5YAWgju6es7niwrj3TvMEARMee6cbYxOTfXigAbaZQlT7/cKBtu9kzEIB723aH+vzDgQpV10lwptgE0Iaslb75TKi9M1Zvu9hXjk0CAM6xYlX6tycCPT3Jp/52RQFoY09PWv3V9rquX+3pmpWefNZzACyyIJS+uzfUfbtDVequ02AhKABtrlKXvrEj1EP7rX5inacLh7jcNoDF8dRRq3ueDjVV4lN/J6AAdIipktU/PBJoTb/RjRd6Gs5TBAC0xpGC1d1PhRzb32EoAB1m15TVHQ8GunKZp+tWG/VlKAIAzs502er+3VYPH+A8JJ2IAtCBrJUe2h/q4QPSxcNGG0Y8LeumCAA4PQfmrLbvCfXEEcvE38EoAB3MWulHh61+dDjQSJ/RdSOeLhikCAA4tR2TVvfvCTnXSExQAGJiz7TVnulAQ3mjDauMLl3CUQMAGnv1P3Yo1PZnrY4WmPjjhAIQM0cLVv/2hNU3nwl16RJPr1lqdF4XqwJA3Byet3rkoNVjh0JO4hNTFICYKlSlB54N9cCz0pIuo9csbawKcFIhoHMVq41P+48ctDo0z6f9uKMAQIfmrQ49bfWNHaEuGDR6zVJP6wYNmwiADhCEjZOGPXIw1I5Jq5B5H00UADwntI0TfTx1NFA2KV18nqeLhoxW91EGgHYShNLuaasfH7V64nCoUs11IkQRBQCnVKpJD+0L9dA+KeVL5w8aXTTUOIogw28NEDnlemMv/h8fDfXMpFU1cJ0IUcdQjldUDaQnDls9cTiQZ6RVfUYXDhpdOGTUl2UHQsCV6ZJtrNpNWj07zfI+zgwFAGcktNLuKavdU1Z3Py0N543WDRmt6Tda2WuUYFMBsGjqobR3xmrXlNXTR62OcNgeFoACgAU5UmgMQtt2S74nLe8xGulr7DewgkIALEg9lPbNWO2ettozbbV/1ioIXadCp6AAoGWCUHp2urEUeZ9OFILVfUar+42W91AIgJdTD6X9s40Vtt1M+FhkFAAsmucXgq27GoVgRU+jCCzrMVrWbdSbcZ0ScGem3Djv/oHZxmS/jwkf5xAFIFo6+mCdIDx+SuIT2y1zKWl594lCsKzHKJd0GBJYJMWadGDWnpjw56yK8TsDX0ePce2GAhAtj7kOcK4Vq42TlDw9eaIU9GaMlvWoUQi6jYbyRnnOUIg2Uqg2Trt9YO74hC/NlNlhT9LjrgPgBApAtPDmUGOgnCk3Dj08Lp2QBnJGgznZgazRYM5oICf1Z41J+g7DIrZqgTRVsvZYUZosWh0rWU0WZY4VrSp11+ki68euA+AEY7nYc6Rs2ry1ICnnOkcbsT1p2YGcsYM5Ywfz0kDWaCAnvydtjOE0BVgAa6XZirXHigqOlawmC9Jk0ZpjRWtmKzKS+A07fcXxsdG86xA4gRWA6LlP0ibXIdqIma3IzFYax0Y/j/U91Qeyxg7mZAdyxu/PyR/MGg3kjLLsZ4DnKdWkY0WryZLVVFHBsaINJosyx0rWBKF8MVa2wn2uA+Bk/FJHz8dEAWgFE4RKNM5TIEknr3Rlk8+tGmggJzuYM+rLyOSSRrmUPI/PdR0ltFKxqrBYs5ouy04WrY4VZRr31pRqJ32S95s3tNbHXAfAydgEEEGbNm99VNKlrnPEWSahMJ8yQT6lsHEzYVfa2OX96aRnQ99X4KcTocklWU1wpVSTijWrSt2zgfwgNF6wf6pSm69YU6har1BV82b9cl2cgcKtx8bHRi9zHQInYwUgmn5C0l7x+jhTrssr1603WTz+J1b5tK873rbuuX9TC6zmy3XNlwOVqoEq1UCVeqB6LVA9CGTDxs0okG8DJUyolBfIiAO9T8XKUzX0VbeeAuPLypfxGreE7yuR9JVO+EqnfGVTvroyvroyCSV9Y9R4ryR+7ZOPpQsV/v9GTF2NMQ0RwwQTQeNjo4c2bd56q6Q/dp0FLy3pG/Xnk+rPn9kSQBBaFSuN0lCuBSpXA1WqdZVroaq1QLUgkLVWNrSSbGNPtOa90clfG2PlqfG1Z6w8ScaE8mTlGy34Ms5BKAVWCmVkradQUmiNrEzzzxpfyzT2h3v+18fvjWdkjFHS95VK+sokPaVTCWVSvjLJxmSeS/vy2e7SqW4dHxs95DoEXoxNABG2afPWxyW92nUONOTTvu74zfbZMmOtVA+takGoILCqh1b1wCoIG7eweek4zzPym7eEb5TwjHzfKOl7SnhG7XQkxa998jEVKlwHN0J+ND42eonrEDg1VgCi7Sck7RGvE86CMY1ViqTP/mxwgqX/iGPHmAgbHxs9IOlGcfpMAO2lJunG5hiGiKIARNz42Oi3JF0pqfhK/xYAIqAo6crm2IUIowC0gfGx0cclnS9p0nUWAHgZk5LOb45ZiDgKQJto7kU7ImmX4ygAcCq7JI2wx3/7oAC0kfGx0aKkCyR913UWAHie70q6oDlGoU2wd3mbGR8bDSWt37R563+V9IeSuFAuAFeqkj4wPjb6CddBcOZYAWhTzTfcsKRvOo4CIJ6+KWmYyb99sQLQxsbHRmcl3bBp89a3SPo7Sf2OIwHofFOS/vP42Oh/uA6ChaEAdIDmG3Fg0+atfy3pV8XKDoDWCyXdOT42+huug6A1mCg6SPONeXFp5lDFhlwQBcDChUFdxemDFUkXM/l3FgpAhxkfG31q5tAOc+DH92nuyC6FYd11JABtqFae09S+H+nAk9/R7OFnzPjY6FOuM6G12ATQocJ6VTOHdmju6G51DaxS19AqeT4Xrgfw0qwNVZo9ovnJZ1UtzriOg0VGAehwYVDX7JGdmpvco3z/CnUPjchPpl3HAhAhQa2iwtQ+FY7tU1Cvuo6Dc4QCEBM2DDQ/uUfzx55VtntI+f4VynQPSGqja70CaKlKYUrzk3tVmjvSuH40YoUCEDfWqjR7RKXZI/KTaeX7lyvfv1x+MuM6GYBzwIaBCtMHVJjcq1ql4DoOHKIAxFhQq2j28E7NHt6lTFe/8gMrlOkeljGsCgCdplaeV2Fqv4pTB9g5GJIoAJAkWZXnj6k8f0xeIqVcz3nK9p6ndK5PogwAbatWnldp9rBKM4f5tI8XoQDgJGG9qvljezV/bK88P6lsz5CyPecp3TUgYzhqFIi6WnlepZlDKs4eVr3CtXnw0igAeElhUFNh6oAKUwdkPF+Z7iFle4aV7R6S8XzX8QA01UpzKs4eVmnmkOrVkus4aBMUAJwWGwYqzRxSaeaQjPGU7upXpmtQma4BJdJ51/GA2KmWZlWaOazS7GEmfZwVCgDOmLWhynOTKs9NSpL8ZFqZrgGl8wPKdA3IS3CFYmAxNCb9Q81Jv+w6DtocBQAL1jiJSGNTgSQlM12NQtA1qHSuT8Zj3wHgzFnVyvOqFKZVKUypUphWGNRch0IHoQCg5WrledXK85o7ukfGeErlepTM9CiV7VYq261EOidOQAS8gLWqlueem/CrxWmFAYfrYfFQALCorA2bA9r0c39mPF+pbLeSmW6lsj1KZruVpBQgZqy1qpVmn/t0XylOy4aB61iIEQoAzjkbBpQCxI4NA1VLc6oUGxN+tTjDhA+nKACIhJcsBZluJbOUArSPMKirXimoVik8d18rFxTU2GkP0UIBQGTZMFCl2FgaPc54fnOVoHFLZnuUTOU4YyHOuTCoqVZ+3iRfKaheLiioV1xHA04LBQBtxYaBqsVpVZ9XCmSMEsm0/GRWiVRWfiqjxPO+9hNc/hhnJwzqCmpl1aslBbXy8z7VFxVy2Vy0OQoA2p+1qlfLqlfLqhSmXvTXxnjyU1klmsXghV97Pm+DuHrhBH/ivqygVmIvfHQ0Rr4OFAa1pOsMUWJtqHrzk9upeH6iuXqQaawaNL/2U1klkhlOe9zGwrCuoFpWvVZWUC09N7EzwZ8ZxpTORAHoMBtu+ezqMKizQfwMhEFdYTCnWnnulH/vJ1LyU1n19fRIuvTchsMZmTm4QzNzs0zwLRYGdbPhls+u3v5n/9du11nQOpyircOEQf1drjN0mqBeVbU4o+LsYddR8Armp/aqNHtEtfIck3+LMbZ0HgpAh6mW597rOgOAzsPY0nkoAB1k/XvufF+1ODPkOgeAzlMtzgytf8+d73OdA61DAegQ197ymY3F6YOfcJ0DQOcqTh/8xLW3fGaj6xxoDQpAB1j/njt/ozh98FthUOP1BLBowqDmFacPfmv9e+78DddZsHAcBdDGNrzvc321SuGfS7NH3iBrXccBEANBrZKYP7b3f7/23X95czKdf8f2//XL06/8XYgiPjG2qfX/5Y7fK0wdOFyaOczkD+DcslalmcNvKEwdOLz+v9zxe67j4OywAtBmrn3vZ95QLc58oVKcXuo6C4B4C2rl5PyxvR+58l1/+pupXO8vPvDnv/Jt15lw+igAbWLD+z6XqVWKXy3PHbnBhqHrOADwnEpxemm1PPut1777r+5NpnNv3f6/fplLH7YBNgG0gQ23fHZVeW5yb2nmEJM/gEiyYajSzKEbynOTezfc8tlVrvPglbECEHHX3vKZ0dLM4bvr1RKXtMPLCsNQ84WCCsWiisWiSpWKFrx/iDHKptPK5XLK53LqyufleXxuwEurlmYHw6D21LW3fObGB/7sV7a6zoOXRgGIsPXvufPXi9MHP8nhfXgptXpdu599Vjt27dKuZ59Vtbq4l6hNpVJas2qVLlizRqtXrVIywRCCF6tXS+nCsf3fWv+eO3/zwb/41U+5zoNT490bUde+99P/qTC1769Z8sepBEGgHzz+uL778MOqVCrn7OdWq1X9eMcO/XjHDqXTaV1z5ZW64pJL5PtcMREnC4OaV5ja99fXvvfTxx7483f9k+s8eDE+WUbQhvd9rqc0d/QuJn+cyo5du/Q3X/yi7tu+/ZxO/i9UqVR03/bt+psvflE7du1ylgPRZcNQpbmjd2143+d6XGfBi1EAIqhWmvtmvVLMuM6B6Nn+ve/pq3ffrbn5eddRnjM3P6+v3n23tn/ve66jIILqlWKmVpr7pusceDEKQMSsf8+dt5Tmjl7lOgeiJQxDfe2ee/TAQw+5jvKSHnjoIX3tnnsUsnKFFyjNHb1q/XvuvMV1DpyMAhAx9Wrp111nQPTce999enrnTtcxXtHTO3fq3vvucx0DERRUy4xtEUMBiJigWlrnOgOi5eFHH9XjTz7pOsZpe/zJJ/Xwo4+6joGIqdcY26KGAhAh1/zWXw/VqsW86xyIjsNHj2rr9u2uY5yxrdu36/DRo65jIELqlUJ+429/Ych1DpxAAYgQz0+OcmEfPN99Dzwg24a/E9Za3ffAA65jIEKstbI2eIPrHDiBAhAhub6lB11nQHTs3rtXe/fvdx3jrO3dv1+79+51HQNRYYyyvUuOuI6BEygAEZLMdJX9JEf/oeF7P/iB6wgL1gnPAa2RSGbkJ9I11zlwAgUgYpLpnOsIiIBSuaz9B9t/QWj/wYMqlbkwHKREirEtaigAEZPtXeo6AiJg5+7dbbnt/4Wstdq5e7frGIiAbO8S1xHwAhSAiMn1LZHnJ13HgGO7OmjbeSc9F5wdz08q10cBiBoKQMQY4yk/sMJ1DDg2H6FT/S5UJz0XnJ38wAoZw3QTNbwiEdQ1uEpeIuU6BhwqFIuuI7RMJz0XnDkvkVLX4CrXMXAKXA44gvxESgMrLtHR3Q+7jgJHiqXSgh8jkUjI8xbW8cMwVL1eX9BjtOK5oH0NrLhEPh9oIokCEFGZ7kF1DY5ofnKP6yg4x4IgaMkFdX7yhht0/urVC3qMZ3bv1r+Njy/oMcIwwt+CYgAAFdFJREFUVBAE8n1/QY+D9tM1OKJM96DrGHgJbAKIsN6lFyiV63UdAwDOWCrXq96lF7iOgZdBAYgwYzwNrbmSEgCgraRyvRpacyU7/kUcr07EeV5Cw2uuUjrf5zoKALyidL5Pw2uukuexhTnqKABtwHi+hlZfqXS+33UUAHhJ6Xy/hlZfKeOxv0c7oAC0CeP5Gl5zlbqHFrZTFwAshu6h1RpecxWTfxthjaadGKPepeuUzvfr2N7HFAZcVwOAW56f1MDKS9nbvw2xAtCGMt2DWrJuA/sFAHAqne/TknUbmPzbFCsAbcpPpjW89rUqHNuvmUNPKwwWdrIWADhdnp9Q75J1yg8sl2Rcx8FZogC0NaP8wAple8/TzMGnVZja7zoQgA6X71+u3qXruGhZB6AAdADPT6p/xauV71+uqf1Pqlaecx0JQIdJZrrVv/xVnJekg1AAOkgq16sl665VafaI5o/uUaU47ToSgDaXzvWpa2hE2Z5h11HQYhSADpTtGVa2Z1jV4ozmju5RafaIJOs6FoC2YZTtGVb30Aif+DsYBaCDpXK9Ghx5jerVkuaP7lFh+oBsGLiOBSCijOcr37dMXUMjSqSyruNgkVEAYiCRyqpv+avUs+R8zU/u1fyxvQrrVdexAESEl0ipa2ClugZXsnNfjFAAYsTzk+o5b626h1erOHVAc5N7VK8UXccC4EginVP34Ihy/cu4cE8MUQBiyBhP+YEVyg+sUGn2iArH9qlSOCZr2U8A6HTGGKXzA41DiNmxL9YoADF3fIfBMKirNHtEpdlDqsxTBoBOYoxRumtA2Z4lyvYMy/MZ+kEBQJPnJ5TvX6Z8/zKFQV3luSMqzhxuloHQdTwAZ8gYT+muAeV6z1Omm0kfL8ZvBF7E8xPK9S1Tro8yALQTJn2cCX478LJOKgNhXeXZoyrNHFKZMgBEgjGeMl0DyvYuUaZnSJ7HsI7Tw28KTpvnJZTrW6pc31LZMGjsMzB3RJXCNIcVAueQl0gpne9TtruxD4/xfNeR0IYoADgrxvOfKwOSVKsUVC1Mq1KYUqU4raBWcZwQ6Bx+Mq10rk/pfL9S+T4l03nXkdABKABoiWQ6r2Q6r/zACklSvVpqlIHCtKrFKdWrZccJgfaRSGWUyvUrnW9M+pyVD4uBAoBFkUhllUhlle9fLkkKamVVjq8QFKZVr3ICIuC4RCr33GSfzvfJT2ZcR0IMUABwTvjJzEmbDIJ6pbE60CwFtUrBcULg3Emm888t56fzffITadeREEMUADjhJ9LK9S5RrneJJMmGgWrl+RO3SuM+DOqOkwJnz/MTSma6lEx3Ne6bN3baQxRQABAJxvOVyvW+6NKjQa18cjEoz6tWLUqcqRBRYoySqdxJk3wy08VSPiKNAoBI85MZ+cmMMt1Dz/2ZtaHqlYJq5YJq5blmMSgoqHPkARafn0grmck3J/luJTN5JdJ5LqaDtkMBQNsxxmsOvN2Slj7352FQe26VoF4pql4rKaiWVa+VZcPAXWC0HeP5SiQz8lMZJZJZJdInPt1zuVx0CgoAOobnJ5t7Ufe/6O/CoKZ6taygVmrelxVUS6rXGl+zr0G8eH5CfjLTnOSzja9TGfnJrBKpDJM8YoECgFjw/KRS2aSU7T7l34dBXUGtsVoQVEuNr59XGMKgdo4TYyE8P3nShO43J/pEc5MS58gHKACApMYnQs9vLPGeig0DpT1WCaLuvPPXqzdMsJc9cBrYawU4DcbzlUznXMfAK0imc0z+wGmiAAAAEEMUAAAAYogCAABADFEAAACIIQoAAAAxRAEAACCGKAAAAMQQBQAAgBiiAAAAEEMUAAAAYogCAABADFEAAACIIQoAAAAxRAEAACCGKAAAAMQQBQAAgBiiAAAAEEMUAAAAYijhOgCAk/m+L8/zFIbhgh7na/fcI2PMgh7DWrug75ckz/Pk+/6CHwdAa1EAgAjKZbOaLxQW9BgLLRCtkstmXUcAcApsAgAiKJ/LuY7QMp30XIBOQgEAIqinu9t1hJbppOcCdBIKABBBq1etch2hZTrpuQCdhAIARNDakZEF78AXBcYYrR0ZcR0DwClQAIAIyqTTWrFsmesYC7Zi2TJl0mnXMQCcAgUAiKhrrrjCdYQF64TnAHQqCgAQUatWrNDIihWuY5y1kRUrtKqN8wOdjgIARNj1GzbI89rvbep5nq7fsMF1DAAvo/1GFiBGhgYG9IbrrnMd44y94brrNDQw4DoGgJdBAQAi7jWXXKLXXHKJ6xinrd3yAnFFAQDawBuuu06vWrfOdYxX9Kp169pyxQKII64FALQBz/P0lje9SQP9/dr24IOu45zS69avZ69/oI1QAIA2cs0VV2hoYEDf3rZNM7OzruNIknp7evSG171OazjjH9BWKABAm1mzapVGVqzQo088oQe+/32VymUnObKZjK597Wt12cUXt+WRCkDcUQCANuR5ni6/5BJd+qpX6dl9+7Rj1y7t3LNn0ctANpPR2pERXbBmjVatWCHf9xf15wFYPBQAoI35vq81IyNaMzIia62KpZKKxaIKpZLK5bKstQt6fGOMMpmM8tmscrmcctlsR1yjAAAFAOgYxhjlcznlczkNuw4DIPLYcAcAQAxRAAAAiCEKAAAAMUQBAAAghigAAADEEAUAAIAYogAAABBDFAAAAGKIAgAAQAxRAAAAiCEKAAAAMUQBAAAghigAAADEEAUAAIAYogAAABBDFAAAAGKIAgAAQAxRAAAAiCEKAAAAMUQBAAAghigAAADEEAUAAIAYogAAABBDFAAAAGKIAgAAQAxRAAAAiCEKAAAAMUQBAAAghigAAADEEAUAAIAYogAAABBDFAAAAGKIAgAAQAxRAAAAiCEKAAAAMUQBAAAghigAAADEEAUAAIAYogAAABBDFAAAAGKIAgAAQAxRAAAAiCEKAAAAMUQBAAAghigAAADEEAUAAIAYogAAABBDFAAAAGKIAgAAQAxRAAAAiCEKAAAAMUQBAAAghigAAADEEAUAAIAYogAAABBDFAAAAGKIAgAAQAxRAAAAiCEKAAAAMUQBAAAghigAAADEEAUAAIAYogAAABBDFAAAAGKIAgAAQAxRAAAAiCEKAAAAMUQBAAAghigAAADEEAUAAIAYogAAABBDFAAAAGKIAgAAQAxRAAAAiCEKAAAAMUQBAAAghigAAADEEAUAAIAYogAAABBDFAAAAGKIAgAAQAxRAAAAiCEKAAAAMUQBAAAghigAAADEEAUAAIAYogAAABBDFAAAAGKIAgAAQAxRAAAAiCEKAAAAMUQBAAAghigAAADEUMJ1AACtV65UVC6XZa1d0OMYY5TJZJRJp1uUDEBUUACANjdfKGjXnj16Zs8eHZuaUrFYVBCGLf0Zvucpl8tpoL9f54+MaM3IiLry+Zb+DADnFgUAaFMHDh3Stgcf1L6DBxf9ZwVhqLn5ec3Nz2v3s89K992nFUuX6nXr12vZkiWL/vMBtB4FAGgzs3Nzuu+BB/T0zp1Oc+w7eFD/8C//onVr1+r6a69VT3e30zwAzgwFAGgje/bu1de/8Q1VqlXXUZ7z9M6denbfPv3Um9+skZUrXccBcJo4CgBoEw898oi+8u//HqnJ/7hKtaqv/Pu/66FHHnEdBcBpogAAbeCHjz+urdu3L3iv/sVkrdXW7dv1w8cfdx0FwGmgAAARt3f/fn3n/vtdxzht37n/fu3dv991DACvgAIARFihWNTX7rlHYYsP61tMYRjqa/fco0Kx6DoKgJdBAQAibPv3v69ypeI6xhkrVyra/v3vu44B4GVQAICIOjY9rceffNJ1jLP2+JNP6tj0tOsYAF4CBQCIqAcfeijSO/29EmutHnzoIdcxALwECgAQQfV6XTt373YdY8F27t6ter3uOgaAU6AAABG0Z98+1Tpg4qzV69qzb5/rGABOgQIARNAzHfDp/7hOei5AJ6EAABE0PTPjOkLLdNJzAToJBQCIoGIHHUPfSc8F6CQUACCCCqWS6wgt00nPBegkXA0QiJggCFqy5/zrr7tOK5YtW9Bj7DtwYMGnIa7X6wqCQL7vL+hxALQWBQDoUD3d3RoeHFzQY8zNz7coDYCoYRMAAAAxRAEAACCGKAAAAMQQBQAAgBiiAAAAEEMUAAAAYogCAABADFEAAACIIQoAAAAxRAEAACCGKAAAAMQQBQAAgBiiAAAAEEMUAAAAYogCAABADFEAAACIIQoAAAAxRAEAACCGKAAAAMQQBQAAgBiiAAAAEEMUAAAAYogCAABADFEAAACIIQoAAAAxRAEAACCGKAAAAMQQBQAAgBiiAAAAEEMUAAAAYogCAABADFEAAACIIQoAAAAxRAEAACCGKAAAAMQQBQAAgBiiAAAAEEMUAAAAYogCAABADFEAAACIIQoAAAAxRAEAACCGKAAAAMQQBQAAgBiiAAAAEEMUAAAAYogCAABADFEAAACIIQoAAAAxRAEAACCGEq4DADiZ53kyxshau6DH2fbd7+rhRx9d0GOUyuUFfb8kGWPkeXzWAKKGAgBEjDFG2UxGxVJpQY9zbGqqRYkWJpvJyBjjOgaAF6CWAxGUz+VcR2iZTnouQCehAAAR1EmTZic9F6CTUACACFq5fLnrCC3TSc8F6CQUACCCzl+zxnWElumk5wJ0EgoAEEG93d0aGhhwHWPBhgYG1Nvd7ToGgFOgAAARdcVll7mOsGCd8ByATkUBACLq1RdeqIH+ftcxztpAf79efeGFrmMAeAkUACCijDG6fv161zHO2vXr13P8PxBhFAAgwtaMjOjSiy92HeOMXXrxxVozMuI6BoCXQQEAIu5NGzdq+dKlrmOctuVLl+pNGze6jgHgFVAAgIjzPE9vvfFGDfT1uY7yigb6+vTWG2/k3P9AG+BdCrSBbCajn3/HO7Q2wsvqa0dG9PPveIeymYzrKABOAwUAaBOpZFJv27RJ1151lfwIfcL2PU/XXnWV3rZpk1LJpOs4AE4TVwME2ogxRhuuvloXX3SRtj34oJ565hmneS48/3y9bv16TvYDtCEKANCGeru79VNvfrOuvuIK/XjHDu3cvVtTMzPn5Gf39/Zq7erVuuiCCzQ8OHhOfiaA1qMAREvgOgDay/DgoIYHB3X9tddqemZGk1NTmi8UNF8oqFQuS9Yu7AcYo2wmo658Xl35vAb7+9XX29ua8IgjxrgIoQBEy7OuA6B99fX2Mjkj6na5DoATorMnETQ+Njot6ajrHACwCKbHx0aPuA6BEygA0fOU6wAAsAiedB0AJ6MARM83XQcAgEXwDdcBcDIKQPT8pdhRBkBnCdQY2xAhFICIGR8bfVbSl13nAIAW+nJzbEOEUACi6eOSFnj8FgBEglVjTEPEUAAiaHxsdJukP3adAwBa4I+bYxoihgIQXR+S9IDrEACwAA+oMZYhgigAETU+NlqT9E5Js66zAMBZmJX0zuZYhgiiAETY+NjoM5LeKmnOdRYAOANzkt7aHMMQURSAiBsfG71P0iZJ5+ZKLwCwMDOSNjXHLkQYBaANjI+Nbpd0o6Qp11kA4GVMSbqxOWYh4igAbWJ8bPS7kkYl/ch1FgA4hR9JGm2OVWgDFIA2Mj42+rikayR91nUWAHiez0q6pjlGoU1wOeA2Mz42WpT0K5s2b71X0p9LyjuOBCC+CpLeOz42yoeSNsQKQJtqvuGuFhcPAuDGNyVdzeTfvlgBaGPjY6NPSrph0+atvyTpY5KWOY4EoPMdkPQ742Ojn3cdBAvDCkAHaL4RL5b0CUl1x3EAdKa6GmPMxUz+nYEVgA4xPjY6K+m3N23eeoekD0r6OfH6Ali4uqR/kPTR8bHRR12HQeswQXSY5hv0nZs2b/1dSb8t6dckdblNBaANzUu6Q9KfjI+N7nYdBq1HAehQzTfsf920eevvSfotSf+32EcAwCs7IOn/k/RX42Oj067DYPFQADpc8w38B5s2b/1/Jd0k6f2SLnWbCkAEPSbp45LuGh8brboOg8VHAYiJ5hv605s2b/2MpJ+W9DuSbnAaCkAU3KvGUURfGx8bta7D4NyhAMRM8w3+VUlf3bR569VqFAF2GATi5fiOfR8bHxv9nuswcINBP8aab/x3btq89RZJPyvp5yW9WfxeAJ2oLukbkr4o6UvjY6OTjvPAMQZ6qDkQfErSpzZt3jqgRhn4OUk/ISnpMhuABalJukeNT/tfGh8bPeY4DyKEAoCTNAeIOyTdsWnz1n5JP6PGysCNogwA7aAm6W41Pul/eXxslMuI45QoAHhJzYHj02rsPNgn6R1qlIFNklIuswE4SVXSuBqT/j9z+B5OBwUAp6U5oHxW0mc3bd7aq5PLQNplNiCmKjp50p9xnAdthgKAM9YcaD4n6XObNm/NSnqdpDdKeoOk6yRlHMYDOlVZ0v2Svi3pW5K2jY+NltxGQjujAGBBmgPQN5o3bdq8NS1pvRqF4I2SNkrKOwsItK+CpAk1JvtvSXpwfGy04jYSOgkFAC3VHKC2Nm8f3bR5a0LS1TqxQjAqqdddQiCyZtR43xz/hP+98bFRru6JRUMBwKJqDmDbm7c/2rR5qyfpSjXKwBslvV7SoLuEgDOTkr6jxmT/bUkPj4+Nhm4jIU4oADinmgPc95u3T2zavNWocW2CDZIub95eI0oBOsukpEck/bB52y7pMU69C5coAHCqOQA+2rw9Z9Pmrct1ciG4XNLF4vBDRFtV0hNqTPLPTfjjY6P7naYCToECgEhqDpj7JX39+J9t2rw1KelVenExWOkiI2Jvr14w0Ut6cnxstOY0FXCaKABoG82B9fhqweeP/3nzjIXHy8DxYvAqSf0OYqLzTEl6UidP9I9whj20OwoA2l5zIP528/acTZu39kha3bytecH9aknnncuciKzDknY3b7tecL97fGx01lkyYBFRANCxmgP3I83bi2zavDUnaUSnLgdrJC2TZBY/KRaRlXRAz5vQdfIkv2d8bLToKBvgFAUAsdUc+J9o3l5k0+atKTUKwvFSsO7h3XM/m0543emkl8skvWw25SXzad9PJbxzFxyq1kMVKkFQqoa1ci0sVWphsVIP5yR9SdLTOjHZ7xkfG606DQtElLGWo1CAhfrf40/1JTyz1vfM6oRvRhKeWZ7wvaXJhBlO+WYgmfD60gmvp1kcMrmUn8ylvdgXh2o9VLESBsVqUCvXwnJzIp+t1cPpamCP1er2SD0ID9ZDu78e2D1BaHfXQ7vz3Zsu5GI3wAJRAACHmsXhgmZxWJnwzcqEZwaNMWnPKH383jMm5RmljGeSnlHKMybpGSU8zyT9xn3CMybhe/I9Y3zfM77nyfM98/ybSXjG+J4xCd+YhNfYulEPreqBtUFobT1s3AehDY/fwlBhEDb+OAjV+GehrQdW9TC0tdCqHlpbC62qtvHf1dDaamhVsdZWjt/XQztZD+zeemD3NifyHUzkgDv/P8rCzH9KqQYXAAAAAElFTkSuQmCC;" parent="1" vertex="1">
                    <mxGeometry x="734" y="279" width="202" height="202" as="geometry"/>
                </mxCell>
                <mxCell id="19" value="" style="shape=image;verticalLabelPosition=bottom;labelBackgroundColor=default;verticalAlign=top;aspect=fixed;imageAspect=0;image=data:image/png,iVBORw0KGgoAAAANSUhEUgAAAgAAAAIACAYAAAD0eNT6AAAABHNCSVQICAgIfAhkiAAAAAlwSFlzAAAOxAAADsQBlSsOGwAAABl0RVh0U29mdHdhcmUAd3d3Lmlua3NjYXBlLm9yZ5vuPBoAAB0zSURBVHic7d17tKVnXdjx37P3PnPmkEyQwUkyJ5mZRLnEDqxVNUlVDCJLFhcTETDXtZrSavGyFNqyBFsFs1q7LGiXYFGq0mpxESGJiBnCBHQ1oPVGE2BVgoUkY+Z2zgwjtzCZS87Z79M/TBowZ7Jnzj5nP/t9n89nrfyTzD7vb+edmfe7n/eyU8CEHHnwyNbl3vK/y5FfHhEXRESv9EwwBYYRcTDl9IeDPPjFLRdtWSw9EHVIpQegDof2H3puk5s/iojzSs8CU+xQyun7tu7Yem/pQeg+n8BYd/fee++GJje/Hw7+MMr5OfLv57vzTOlB6D4BwLrbfPbmH4iIZ5aeA1ohxbMXz1u8qvQYdJ8AYN01qfknpWeANslN/o7SM9B9AoB1l1I6p/QM0Capl55aega6TwAAQIUEAABUSAAAQIUEAABUSAAAQIUEAABUSAAAQIUEAABUSAAAQIUEAABUSAAAQIUEAABUSAAAQIUEAABUSAAAQIUEAABUSAAAQIUEAABUSAAAQIUEAABUSAAAQIUEAABUSAAAQIUEAABUSACw/nIMS48AreLPDBMgAJiEg6UHgFbJsb/0CHSfAGDdDdNwV0Tk0nNASzQp0u2lh6D7BADrbtu2bf8ncryr9BzQEr+xdcfWe0sPQfcJACbiS0e/9JMR8RthJQBOpYmId279/NbXlR6EOqTSA1CXxb2LO3PkH4heXBQ5dkTE8yNirvRcUMBnIscnIsVXI8e+FGmXT/5MkgCgqAMHDjw9NemXU6RXl54FJmR/r+m9+vyLzv+fpQehbgKAqbCwb+GdEfFjpeeAdZXj8zETl83Pz+8rPQq4BoCpMNg4+OmIOFJ6Dlhnb3LwZ1oIAKbCueeeezRy/GHpOSrz5Yg4WXqIijQblze+r/QQ8JhB6QHgMTny/clZqbXURMRfp5z+JEe+N/XT55bz8udmZ2e/cu655x597Bflu/PMgfMObEopbe8P+8+KFM9uUnN5yun5EXFOufE7Jsffbf7mzV8pPQY8RgAwNVJKj5SeoQOWcsofjhzvSYP0x/Pz83836gXp0rQUEV989J9PPfbvc86DwwcOf/uwGb4qpXRDRFywfmNXIIXf30wVAQDdcCin/Cv9k/3fOf8Z539+LX5gSmk5Iv4qIv4q5/xvF/cvfl9EvD4iXrQWPx8oSwBAux1KkX7hxPDEf7v44otPrNdGUkrDiPhwRHx4cf/i5TnnmyLipeu1PWD9CQBopyZSvKdJzb++8MILvzDJDW/dtvXjEfGyg3sPXpVS+tWIuGiS2wfWhrsAoH32pJS+c37b/I2TPvh/rQt2XLArBrEzUvxmqRmA1RMA0C4fWMpLlz76Kby4+fn5Y/Pb5n80Urwq/v62QqAlBAC0RErpLVu3bX3ljh07vlR6ln9oftv8+1NO3x0RB0rPApweAQDTL6dIP71129afSSlN7bcpbt2x9d40TFdEjs+WngUYTQDA9Hv91u1bf7n0EKdj68VbH1xOyy+MiAdLzwI8OQEA0+0X5rfP/0rpIc7E9u3bF4Zp+KKIOFx6FuDUBABMqRz5lq3btr659ByrsW3btvsj4uqIWC49C7AyAQDT6YG5pbnXTPM5/1Hmt8//aUT8fOk5gJUJAJg+y5Hj2i58cczWbVv/U0T8cek5gCcSADB93j6/Y/6e0kOshZRSM0zDH4+IdXtMMbA6AgCmy+LGpY3/ofQQa2nbtm3355zfWnoO4OsJAJgmKd7chaX/fyjNpLdEjjX5lkJgbQgAmB4HvvTQl95deoj1MD8/fywiWnU7I3SdAIBpkeOXd+7c+UjpMdbL7COzvx6+LwCmhgCA6XDiZHPyf5QeYj09/ZlPfygifq/0HMDfEwAwBXLk2y+++OLOfzpues3vlp4B+HsCAKbDe0oPMAkXXHDBX0bEA6XnAAQATIPlDXMb7io9xCQ8+mTDj5SeAxAAUF6Kj2/ZsuWrpceYlJRTFbED004AQHl/UnqASUpL6WOlZwAEAEyDT5ceYJLOf8b5n4+II6XngNoJACgtx2dLj1BAje8ZpooAgMJODk/eX3qGSUuR7is9A9ROAEBZw4suuqhzz/4fJUf+YukZoHYCAMo6+uitcVVJKVVz1wNMKwEAZR0tPUAJOWcBAIUJACgpx0zpEYrIsaH0CFA7AQAlpdhUeoQian3fMEUEAJQ1l3MelB5i0lJOAgAKEwBQ2OLi4nzpGSYtp3xh6RmgdgIASluOS0qPUMCzSw8AtRMATI2U0jmlZyghp1zVwTDn3I+Ibyo9RwFnlx4AvpYAYGrknL+19AwlpEiXlZ5hkg4ePPjciNhYeo4CvuHw3sM1hg9TSgAwFfbv3/+MiHhp6TmKyPG9pUeYpF7Te2HpGUoZpuFPlZ4BHiMAKG7v3r1P6+f+eyOqvTf8wgMHDjyr9BATk6LaAIiIn1rYv/DK0kNAhACgoIWFhacc3Hfw+pk0c3dEfHvpeUpKw/SK0jNMwhcf+OJTI1cdAP3IccvC/oW3P7rqBcWk0gNQjyNHjmxaOrb0k9GLK1NOF+XI50VEv/RcU+Le+e3zzyk9xHo7uP/gD6ec3lV6jqmR46uR4kikOJSbfPvM3MyvnXvuuVU+HprJEwBMxMKehR0xiD+KiGeWnmVq5bh0fsf8PaXHWE8L+xY+FhHPLz3HFPtcDOJF8/Pz+0oPQvc5BcC6yzn3YhDvDwf/J5fi35QeYT0t7Fu4NBz8R3lWLMdtOWd/N7Pu/CZj3R3ae+ilEfFtpedogWs7fl7450oP0BKXHTpw6MWlh6D7BADrLvfzd5eeoSX6/dzv5EFy4cGFb4uIHyg9R1vknK8oPQPdJwCYhM2lB2iRGw8+ePC7Sg+xlnLOvZTSO8I1R6cvxdNLj0D3CQCYLin10n/t0jcELhxY+Oc55e8sPQfw9QQATJ/nLuxb6MSpgIWFhe0pp7eWngN4IgEAUyil9KaDew++qPQc48h355m0lN4bTgHBVBIAMJ16KaV3L+xZ2FF6kNVaPHfx7Zb+YXoJAJhe56dB+uPDew6fV3qQM/XoKYwfLz0HcGoCAKZYjvyM4WB4+xcf+OJTS89yuhb2LvxoRPz70nMAT04AwPS7/MTMiT87cODAhaUHGWVh78LrIsU7wy1/MPUEALTDzl7T+5PFvYv/qPQgK8l355nFfYv/JVK8LRz8oRUEALTHxTnluxf2Lryu9CBf6+DBg9sWz128K0f+ydKzAKdPAEC7zEWKty3sW3jPofsPnVtykJxzWti78E/TMH0qIp5XchbgzAkAaKcbmg3NZxf3Lf5Ezrk/6Y0f2nfoOYv7F++KFO8O9/lDKwkAaK9vyJF/bXH/4n0Lexded999982u9wYP7Tv0nIX9C+9uovlURHzPem8PWD+ded44VOziSPG2s2bPev3CvoXfGabh727btu2+tfrh+/fvn+vl3g+mSDc20bw4sov8oAsEAHTHtoh4Uz/337Swb+HjEfGRXtO763g+/ucXX3zxiTP5Qfv3739mv+m/MKf8wpTTSyLinHWZGChGAEA3XR4Rlze95udmY3ZpYd/C36ZIn82R74+IL0SOoxFxPCJSjvwNKaVzIuKCiLgkIp4VOZ4WKSL5sA+dJQCg+2Yi4lk58rP+/7/5muO6gzzUyUWAAFAhAQAAFRIAAFAhAQAAFRIAAFAhAQAAFRIAAFAhAQAAFRIAAFAhAQAAFRIAAFAhAQAAFRIAAFAhAQAAFRIAAFAhAQAAFRIAAFAhAQAAFRIAAFAhAQAAFRIAAFAhAQAAFRIAAFAhAQAAFRIAAFChQekB6L7jDz98+XCpKT0GtEZ/pnd56RnoPgHAumuGsbFpBACcrjTsbSw9A93nFAAAVEgAAECFBAAAVEgAAECFBAAAVEgAAECFBAAAVEgAAECFBAAAVEgAAECFBAAAVEgAAECFBAAAVEgAAECFBAAAVEgAAECFUukBaLerr756c9M0P5hS+pac8zkr/Zpv2vFN//iss846b9KzQVs9/PDDh/fs3fOplf5bSumhiPjMhg0bPnDzzTd/acKj0SECgFW7+uqrb8g5/3pEPLX0LFChL0fEj992223vLT0I7SQAWJUf+qEfujIi/jCcRoKSmoi48rbbbttdehDax1/erEbKOb8t/P6B0noR8fbwYY5V8Bc4Z+xVr3rVc1NK31x6DiAiIp75ile8YmfpIWgfAcBqXFh6AOBxvV5ve+kZaB8BwBnr9XqD0jMAj/NnktUQAABQIQEAABUSAABQIQEAABUSAABQIQEAABUSAABQIQEAABUSAABQIQEAABUSAABQIQEAABUSAABQIQEAABUSAABQIQEAABUSAABQIQEAABUSAABQIQEAABUSAABQIQEAABUSAABQIQEAABUSAABQIQEAABUSAABQIQEAABUSAABQIQEAABUSAABQIQEAABUSAABQIQEAABUSAABQIQEAABUSAABQIQEAABUSAABQIQEAABUSAABQIQEAABUSAABQIQEAABUSAABQIQEAABUSAABQIQEAABUSAABQIQEAABUSAABQIQEAABUSAABQIQEAABUSAABQIQEAABUSAABQIQEAABUSAABQIQEAABUSAABQIQEAABUSAABQIQEAABUSAABQIQEAABUSAABQIQEAABUSAABQIQEAABUSAABQIQEAABUSAABQIQEAABUSAABQIQEAABUSAABQIQEAABUSAABQIQEAABUSAABQIQEAABUSAABQIQEAABUSAABQIQEAABUSAABQIQEAABUSAABQIQEAABUSAABQIQEAABUSAABQIQEAABUSAABQIQEAABUSAABQIQEAABUSAABQIQEAABUSAABQIQEAABUSAABQIQEAABUSAABQIQEAABUSAABQIQEAABUSAABQIQEAABUSAABQIQEAABUSAABQIQEAABUSAABQIQEAABUSAABQIQEAABUSAABQIQEAABUSAABQIQEAABUSAABQIQEAABUSAABQIQEAABUSAABQIQEAABUSAABQIQHAGRsOhxtKzwB8HX8mOWMCgDOWc35a6RmAxy0tLW0uPQPtIwA4Y8Ph8LzSMwCPa5rGn0nOmADgjOWcNw6Hw9JjABExHA4j5zxbeg7aRwCwKsvLy6VHACJiaWmp9Ai0lABgVZaXl6NpmtJjQNWapgmrcayWAGDVTp48GTnn0mNAtU6cOFF6BFpMALBqTdPEI488UnoMqNKJEycEOGMZlB6AdnvsVMDGjRsjpVR6HOi8pmni5MmTTsExNgHA2JqmiePHj8dgMIiZmRkhAOsg5xzLy8tW3VgzAoA1kXOOpaWlWFpain6/H71eL3o9Z5hgHI8t8Q+HQxf7seYEAGvOX1YA089HNACokAAAgAoJAACokAAAgAoJAACokAAAgAoJAM5YztnXj8EU8WeS1RAAnLHBYLCn9AzA41JK95WegfYRAJyxlNInS88AfJ1PlB6A9vHQdlblyiuvPDYcDudKzwG16/V6x+64446zSs9B+1gBYLX+rPQAQES/3//T0jPQTgKAVdmwYcONvV7P95FCQSmlZnZ29odLz0E7CQBW5f3vf/9iSum/l54Datbr9X7z1ltvPVh6DtrJNQCM5aqrrvrE8vLyt5aeA2rT7/fv+eAHP3hp6TloLysAjGXXrl2XDgaD3aXngJoMBoO/vPTSS7+j9By0mxUA1sSVV175hpzzTU3TuDMA1kmv1zve7/ffdPvtt//n0rPQflYAWBMf/OAH33rZZZeds2HDhp/p9/uf7vV6x1NKLhKEMaSUml6vd2wwGPx1v99/42WXXXaOgz9rxQoAnfBLb/2lvceOH9s+6e1u3Ljxq2984xvPmfR2H/OOd7zjR77whS/8VoltP+1pT/vh1772tcUuBH3LW97y0IkTJzZNertzc3P73/CGN0z89xqsNSsAAFAhAQAAFRIAAFAhAQAAFRIAAFAhAQAAFRIAAFAhAQAAFRIAAFAhAQAAFRIAAFAhAQAAFRIAAFAhAQAAFRIAAFAhAQAAFRIAAFChQekBYC1s3rz5M5tj8/ZJbzf10oOT3ubX2rRp04NzG+eKbLs/6O8tsuFHbdmy5cHc5OdOersppc9MepuwHgQAnXDWU876cqTJbzdHPjr5rT5udnb26OyG2SLbLv3e5+bmjqYSOz3iyyU2CmvNKQAAqJAAAIAKCQAAqJAAAIAKCQAAqJAAAIAKCQAAqJAAAIAKCQAAqJAAAIAKCQAAqJAAAIAKCQAAqJAAAIAKCQAAqJAAAIAKCQAAqJAAAIAKCQAAqJAAAIAKCQAAqJAAAIAKCQAAqJAAAIAKCQAAqJAAAIAKCQAAqJAAAIAKCQAAqJAAAIAKCQAAqJAAoBtSnCix2V70jpfY7tcotv2cc9H3nnIqss+j4P9zWEsCgE5IOf1Nie3myJ8psd3HzM3N7YmIRwps+sTy8vIDBbb7uF6U2uf3ltgurDUBQCc0qfm9iImvAjSR4rcnvM2v8/KXv/yrkePWSW83R37fjTfe+PCkt/t1M+T82xGRJ7zZ4/1+//cmvE1YFwKATrj++uv3R45/FRM8IKRI//G66677xKS2dypNNK+PiL+d4Cb39Pv9n57g9lZ0/fXX350i/eIEN5kjx2uvueaagxPcJqwbAUBnXHfDdb+RI78qIvas53ZSpMUc+Ueuvf7aN6/ndk7XDTfccLjX731XRNwaEcN13NQwcrz3kaVHvvOaa645so7bOW3XXn/tz6ZIr4mIQ+u8qQcixSuuu+G6d63zdmBiUukBYK3lnNP73ve+S1JKF0REHDlyZPMnP/nJ9632511yySX/Yvv27fsf/dlHer3ep6+55pr1PNCu2s033/yNgxhckvt5Y0TExz72sZ87efLk96zmZ5111lm7nve85/1qREQaphODpcHfvPKfvfILaznvWrnlllv6TdM8J6W0JSLi/vvv/5Y9e/b86mp/3hVXXHHl3NzcyYiInPPBa6+99v+mlCZ9ugHWlQCg81784hdv7fV6C6t9fUrp2R/60Ic+t5YzTcrLXvayW3LOV6/y5e/cvXv3T6zpQBPy0pe+9Dsi4i9W+/rjx4/PffSjHy11lwFMhFMAdF7TNEJ3Fdr8iTfnbJ/DCAIARuj1eg6ElZmbm2vtPofTJQDovNnZWQfBVWiaprUHwX6/b5/DCAIARlhaWmrtgTBc57MqZ599dpv3OZwWAUDnDYdDB8FVaPM1AK77gNEEAABUSADQeeOuALT5IsCUkk/Cq7Bnz57W7nM4XQIAOJXWHgTd/QCjCQA6b9y7ANq8AuBAuDqbNm1q7T6H0yUAgBW1+SJA4QOjCQAYwW2A9dmyZUub9zmcFgFA57kNcHVyzq09CHoQEIwmAGAE1wDUZ+fOna3d53C6BACd56Ewq9bag6DwgdEEAHSY5wAApyIA6LxxVwDafAqgVuOuANx00032OZ0nAIAVtfk2QGA0AUDnzczMjPVpsN/vt/lA6BTA6rR5n8NpEQDAipqmae1B0G2AMJoAoPPGvQbg5MmTrT0QhhUA4BQEALCiNl8DMGb0tfZ9w5kQADBCm68BcBsgcCoCgM7zIKBVa234jHkbYGvfN5wJAQAjtHkFwBPxgFMRAHTeuLcB1qrN1wBYAYDRBAAAVEgA0HluAwR4IgEArCjn3NrwGfNBQK1933AmBACdV/OXAbkIEDgVAQCcSq3h09r3DWdCANB5464AtPk2QA8CAk5FAAArchsgdJsAgBEGg0GbDwhWAIAVCQA6z4OAVqfNXwfc6/WsAMAIAgAAKiQA6LxxLwI8ceJEmz8RWv0AViQAgBW5CBC6TQDQeW4DBHgiAQCcSmvDxwoAjCYA6LzBYDDWp+A23wboUcDAqQgAYEVt/jIgKwAwmgCg88b9FHzs2LE2HxCsAAArEgDAitp8F4CvA4bRBACM4BoAoIsEAJ037m2AFas1fFr7vuFMCAAAqJAAoPPGXQZv8ykADwICTkUAACtq80WATgHAaAKAzhvzivCYmZlp8wHBCgCwIgEAdE6v17MCACMIADpv3GsAjh492uYDwqrfe9M0bX7fwAgCAOgc1wDAaAKAzhv3OQBtvgZgnLsA2nwRIDCaAAA6xwoAjCYAAKBCAoDOGwwG1Z4C8EkYOBUBAHSR8IERBACdN+5tgA899FCbDwirfu855za/b2AEAQB0jgcBwWgCgM4b9zbADRs2tPaAMM7qh9sAodsEANA5Ln6E0QQAnTfuNQCzs7OtPSCM+XXArX3fwGgCAOgcKwAwmgCg88b9OmCALhIAMMLGjRvb/InQRYDAigQA0DluA4TRBACdN+5FgEeOHGnzAWHV771pmja/b2AEAQB0josAYTQBQOeNuwIwNzfX2gPCOLcBugYAuk0AAJ1jBQBGEwB03ri3AZ599tmtPSA4EAKnIgCALhI+MIIAoPPG/TKgPXv2tPmA4OuAgRUJAKBzPAcARhMAdN64dwEAdJEAgBE2bdrU5k+EbgMEViQAgM5x9wOMJgDovHFPAWzZsqXNBwQHQmBFAgDoHCsAMJoAoPPGfRDQzp0723xAcA0AsCIBAHSO2wBhNAFA5417DcBNN93U5gOCrwMGViQAgM5xDQCMJgDoPA8CAngiAQCjtfYTYUrJRYDAigQAnTfuXQC0j1MAMJoAgA4b50BoBQC6TQDAk3MQbCcrADCCAKDzmqap+RSA2wCBFQkAeHIOgi3kQUAwmgCg8yq/DdA1AMCKBAA8OQfBFnLxI4wmAOi8ylcAAFYkAKDbnAsHViQA6LwxHwTkINhC46z65Jztc6ogAKDbnAsHViQA6DyPha2P2wBhNAEA3eZBQMCKBACdZwWgPvY5jCYAoMN8HTBwKgIAnpyDYDtZAYARBACdN+YFYa3miXjAqQgAeHIOgi3kGgAYTQDQeR4FDPBEAgC6zW2AwIoEAJ1nObg+HgQEowkA6DYXAQIrEgB0nhWA+rj7AUYTANBt4gdYkQCg83wdcH18HTCMJgCg2yyFAysSAPDkHARbyF0AMJoAoPM8CAjgiQQAdJsHAQErEgB0ntsA62Ofw2gCADospeQiQGBFAoDOc0FYlexzGEEAQId5Ih5wKgKAznM+uD72OYwmAKDb3AUArEgA0Hk+DdbHdR8wmgCAbvMQJGBFAgA4ldZ+Evb0RxhNAFADy8GcNnc/UAsBAN3mNkBgRQKAznNBWH3GOQWQc7bPqYIAgG6zAgCsSADQeW4DrI9VHxhNAEC3eRAQsCIBQOdZAaiPfQ6jCQDoNtcAACsSAHSe88FVss9hBAEAABUSANBtTgEAKxIAdJ4Lwupjn8NoAoDOyzkvjfHycV47DVY9f9M0rX3vKaWa9zmcFgFA5/X7/UNjvHxhzQYp4/BqX5hSau17zzmvep+nlBbXchaYVgKAznvKU57yyYg4tsqX//lazlLAauc/PhwOP7Wmk0zQzMzMn8cql/Jzzm3f53BaBACdd+uttx6PiD9YxUtz0zQ3r/U8k5Rzfk+s7kD4Bx/5yEceXut5JmXXrl37Ukr/axUvfWQwGNy65gPBFBIA1OLnI+JMD2i3fPjDH/74egwzKXfeeef/johbzvBlxyLizeswzkQ1TfPGiBieyWtSSm/ftWvXvnUaCaaKAKAKu3fvfiAiXh2nf0D4dES8Zt0GmqzXRMRfn+avHeacX/3o/69Wu/POO/8ipfT60/31Oee7Dh8+/LPrORNMEwFANXbv3n1bzvn7I2LUBWIfmJ2dvWL37t0PTWKu9bZ79+6HlpaWroiID4z4pYdzzt9/5513dmYJ/EMf+tDbU0o3RsRXnuSX5Zzzu06cOPGye+65xx0AVGOce2WhlV7wghecvXHjxn/Z6/VekXN+dkQ8NaW0kHP+016v9zt33HHHXaVnXC8veclLXpBSenVK6fk55/mI+EpK6bMR8YFjx4795kc/+tGjpWdcD1ddddU3Li0t/Viv17sq5/yMiJiLiP0ppbtSSr91xx133FN6Rpi0/wfVVE5nm6dLAgAAAABJRU5ErkJggg==;" parent="1" vertex="1">
                    <mxGeometry x="1083.5" y="285" width="203" height="203" as="geometry"/>
                </mxCell>
                <mxCell id="20" value="" style="shape=image;verticalLabelPosition=bottom;labelBackgroundColor=default;verticalAlign=top;aspect=fixed;imageAspect=0;image=data:image/png,iVBORw0KGgoAAAANSUhEUgAAAgAAAAIACAYAAAD0eNT6AAAABHNCSVQICAgIfAhkiAAAAAlwSFlzAAAOxAAADsQBlSsOGwAAABl0RVh0U29mdHdhcmUAd3d3Lmlua3NjYXBlLm9yZ5vuPBoAACAASURBVHic7d19lF11fe/x72+fM2dm8jCSSEAIMQkkJCFAIEJ4qmICqGAtrTVYuah9uOLttdjlQ9F2tTrV3spt1Xttb71L7vVaH9HQ1du1+uCtmIxCZpJJhiSDTDLJECtgwRBIIMnM2edhn9/9I9lhMpmH87D3/u39+71fa7nUZObs71rifD6/797njBIAAGDcuz/6mTVK6Q9oqd2sg9pFWgdzpaY9LaKUEhHxap6niqLUi8rLPe61qe9+54FPP9zs9VR0owMAgEZs7O6ekz+hvhhUqxtrQfWcRr/f81RF5du2ic59+Htf/NRgI99LAQAAIGH33Xdf+4vtr/1mtVx+p9Y61+rrKVGi2vJ7Vb7tXd/7iz/ZV9/3AACAxLzn4933BNXqg7Ug6Iz8xZXSbe2F7zz0l933zPilkV8cAABM6j0f6f77SrX0a3FfJ5fLPzfLa7/+a1/842en+hoKAAAAsev2fuOjtR3VSuUNSV1R5XKlQk698dtf+OzOSf8+qUEAAHDRxo3dBW9RbX9QqSxJ+trtHbNeap9duPL/dH/iuYl/5yU9DAAArti4sbvgXRQYCf9CR6e0dXS8thZ4/3LvJx54zcS/pwAAABCDkyf/YDioVpckfe1CR6cUOk4/Y7imXMh9deLXtPzWAwAAcKbTJ/9qdWnS154Q/qHLrnrzW57b8+NHdoV/wDMAAABE6PTJv5Ka8A8dVdXKiq997o8Oi3ALAACAyLx6zz914S8iMk/n27rD/8IGAACACKT45D9eqRrkl37rzz/yPBsAAABalPKT/3jtea96rwi3AAAAaEmKnvavj5L3nvw3AADQlHFP+y9J+tpNhf8puZxcwdsAAQBowriTf9rX/mep1fReCgAAAA1K4fv8G6PUEQoAAAANyPLJP6SU8ikAAADUaePG7kJuUS0LT/vPQOcpAAAA1CEj7/Ovk/IoAAAAzMCek/9pXj7qVwQAwCbhyb9aydZb/WYwygcBAQAwBQtP/qGjbAAAAJiEpSf/0EE2AAAATGDxyV9ERLTIXjYAAACMY/nJP/QYvwsAAIBTwpN/tVJZkvS1Ewz/IMjJhWwAAAAQZ07+okV6vtn9By/wDAAAwHm23/MfTyn1DRERNgAAAKe5cvI/5dlR78T3RCgAAACH3Xfffe2H22quhL9oUX/2cHd3WYQCAABw1MaN3YUX2oJ9gd0P/J2mRHaPDr/+q+F/pwAAAJzj2slfRHyd07/98MN3BeEfUAAAAE45Gf7zhi1/q98E6mN/2/0He8b/CQUAAOAM19b+IiJayf/8+mc+/uWJf04BAAA4wcG1v4jId5Z6o7832V9QAAAA1nPx5K9ENi3Ojb6/u7u7NsXfAwBgr/B9/i58yE/oVPj/h+7u7uo0XwMAgJ0I/2m/DgAA+xD+M34tAAB2Ifzr+noAAOxB+Nf9PQAA2IHwb+j7AADIPsK/4e8FACDbCP+mvh8AgOwi/Jt+DQAAsonwb+l1AADIHsK/5dcCACBbCP9IXg8AgOwg/CN7TQAAsoHwj/R1AQBIP8I/8tcGACDdCP9YXh8AgPQi/GO7BgAA6UT4x3odAADSh/CP/VoAAKQL4Z/I9QAASA/CP7FrAgCQDoR/otcFAMA8wj/xawMAYBbhnzwKAADAKMLfDAoAAMAYwt8cCgAAwAjC3ywKAAAgcYS/eRQAAECiCP90oAAAABJD+KcHBQAAkAjCP10oAACA2BH+6UMBAADEivBPJwoAACA2hH96UQAAALEg/NONAgAAiBzhn34UAABApAj/bKAAAAAiQ/hnBwUAABAJwj9bKAAAgJYR/tlDAQAAtITwzyYKAACgaYR/dlEAAABNIfyzjQIAAGgY4Z99FAAAQEMIfztQAAAAdSP87UEBAADUhfC3CwUAADAjwt8+FAAAwLQIfztRAAAAU9q4sbvgXRTsD6rVJUlfm/CPFwUAADApwt9uFAAAwFkIf/tRAAAAZyD83UABAACcRvi7gwIAABARwj/xixtGAQAAEP4OogAAgOMIfzdRAADAYYS/uygAAOAowt9tFAAAcBDhDwoAADiG8IcIBQAAnEL4I0QBAABHEP4YjwIAAA4g/DERBQAALEf4YzIUAACwGOGPqVAAAMBShD+m45keAAAQPRfDX7T6HuFfPzYAAFLn0YGBC4Jq22IttflKKvNFRFRVHcp1ekeqx+Y8vX79ihdNz5hmrob/kvyJewj/+lEAABizaWiocN7xsXdrqb2zWtFrakGwIKgFs2u12rQ/m7ycF+S83AnP8w7l8/kdWuUf2nD91f+S1NxpRvijXhQAAIl69NFdC4J88OlqtfrrlWr5/FpNR/JzyPNytba2tp/l2/Nfk9Hjn1+/fr0fxetmCeGPRlAAACSiZ/vj91Qr5c9UKpUlM53wW+V5uVpbe9sTBfF+/+ab1j0a57XSgvBHoygAAGL14+0DnyxVyn9QLpXnm7h+e3v704V84f6bb3jDJhPXTwLhj2ZQAADE4kfbd99WLhe/XS6XF5ieRUSkvb3jp3kvd+f6m6590vQsUSL80SwKAIBI/bB/32slOP79UnHsWq1NT3Mm5Xm6o7Pz/3r+Ne9ev15lPjwIf7SCAgAgMo/1P/7LY8Xiw5VqtcP0LNNpKxSOdnTOuuXma6/abXqWZhH+aBUfBAQgElt6d3zr2PET/5j28BcRqZTL80aPHx/Ysn3gD03P0gzCH1FgAwCgJVprb0tf/7Zi0V9nepaGKSWdnR0P3XLjdXebHqVehD+iQgEA0LSBgYFZL/vVn/i+f7HpWVrR0dm5/dabrrvB9BwzIfwRJQoAgKb07N59TuWEf6BcKqXiKf9WdXZ2Dm64cd1apVTN9CyTIfwRNQoAgIZt3To8t6iPjpRKpfNNzxKlzo6O4Q03Xbc6bSWA8EccKAAAGmJr+IfSVgIIf8SFAgCgbraHfygtJYDwR5woAADqsnXr8Nyx4MhIuVK2OvxDpksA4Y+4UQAAzKinZ2hOxXvlKVfCP2SqBBD+SAIFAMC0XA3/UNIlgPBHUigAAKbkeviHkioBhD+SRAEAMCnC/0xxlwDCH0njdwEAOEtPz9Ccav64Mw/81aPo+yu39PYPaa0j/7lJ+MMENgAAzhCGf6nkv870LGkU9SaA8IcpFAAApxH+9WnvaB++9abrWy4BhD9MogAAEBHCv1GtlgDCH6ZRAACcDP/csZFSuUT4N6DZEkD4Iw14CBBw3ODg4GzCvzklv7Tyh73bG3owkPBHWrABABw2ODg4+4VXxp4i/FtT7yaA8EeaUAAARxH+0ZqpBBD+SBsKAOAgwj8eU5UAwh9pRAEAHEP4x2tiCSD8kVYUAMAhg4ODsw+9MjpSLpcvMD2LzcIScNddf5on/JFWFADAEYR/sjraO/f+73/459nVcmVx0tcm/FGPnOkBAMSP8E9eNaguWHj+ueeMPP3vIqITuy7hj3pRAADL9fX1db7sVw+Uy+ULTc/imlnt7bLogvMkqRJA+KMRFADAYn19fZ1jgXegVCpdZHoWVyVVAgh/NIoCAFiqp6eno6wKI37JJ/wNi7sEEP5oBgUAsFBPT09HkO8k/FMkrhJA+KNZFADAMoR/ekVdAgh/tIK3AQIWIfyz4aVjx+WffrRdtG7qNwmLiLnw1yLfGhte/JsPP3xXkPjFESk2AIAlCP/saHUTQPgjCvw6YMACPT09HdW2zgOEf3a8tmuu/PKbrxelGvsxbHLtvzQ3+luEvz24BQBkXBj+Jd9fZHoWNK6R2wGc/BElNgBAhm0aGipU2zqGCf/sqncTwMkfUWMDAGTUpqGhwvwjrxzwS+XEP2se0ZtuE2Au/OWbo/sXE/6WYgMAZBDhb5+pNgFm3+o3+tuEv73YAAAZs2loqDD/6LH9vl9aYnoWRG/8JoCTP+LE2wCBDPmXkZH2OS8ePUD422tWe7ssPH+BPPvCS9Jm7uT//i9/+UOEv+UoAEBGbBoaKsx58WVO/g644LwFcu6558rPnvtFshc+efJ/H+HvBgoAkAEn1/7H9/u+v8T0LIhXV1eXzO3qkvPmnyOzOzuTKwGc/J1DAQBSbtPQUOGco8f2lzj5Wy8M/1BiJYCTv5MoAECKheFfJvytNzH8Q7GXAE7+zqIAAClF+LtjqvAPxVYCOPk7jQIApBDh746Zwj8UeQng5O88CgCQMpuGhgrzjhwbLpdKS03PgnjVG/6hyEoAJ38IBQBIlTD8S4S/9RoN/1AEJeC7S/Kjv0n4gwIApATh745mwz/UdAk4efJn7Q8RoQAAqUD4u6PV8A81UQI4+eMMFADAsFMf8rOvVCpdbHoWxCuq8A/VXQI4+WMSFADAoDD8fd8n/C0XdfiH6igBnPwxKQoAYAjh7464wj80ZQng5I9pUAAAA74yoNsWnvjpMOFvv7jDPzRJCeDkj2lRAICEfWVAt11c7B8ulQh/2yUV/qGwBDz93KFvnhjm5I/pKdMDAC4h/N2RdPiPp2v6q1evWvYBpZQ2MgAywTM9AOCKrwzotkv87fsIf/uZDH8REeWp39kzfPArWmsOeZgS/3AACQjD3/dLl5ieBfEyHf5n0PK/rlp5yQfZBGAybACAmPVonb/E3/Ek4W+/VIW/iIiSD7AJwFT4hwKIUY/W+aC3f8j3/UtNz4J4pS78x2MTgElQAICYEP7uSHX4hygBmIACAMSgR+t8sHXHkF8qEv6Wy0T4hygBGIdnAICIaa1zhL8bMhX+IjwTgDNQAIAIaa1zW3oJfxdkLvxDlACcwj8AQETC8C/6xRWmZ0G8Mhv+43E7wHlsAIAIaK1zW/oIfxdYEf4ibALABgBo1enwLxL+trMm/MdjE+AsCgDQAsLfHVaGf4gS4CQKANAkrbW3ubf/J77vX2Z6FsTL6vAPUQKcwzMAQBO01t7mvv4nCH/7ORH+IjwT4CD+hwYadDr8i/5q07MgXs6E/3hsApxBAQAacGrt/4TvE/62czL8Q5QAJ1AAgDoR/u5wOvxDlADrUQCAOhD+7iD8x6EEWI0CAMyA8HcH4T8JSoC1eBcAMA2tdW5z746fEP72I/ynoOQDgwcOfsn0GIgeBQCYgtba+2Hv9j2+X+StfpYj/Kentdy3a//BT5meA9HiFgAwiVPhP1jyS5ebngXxIvzrp7V8eO2qZX9teg5EgwIATKC19rb07nii6BdZ+1uO8G9YoLS+46pVy39gehC0jgIAjHPygb+de3x/7ArTsyBehH/TXghq+auuuWzJ86YHQWt4BgA4hfB3B+HfkvNyXvU7m7TOmR4EraEAAPLq2p/wtx/hH4k3L9t/8EOmh0BruAUA5536bP89ftEn/C1H+EfqWFDLr+RWQHaxAYDTCH93EP6R6/K8yp+ZHgLNYwMAZ2mtvS19OwaLxSJv9bMc4R+bmlbe2rUrLh40PQgaxwYATjr5wN+O3YS//Qj/WHlKB/ebHgLNYQMA55z6bP/dvu9faXoWxIvwT0QQ5PSKa5YvP2h6EDSGDQCccvqeP+FvPcI/MblcoO4zPQQaRwGAM06G/45dPPBnP8I/cXf39PTkTQ+BxlAA4IRXw7+4xvQsiBfhb8SCea+7aIPpIdAYCgCsd/JDfvp3E/72I/zN0Up+w/QMaAwFAFbTWqstff07i9zztx7hb5p6m+kJ0BgKAKyltVY923bsLBb9taZnQbwI/1S4YPfeg8tND4H6UQBgpTD8x8aKbzA9C+JF+KdIrnaz6RFQPwoArKO1Vlu2DxD+DiD8U6am1pkeAfXjbRuwitZabdm2Y2eR8Lce4Z9CSrgFkCFsAGCNk2v/nTsIf/sR/qlFAcgQCgCsEIb/2NjYNaZnQbwI/1S7sO/ZZztND4H6UACQeVpr1dO3g/B3AOGfeip/rPoa00OgPhQAZJrWWv1o287+sWKR8Lcc4Z8Nbao21/QMqA8PASLTNvft6POLxWtNz4F4Ef7Z4QkFICvYACCzNvft6PeLxetNz4F4Ef7ZEngeuZIR/A+FTNrc299XHBvjPceWI/yzJyfquOkZUB8KADJnc+/2vmKxeIPpORAvwj+bAilTADKCZwCQKZt7d/QXi5z8bUf4Z1d7EBwzPQPqwwYAmbG5t7+X8Lcf4Z9pL6xevfqE6SFQHwoAMuFk+BdvND0H4kX4Z95TpgdA/bgFgNTbvHX79mKxeJ3pORAvwt8CSkZMj4D6sQFAqm3u7e8t+j7hbznC3w66Jo+bngH1YwOA1Prrb23aXSwWrzI9B+I1l/C3h+c9anoE1E+ZHgCYzO/+6eefOfziS4suX36JXHPZMtPjICac/G2ij1y1YtkCpVTN9CSoDxsApM7v/unnf374xZcWiog8OXJQRIQSYCHC3zbeZsI/W3gGAKly6uS/cPyfPTlyUAb28nCxTQh/+ygt3zU9AxpDAUBqhGv/yf6OEmAPwt9Kx8bmFL5vegg0Jmd6AEDk9Nr/oum+5oUjR6VaE7lwwfykxkLECH9LKXlo3cVL/870GGgMGwAYN9nafypsArKL8LeX8vRfmZ4BjWMDAKOmW/tPhU1A9hD+Vvv+1SuWf8H0EGgc7wKAMeOf9m8U7w7IDsLfclr/hekR0Bw2ADDi1Ml/2nv+M2ETkH6Ev+WU/qerVy7/nOkx0ByeAUDimln7T4VnAtKL8LdeWdW8j5keAs1jA4BE1fO0f6PYBKQP4e8Apf7i6pWXbDI9BprHBgCJaeRp/0axCUgPwt8JTxZnFT5regi0hg0AEhHl2n8qbALMI/xdoEZrXu0t11188fOmJ0FrKACIXRxr/6lQAswh/B2h5YNrVy7/oekx0DoKAGIVxdP+jaIEJI/wd4PS+oGrV/Gef1vw64ARmyTW/tPhVwkng/B3hf72VSuWvVcppU1PgmiwAUAsklz7T4VNQPwIf0do+edg9JX3LFy4MDA9CqJDAUDkTKz9p0IJiA/h7wYt8q+vdOTeedPq1WXTsyBaFABEyvTafzKUgOgR/m7QIv/6SnvuV9cvXeqbngXRowAgMmkM/xAlIDqEvyvUDwh/u1EAEIk0h3+IEtA6wt8V6gcvt3t3Ev52owCgZVkI/xAloHmEvysIf1dQANCSLIV/iBLQOMLfFeoHxdmFX33T4sWEvwMoAGhaFsM/RAmoH+HvipPhf+OiRUXTkyAZFAA0JcvhH6IEzIzwdwXh7yIKABpmQ/iHKAFTI/wdofQjxdnthL+DKABoiE3hH6IEnI3wd4TSjxRnddxJ+LuJAoC62Rj+IUrAqwh/RxD+zqMAoC42h3+IEkD4O4Pwh1AAUIff++wXn3nh8ItWh3/ohSNHpSaeXHDuPNOjJG5uV5d0Ef720/LD4mzCHxQAzGBzb3/va2bPunzk6Z+L1m78FtBDLx2RSq0mCxe81vQoieki/N2g1aNeefQd11566ZjpUWAeBQCT0lqrN7317f3FYvH6zvaCvP7C14lLJeDwkZedKQGs/R2h1aNe+cQda9asGTU9CtKBAoCzaK1VT9+OHcVi8drwzygBdiL8HUH4YxIUAJxBa+1t6e3fXfT9tRP/jhJgF8LfEYQ/pkABwGlaa29z345dvu+vmeprKAF2IPwdodWjhZr/9iuuuILwx1koABCRU+Hf27/H9/0rZ/paSkC2Ef5u0CKPtddKb1+9evUJ07MgnSgAEK2198Pe7YMlv3RFvd9DCcgmwt8NWuSx9qB0B+GP6VAAHKe19rb07Rj0ff/yRr+XEpAthL8bCH/UiwLgMK11bsu2/qFi0b+s2degBGQD4e8Gwh+NoAA46isDuu3ov/Xv84v+pa2+FiUg3Qh/NxD+aBQFwEGbhoYKC08c3FfyS8uiek1KQDoR/s7YSvijURQAx2waGirMP3p8n++XLon6tSkB6UL4O2NrISjdTvijURQAh2waGirMO3J8uFTyL47rGpSAdCD8nUH4o2kUAEecPPkf218qlZbGfS1KgFmEvzMIf7SEAuCATUNDhXlHXzlQ8stLkromJcAMwt8ZhD9aRgGw3MDAwCx9fOxguVRelPS1KQHJIvydsbVTqndcdtllhD9aQgGwWE/P0JzRYGykXC5faGoGSkAyCH9n9HZK9Y6VK1ceNz0Iso8CYKmenqE51fzxA+Vy6QLTs1AC4kX4O6O3U6q3E/6ICgXAQj09Q3OquWMjpRSEf4gSEA/C3xmEPyJHAbDMwMDArNFa8aflcul807NMdLIEnC8jT/+7UyWgqrVcGEMJmNvVJV2Ev/VOfcLf7dzzR9QoABbRWnt7/+3ZoXKplPgDf/VycRPwwktHI98EdBH+ruidxQN/iAkFwCJvfMsdO0pN/Fa/pLlYAqK8HcDa3xms/RErCoAltvTt/EaxOHa76Tnqxe2A5rD2d8ZWnvZH3CgAFtiyfeedxbHRz5meo1EubgJauR3A2t8ZfZz8kQQKQMb17N59TmXU3xbUam2mZ2mGiyWgmdsBrP2d0dcp1bcR/kiCZ3oAtKZWLP+/SrXSaXqOVsybO1ve8eYbxPPc+cdxaOTfZGDfSF1fO5fwd0Uv4Y8ksQHIsB9t3Xlb0S/+oek5ouDiJqCe2wGs/Z3B2h+Jc+fIZaFSrfJtm8Ly5CbgRuc2ATv3Hpj071j7O6OvlNOEPxLHBiCjtvTvvL9U9O80PUfUeHfASTzt74y+Uk7ffv3y5cdMDwL3uHPUsky1XP2E6RniMm/uHOc2AU8e+OnpTQBrf2dsI/xhEhuADOrZvus3/OLYe03PEafO9oIsuuB8GXnGrU3ArDlzZcUlS02PgvhtK+X02wh/mOTOEcsi1Ur5v5ieIQnzu+Y49e6AQkenPHHwGdnx5H7ToyBehD9SgQ1AxvT07D+3FBz7c621Mj1LElx5d0Cho1MKHSffzfnzQ4fF8zxZeN65hqdCDAh/pIYbRyubdBz7dK1WcyL8Q7a/O2B8+Ie2De5lE2AZJfJ4rtz2dsIfaWHnT1SLlSvVd5mewQRbPyxosvAPUQLsoZRsr7apW668cvFR07MAIW4BZMimoaFC/viJB8SR9f9Ett0OmC78Q9wOyD4l8rhXbnvb1auWvmx6FmA8u45TlltwfPQu7dj6fyJbbgfUE/4hNgHZdSr8b+PkjzTK9k9Rx9S0bDQ9QxpkvQQ0Ev4hSkD2EP5Iu2z+BHVUrVq7wvQMaZHVEtBM+IcoAdmhRXYR/ki7bP30dFwtCBaYniFNslYCWgn/ECUg/bTIrvagnfBH6mXjJydERCSoVWebniFtslICogj/ECUgvcLwX7160RHTswAz4V0AGbG5b8/CStn/mOk50ijtv0AoyvAP8e6AVNqp2nO3XXkpJ39kQ7qPTThNqepFpmdIs7T+AqE4wj/EJiA9tMiuQtD+tquX8lY/ZEe6flpiSnlPOOrNIG23A+IM/xAlwDzW/siqdPykxIwCoQDUIy2fGJhE+IcoAUYNqPbcLYQ/sogCkBW6FpgeIStM3w5IMvxDlAADtOwuBO1vZe2PrKIAZETey71oeoYsMXU7wET4hygBCdKyu1Brv5WTP7KMApAVOTlseoSsSboEmAz/ECUgAYQ/LEEByIjqsTlPm54hi5J6JiAN4R+iBMRHiTyeq7Rxzx9WoABkxPr1K15UnlczPUcWxf1MQJrCP0QJiIPaU9KVt/IJf7AFBSBD2nL546ZnyKq4bgekMfxDlIAoqT1lXb71ulWrXjI9CRAVCkCGKE8dMj1DlkV9OyDN4R+iBLROi+zKlfMbCH/YhgKQIfl8207TM2RdVLcDshD+IUpAK9Seiq68hbU/bEQByJCcJw+ZnsEGrd4OyFL4hygBzWDtD7sp0wOgflpr7/s9Wyu1WkBxi8DR46Pyjz/qk1qt/mcrsxj+492w5jJZd/kK02NkAOEP+xEkGaKUqrW1tf3M9By2aPSZgKyHvwibgLpo2V0ICrcQ/rAdBSBj2tryf2t6BpvU+0yADeEfogRMR+0pS4Vf7AMnUAAyRheP/6Xn5fg8gAjN9EyATeEfogRMRg+y9odLKAAZs379er9QaPuJ6TlsM9XtABvDP0QJGE/tKesqa384hQKQQW3K+7DpGWw08XaAzeEfogSIiOjBQFVvI/zhGt4FkFGPPLbt6VKp9HrTc9joyLETsmXgCZFcm+lREuPuuwP0YKBqt16zYgW/bRPOYQOQUYV87n7TM9hq8UUXyt3veKt0tBdMj5IYNzcBhD/cxgYgwx7Zun2k5PvLTM9hk66uLpnb1SUiIoePviJ/v3mr+KWy4amS484mgPAH2ABkWHu+cKfnedr0HLYYH/4iIgvmvUbeecsvsQmwzxOEP0AByLQ3Xb92b3tHxz+YnsMGcyeEf4gSYJ0nAhXcQvgDFIDM80rX3lUoFHh6uQVdXV3SNUn4hygB1iD8gXEoABm3fr2qdhQ63uQpPhyoGRPX/lOhBGTevkqQeyvhD7yKAmCBN12/dm/H7M4/FsUznY2Yau0/FUpANmmRn+icvnnd6qW/MD0LkCYkhkW29O38xtjY6HtNz5EF9Z78J8O7AzJlXyXIbSD8gbNRACyzubd/S7FYXG96jjRrJfxDlID0U6KHy0F+PeEPTI4CYKHNvf17isXiGtNzpNHcGR74awQlINWe1Dm9Ye3y5YdNDwKkFc8AWGjDjevWdnZ2DpqeI21metq/UTwTkE5K9HAlyN1G+APTYwNgKa21t6Vvxy42ASdFsfafCpuA9GDtD9SPAmAxSsBJcYZ/iBJgHuEPNIYCYDnXS0AS4R+iBJijRA9Xa20brrlsyfOmZwGyggLgAFdLQJLhH6IEJI/wB5pDAXCEayXARPiHKAHJIfyB5lEAHOJKCTAZ/iFKQCL2B7X8esIfaA4FwDG2l4A0hH+IEhArwh9oEQXAQbaWgDSFf4gSEAvCH4gAHwTkIKVUbcON69Z2dHRY82FBaQx/ET4sKAaEPxARNgAO01p7m3v7d/m+n+lNQFrDfzw2AZEg/IEIsQFwmFKqdstN12V6E5CF8BdhRwPvJwAADSBJREFUExCB/VqqPO0PRIgNADK7CchK+I/HJqAp+7VUN6xdufK5qGYCQAHAKVkrAVkM/xAloCEHtFTXE/5A9CgAOC0rJSDL4R+iBNSF8AdiRAHAGdJeAmwI/xAlYFqEPxAzCgDOktYSYFP4hygBkyL8gQRQADCptJUAG8M/RAk4A+EPJIQCgCmlpQTYHP4hSoCIEP5AoigAmNbJErBjt+8XrzRx/bldXdJlefiHHC8BI1qqbyb8geTkTA+AdNu7V7UNPjfy0fPPnT9vTmdHotfucij8RURmd3bI6y84T556+jmpBoHpcRLx80OHpb29cOh153bdQPgDyaIAYEobN3YXchfV9lWrlYsPPvOcXHDeuZJUCXBh7T+Z2Z0dsvjC82XkmX93ogR0zZlVOWfu3A2/cvONB0zPAriGAoBJjQ//k3+iJakS4Gr4h2Z3dsjiC+wvAV1zZlVWLl18w3++65cfNz0L4CIKAM5ydviH4i8Brod/yPYSQPgD5lEAcIapwz8UXwkg/M9kawkg/IF0oADgtJnDPxR9CSD8J2dbCSD8gfSgAEBEGgn/UHQlgPCfni0lgPAH0oUCgCbCP9R6CSD865P1EkD4A+lDAXBc8+Efar4EEP6NyWoJIPyBdKIAOKz18A81XgII/+ZkrQQQ/kB6UQAcFV34h+ovAYR/a7JSAgh/IN0oAA6KPvxDM5cAwj8aaS8BhD+QfhQAx8QX/qGpSwDhH620lgDCH8gGCoBD4g//0NklgPCPR9pKAOEPZAcFwBHJhX/o1RJw4fnnEf4xSksJIPyBbKEAOGDjxu6Cd1Ftf1CtLE32ylqePfSSzJ8/T1537vxkL+0Y0yWA8AeyhwJgufDkn3z4ixQ6OqXQ0SlPP39IOgoFSkDMTJUAwh/IJgqAxZJf+78qDP8QJSAZSZcAwh/ILgqApdIU/iFKQDKSKgGEP5BtFAALbdzYXfAWBcNBtZqa8A9RApIRdwkg/IHsowBY5tV7/ukL/xAlIBlxlQDCH7ADBcAiaT75T0QJSEbUJYDwB+xBAbBEFk7+E1ECkhFVCSD8AbtQACyQxgf+6kUJSEarJYDwB+xDAci4LId/iBKQjGZLAOEP2IkCkGE2hH+IEpCMRksA4Q/YiwKQUTaFf4gSkIx6SwDhD9iNApBBNoZ/iBKQjJlKAOEP2I8CkDE2h3+IEpCMqUoA4Q+4gQKQIS6Ef4gSkIyJJYDwB9xBAcgIl8I/9PQvXvi76y5f0SNKrUv84g4JS8ALLx71ly2+6CbCH3BD3vQAmJmL4a9F/q7w/Ny7r1q5rLpn+KciSn8o8SEcsmDea/a/+443bli7cuVzpmcBkAxlegBMz9Xwbz/UdfeDD36wIiKitVaDBw5+SWu5L/Fh3LBfS5XwBxzjmR4AUyP8T1JK6TWXXvL7SslfJz6Q5ZToYcIfcBMbgJQi/Cf5ezYBkVKih6u1tg3XXLbkedOzAEgeG4AUIvwnxyYgUvvKQX494Q+4iwKQMoT/9CgBUdCDgQretG710l+YngSAORSAFHE1/JfmRt9TT/iHKAGtUHsCVbv1mhUrXjQ9CQCzKAAp4XL4d3d3Vxv9XkpAE7TsLusy4Q9ARCgAqUD4N4cSUD8tsqsslduuW7XqJdOzAEgH3gVgGOEfwevx7oBpaZFd7UH7batXLzpiehYA6UEBMIjwj/B1KQGTUiKPtwXtbyH8AUzELQBDCP9ocTtgUn1+Tm8g/AFMhgJgAOEfD0rAGXpLOX379cuXHzM9CIB04hZAwgj/BK7H7YDeTqnevnLlyuOmBwGQXmwAEkT4J8PxTcBWwh9APSgACSH8k+ViCdAijxWCEuEPoC7cAkgA4W+OM7cDtHq0UPPfvnr16hOmRwGQDRSAmBH+5llfApR+pDir484bFy0qmh4FQHZQAGJE+KeHvSVA/aA4u/CrhD+ARvEMQEwI/3Sx8pkALf/8crvHyR9AUygAMSD800kppa9asezDStQnTc/SOvWtYPTlX1u/dKlvehIA2cQtgIgR/tmwZ/jgb2nRD4pI3vQsjVIif7VmxSUfUUrVTM8CILsoABEi/LPl8eGn3uaJfENEFpiepU5jWvSH165c/lXTgwDIPgpARAj/bBp86qnzalX1TRH9FtOzTEeJHg4k9+43rLz4CdOzALADzwBEgPDPrjXLlr0wsuLiO0TkfhFJ43voK6LVf6uemP0Gwh9AlNgAtIjwt8fA3p9dkPeq/1WL3CPp+P/Gj3Na3Xflqkt+YnoQAPZJww+5zCL87fT43pHrPU/9oYi8Q8z8f6TP0/qBNauW/6OBawNwBAWgSYS//fYMjazWOfmYiHqXiMyN+XIVEfm+1vqLa1ct/3HM1wIACkAzCH+3DAw8N8ubO/YrotXdSmSDiJ4d0UtXtcg2pfR3y7Xq965bteqliF4XAGZEAWgQ4e+2gYGBttzsc64V0W8WpdYp0Su0qItFpDDDt2oReUa0jGilHxelftxeLT3GL+8BYAoFoAGEPyazSevciv37X1/V+fk5JV2i1WwRKdRycszT6ljNC068ks//lE/tA5AmFIA6Ef4AAJtQAOpA+AMAbEMBmAHhDwCwEQVgGoQ/AMBWFIApEP4AAJtRACZB+AMAbEcBmIDwBwC4gAIwDuEPAHAFBeAUwh8A4BIKgBD+iV8cAGCc8wWA8AcAuMjpAkD4AwBc5WwBIPwBAC5zsgAQ/gAA1zlXAAh/AAAcKwCEPwAAJzlTAAh/AABe5UQBIPwBADiT9QWA8AcA4GxWFwDCHwCAyVlbAAh/AACmZmUBIPwBAJiedQWA8AcAYGZWFQDCHwCA+lhTAAh/AADqZ0UBIPwBAGhM5gsA4Q8AQOMyXQAIfwAAmpPZArBxY3fBWxQMB5Xq0qSvTfgDALIukwWA8AcAoDWe6QEa5WL4i6iHCX8AQJQytQFwNfyX5E7cTfgDAKKUmQJA+AMAEJ1MFADCHwCAaKW+ABD+AABEL9UFgPAHACAeqS0AhD8AAPFJZQEg/AEAiFfqCgDhDwBA/FJVAAh/AACSkZoCQPgDAJCcVBQAwh8AgGQZLwCEPwAAyTNaAAh/AADMMFYACH8AAMwxUgAIfwAAzEq8ABD+AACYl2gBIPwBAEiHxAoA4Q8AQHokUgAIfwAA0iX2AkD4AwCQPrEWAMIfAIB0iq0AEP4AAKRXLAWA8AcAIN0iLwCEPwAA6RdpASD8AQDIhsgKAOEPAEB2RFIACH8AALKl5QJA+AMAkD0tFQDCHwCAbGq6ABD+AABkV1MFgPAHACDbGi4AhD8AANnXUAEg/AEAsEPdBYDwBwDAHnUVAMIfAAC7zFgACH8AAOwzbQEg/AEAsNOUBYDwBwDAXrnJ/rC7uzv/UkftgFvhL99dkhu9h/AHALjAm+wP9x2v7QwqlSUJz2L45D/6XsIfAOCKs24BvOcj3X9fqZZ+LelBTJ78R4cX3/Pww3cFJi4OAIAJZ2wA3vPx7nsIfwAA7He6AGzc2F0IqtUHkx7A9Nqf8AcAuCgf/oe2xfKtcilINInNnvxff0834Q8AcJQnInLvvd2zKpXyO5O8MCd/AADMyYuIHJ8rX9JlPelbAuPAyR8AALM8EZGgFrwrqQty8gcAwDz1vk9+5uqx0eKuJC7G0/4AAKSDV67WPpDEhTj5AwCQHnldq90c90W45w8AQLp4UtML47wAJ38AANInX6vV5sT14pz8AQBIJ0/reN7+x8kfAID0yovoyF/UVPhrrR8a27/4vZz8AQCYnqfO/oWALTEV/kpk09L82Ps4+QMAMLO8KFUTrb2Zv3RmJk/+o/uXcPIHAKBOnvKUH8ULcfIHACA78p5Sh2sii1t5EU7+AABki6ck19LHAHPyBwAgezyVVw81+80mT/4nhhff3d3dXU384gAAWMD7zl9++mGVy5Ub/UZO/gAAZFdeRCTn5bdVg6Du3wnAPX8AALLNExFp89p+r96PA+DkDwBA9p2O/Xd/9FNDQaVy2XRfbPYT/pbw8b4AAETk9AcA1ZS3UU3zucCc/AEAsMfpXwS0d9uPDq95463La0Fw5cQvMnzP/54vf/lDhD8AABE64yOAH/pC9z25XP6Z8X/GyR8AAPvkJ/7BLK/9l0Zr+kBNBx087Q8AgJ0mffb/fZ/8zNVBoB5p6+h4bdIDich3RocXc/IHACBGk/4WwG888KndbbPbLxcte5IcRov8jyW5UZ72BwAgZtO++//eTzzwmnIh91UR+fWY5/C11h//+p/d/zcxXwcAAMgMBSD0/j/5/L1K9AMiMi/yCbTskrz+nb/tvj/RbQMAAC6b9BbARF//7McfVNXKClHqb0TEj+jaT4uSe5fkR68l/AEASFadHwD8qv/4R//9/KpX+U+i5G4RubTBbw+0SI8n8vW2Q13fe/DBD1YavT4AAGhdwwVgvPf/yQOrPcmt11rWiadWiNZLRGT2qX8dFZFjIvopUd5erfVWr1rp+drn/uhwBHMDAIAW/H82EDccSoEALAAAAABJRU5ErkJggg==;" parent="1" vertex="1">
                    <mxGeometry x="1470" y="299.5" width="161" height="161" as="geometry"/>
                </mxCell>
                <mxCell id="21" value="" style="shape=image;verticalLabelPosition=bottom;labelBackgroundColor=default;verticalAlign=top;aspect=fixed;imageAspect=0;image=data:image/png,iVBORw0KGgoAAAANSUhEUgAAAgAAAAIACAYAAAD0eNT6AAAACXBIWXMAAA7DAAAOwwHHb6hkAAAAGXRFWHRTb2Z0d2FyZQB3d3cuaW5rc2NhcGUub3Jnm+48GgAAIABJREFUeJzt3XmcZHV97//399TWVdX7NswwMAM47JuICRGNIjCDJCYBxsl1iThAQsy9MYk3jxvzyOPm5+PmkRtjYhZiEkmAEROjGRaTXEWYQcUdXNlE9hkGmK337lq6tvP9/dEzytLVVd19Tp1TdV7Px6MfPqTOqfrUVHed9/muEgAAAAAAAAAAAAAAAAAAAAAAAAAAAAAACAsTdAFoHzffefc5Ts1cK2MulrTBSFbSXsnsdl1z0zXbLnks4BJX5Ya77kr1FmNXW2uuknSWpCFZjVujh4zs7Vl35l+3bdtWDrrO1dixc/dZ1rHXGeliSRuP/Oe9ku6tOfam667c8mhgxXlg586dyUKs79esq62SOVtGw5ImJD0smTvmMpVPfeDyy0tB17kan7z97jOsNdfJmEuNtMEufI8/Z6V7Y3JuvnrrJQ8HXSPaAwEADe3Y8ZUu9ZRvkMy1kpw6h9Ws9PeVicHfv/768yutrM8LO267+00yzr9I2lD/KPuMjPOe7Vdden/LCvPIDXfdleotxP7aylyvJT5DSZ/IutMfbMegc8tt97zBGPOvkk5Y4rA9rmvee+22S7/Rqrq8snPnzmTB6f+Yld4vKVbnMFfSP81lqr/b7kEH/iMAYEkLF//qLsm+qclTdpUnBn+xnULAJ+/Y9UvW6jZJySYOn5fjXLH9ykvu9rsur9xw112p7kLii0b2oqZOsPpy1k6/rZ1CwK233fM215jPSUo1cXjZWnvVNe/Y8nm/6/LKjTd+L5EcnPyCjC5t6gSjr86lq1sIAVhKvTsBYEFP5ePLuPhL0ubU0NSf+1aPx269896TZfVpNXfxl6Quue5nd3zuixt9LMtTPYX43zR98Zcko7cWnP6P+ViSp265494TXWM+q+Yu/pKUNMb5t5t23v0aP+vyUnJw4mNNX/wlyerNPcX43/pYEjoAAQB13Xr77tdK2r78M+1v37zzi6d4XpAPXNf9Myt1L/O0PtWcP/WlII/t2Ln7LEm/sdzzrPT+T95+9xk+lOQ5I/dPJfUu7yzbEzfOn/lSkMc+defu02TMby37RKtfv/nOu8/xoSR0CAIA6rJyf10r+B2xUtyY2DU+lOSpT915z6ikX17Z2eYdn/705wc8LcgH1rHXaWV/5zEpdq3X9Xjtpp13DxqrrSs51xpdccvOu0a8rslr1Zq9VvX7/JfixFznOq/rQecgAKAuK3PJik9eTnNlQKquuVgr+2KVpES1K/kWD8vxhZFW/hnKhv4zjDuxi6wUX+HpMcVib/W0IB8Ys/LP0MqE/jNEcAgAWJS11kg6bqXnmyVH04eDsTp+Nee7qzy/FYxWXqOVCf1n6Mpd1Wew2t+BFlnF52A3HPlbBl6FAIBF/dM/fT8uqWsVT9HjVS2+cZRd1fl2uf3OrbeC8Q0vPTv0n6GxZhXvT5IxoX+P0qp+T7uO/C0Dr0IAAAAggggAAABEEAEAAIAIIgAAABBBBAAAACKIAAAAQAQRAAAAiCACAAAAEUQAAAAggggAAABEEAEAAIAIIgAAABBBBAAAACKIAAAAQAQRAAAAiCACAAAAEUQAAAAggggAAABEEAEAAIAIIgAAABBBBAAAACKIAAAAQAQRAAAAiCACAAAAEUQAAAAggggAAABEEAEAAIAIIgAAABBBBAAAACKIAAAAQAQRAAAAiCACAAAAEUQAAAAggggAAABEEAEAAIAIIgAAABBBBAAAACKIAAAAQAQRAAAAiCACAAAAEUQAAAAggggAAABEEAEAAIAIIgAAABBBBAAAACKIAAAAQAQRAAAAiCACAAAAEUQAAAAggggAAABEEAEAAIAIIgAAABBBBAAAACKIAAAAQAQRAAAAiCACAAAAEUQAAAAggggAAABEkAm6gHb3YWudzHe1Wdb9Fcn8rKRjJKWCrssLjlsZWOm5VpJ1ElMeluM9W0s71u1a8elOrGjlzHtZktdW8xlKkhvyz9DI7TJuLb3S813jzMvEil7W5DXjVgZW80Ud9s+wGVYyT02Z3lhMpYTRnkRMn+mTPvLhi0w16NraGQFgFf7iAftWyf6Vlc4JuhYA6FSulR6fevnlKhVXMZPQH/31W8xfB1RW2yMArNBH77e/I2P/SnSjAICvFgsA0sIFrDtpv/p3FztvaXVNnYCL1wr8+QP2D2Ts34h/PwAIjJU0VzZv/sCX7ReCrqUdcQFbpr94wL7VyP7foOsAACyYLevy37vP/l7QdbQbAsAyfNhax5X9S/HvBgDhYaV8Wf/3w1+x8aBLaSdcyJYh811tNtJrg64DAPBy5Zq6ZqQPBV1HOyEALIt7RdAVAAAWV6npnUHX0E4IAMthzc8EXQIAYHEV154QdA3thACwPOuCLgAAsLiqazpiEbZWIQAsT0/QBQAAFme5pi0L/1gAAEQQAQAAgAgiAAAAEEEEAAAAIogAAABABBEAAACIIAIAAAARRAAAACCCCAAAAEQQAQAAgAgiAAAAEEEEAAAAIogAAABABBEAAACIIAIAAAARRAAAACCCCAAAAEQQAQAAgAgiAAAAEEEEAAAAIogAAABABBEAAACIIAIAAAARRAAAACCCCAAAAEQQAQAAgAgiAAAAEEEEAAAAIogAAABABBEAAACIoHjQBcBfpbHnNP3kd1WcPqxapSLXWknS+nVrAq4seDNzOc3N5Vd8fl9Pt3p6sh5WhHZgrdXU9KwKxXnfXiOVSmposF+OMb69xqJicZlkVrG+tYqNnign3dfa10dLEQA6lK1WdOj+zyk3vl9HrvkAVsmt1TQ+Oa1yperba2QzafX398ioxRd/SapVZYszqhZnVD34hOLHnKzE8edKhsbiTkQA6EC2WtELX75V8/lc0KUAHaNSrWpiYlrVWs2X5zdG6unOqren25fnXz6r6sEn5BZmlDr1zYSADsQn2oEO3f85Lv6Ah+bnSxobn/Lx4m800NcXoov/T7mzB1V57sGgy4APCAAdpjT2nHLj+4MuA+gY+UJRE1PTcl3Xl+d3HKPhoQFlMl2+PL8XqoeflC3OBl0GPEYA6DDTT36HPn/AA9ZKs3M5TU3P+vY3FY/HNDo8pFQy4c8LeMVaVceeCboKeIwxAB2mOD0edAlA2+vokf4r5M4cDLoEeIwA0GGqlXLQJQBtreNH+q+QW1r5lFmEEwGgw1ja/4EVi95I/2WoVYKuAB4jAACAFkb6T07P+jbYb2Gkf2+oB/shWggAACIvXyhqesa/wX6OYzQ0OBD+wX6IFAIAgMiyVprL5TS7iiWhG4nHYxoeHFA8HvPtNYCVIAAAiCTXWk1OzWh+vuTba6SSSQ0Ntc9If0QLAQBA5NRcVxMTU/6P9O/rFdd+hBUBAECkMNIfWEAAABAZjPQHfooAACASGOkPvBwBAEBHY6Q/sDgCAICOxUh/oL5lB4Bbb9/9Wiv3163MJZKOkxSZzq5x68oaNlAE2kHNdTU+Oa1K2b8lbLOZLvX39THSP0R23L4rSuuhz0t6XtbslrX/vH3b5geXc3LTAWDHjq90qafycVd2u8RVEEB4MdIfEdElaZOM3SSj37zl9t035TKVD3zg8subavJq6kK+cPGv7pJ0bbPnAEAQSqWyxsanfLz4Gw309XHxR9g4RvY3eorxe264665UUyc09bQ95Rsk+6ZVlQYAPssXihqfnPJtmp/jGI0M9TPND+Fl9eaeQvxvmjm0YQC4+c67z5HMtauvCgD8Ya00M5vT1LR/0/zi8bhGR4aUTCb9eQHAO7+xY+fusxod1DAAxFznumaOA4CgzMzNaS7n3zS/VCqp0ZFBxWNM80NbcOTYhjfuDQcButLFDHAFEFalUln5fMG352ekP9rUJY0OaBgAHOm4KM2pANBepudyvjT7M9If7cxIGxod0zAAWBkrEQEAhE+1WvVlnr8xRoMDfUp3NTWYGggdKzWcBtNE377d50UxAOC1ctn77Xwdx9HIUD8Xf7S7htfuhgHAyOzyphYA8FbN4+l+CyP9Bxnpj7ZnZO9pdEzDAOC65iY10ZQAAC3nYed/KslIf3QGI1WtdHOj4xoGgGu2XfKYlf7em7IAIHyymS4NDw2woQ86gpVu2L51y+ONjmtqfn9lYvD3JTVsTgCAdmKM1NuT1UA/0/zQIay9uzwx+KFmDm0qAFx//fmV8sTg243MXxvJ+1E3ABCAbCbDND90ioq1+thzw8m3X3/9+U1NjWl6N8AjT/jBm3d+8UZjYtcYo81a2A54aIXFAkCgjMNtP9rahJX2yWp3LObcfPWVlzy5nJObDgBHXbvtbU9I+oMjP5Hy0QfcgqR00HUAABa3fetmUl2TWOMfAIAIIgAAABBBBAAAACKIAAAAQAQRAAAAiCACAAAAEUQAAAAggggAAABEEAEAAIAIIgAAABBBBAAAACKIAAAAQAQRAAAAiCACAAAAEUQAAAAggggAAABEEAEAAIAIIgAAK2Rlgy4BAFaMAACs0NxcQdPTs3JrbtClAMCyxYMuAGhXVla5QlH54ry6sxn19GTlGBN0WQDQFFoAgFWy1moul9ehQ+PKFYoSXQMA2gABAPBIzXU1PT2rQ4cnVCzOy5IDAIQYAQCRZeRPc32lWtPE1IzGJqZULpd9eQ0AWC3GACCyYrGYr89fLpd1eLysVCqp/t4eJRL8ufklnbR6zTEVrRus6KSRea3JFtWbLCnhuKq6RjXXUb4c01guqb2TKX3rqR5N5BNBlw0Eim8kRFY87m8AOKpUKuvw+IQy6bR6erKK+xw8oqI3XdHrN0zptHVzOn64Ksd5aZ9LQnJjUrWiZKUsVebVE5eOyeR11qj09tMOquwmtGemV9987kS9MNMd2PsAgkIAQGQlEwnFYzFVazXfX8taKV8oqlCYVzbTpZ7ebsUceuBW4rjBvC48eUybRme15KQLx5GSqYUf60rzJalUXPgwrJQ0FZ3SP6FT+ieUt2ndt+cEff+FNS17H0DQCACILGOkbDatmdlcy17z6NTBwnxJPd1ZdWfTMkwdbMpQd0mXnfWiThpdwedlHCmdlrq6pGJRKhdfNlkja4r6hRMf01tP2KP/+PGpemq837vCgZAiACDSerozmp8vq9TiwXqu62pmdk65XF49vd3qznRJPg1KbHfGWP38yYf1xpMPK+ascmqFMVImI6VSUj4n1aovezhtinrn6Q/qufywPv3g6arWaKVB5+K3GxFnNDjYF9gAvaNTBw8entT8fCmQGsKsp6ui977hWb351EOrv/i/VCwm9fZKXalFHrTakB3T/3zD/VrbV/DuNYGQIQAg8mKOo9HhQXV3Z5buU/ZRtVrV+OS0xsYnVSpXgikiZIZ75nXtzz+tDcN5n17BSOluKZNd9NGUKem6c7+r09dM+PT6QLAIAIAkY4z6e3u0ZnRY3Zl0YHWUyhWNjU9qbGJKlWq18Qkdam1/Udvf+Ix60y0IQ6kuKduz6EPGurrq1Ed07rrD/tcBtBgBAHiJeCym/v5erRkeVCqZDKyOUqmsQ4cnNDE1o1oLZimEyWC2rHddsEfpZAvfdzJZtyXAWKu3b/qxNo1Mta4eoAUIAMAiEsmERoYHNDI0EOgCPsXivA4emtD0zJxct/N3HexK1PSeNzyrbCqA1o9Ul9S1eOuPsa5+9fRHNJCZb3FRgH8IAMASUqmkRoeHNDTQ17KFg17JyiqXL+jg4QnN5fKyHbvJgNUvvfZ59WcCXD65KyPFFw98jq3pmvMektT5QQzRQAAAGjBGSqe7tGZ0SP19PYEt4LMwdTCnQ4cnVCh23p3oazdM6dS1s8EWYSRlulVvNGjWKejKM59pbU2ATwgAQJOMjLqzGa1ZM6yenqycgKYMVGs1TU7NaGYm1zE7DqaTNV182sGgy1gQi9XtCpCkM4Ze1Ei22MKCAH8QAIBlcoxRX0+3jhkdUjYb3NTBuXxeuXxnzFN/y6kHlQmi37+erq6FpYQXYazV1rN+3OKCAO8RAIAVcmIxDfT1aM3IsNLprkCCwOxsTtU2ny6YTVX12uPDNsLeLNkKMJKcYZEgtD0CALBK8XhMQwN9Gh0aVCrV2qmDCwME27s5+oKTxhWPhXBgXTK1sIdAHb9w8tMtLAbw3ormN33qzntGq6652MiulzFDXhcVVmPWTSz1hYBoSyQTGhkaUKlU1vTsnCqV1tyZz8+XpL7FF7IJO2Oks9aH7e7/CGMW9gyYXzxgrc1MKx5z2S8gZHbcsesjQdfQMtZOWJkX5FbvvWbb5WPLPX1ZAeDWO+892XXdP6u5+hUjOZJ52Y5anc4oUm8XK5RKJbVmZEj5QlGzc3nfF/Kp1mqy1rblroInjuRas9rfSiWTdQOAsTW9YcN+fe3Z9S0uCkuy+oOgS2gds7CFmBOv7bj9nv+QzB9u37r5qWbPbjq6fvKOXb9kXff7kq5cznlAVGUzaR0zOqS+vh45Pk8ddNt0OsBrRgOe9tdILL5kN8BpI8u+6QL8EJPMVZL5/i233fOLzZ7U1LfSzTt3v9Fa7bRS98rrA6LHGKOebEZr1wyrr7fbv7v09rz+a6NvG/14KJGo+9BQqg3qR4TYHmPMnbfs3PXmZo5uGAB27tyZdBx7q6TF9s0E0ARjjHq6s1q7Zlg93dmjDXeRloi7Gu1tgwGMsfo9pXFV1JsKcOVC4NUSxtEnb7jrrobX7IYBoBDre5+kE72oCog6x3HU19utNaODgU0dDIuhbKk93n+DJaA3Dk63qBCgaRu78/Ffa3RQwwBgrbnSm3oAHBWPxzU00KeR4aGWTx0Mi8HuUtAlNMcsHQCO7c21qBBgGYwaXrubGANgz/GiFgCvlkzENTI0oFgsmI2GgpROhHDu/2KcpZspsskQz2JAZBmrhtfuJgKAGfSiGABLadNRfKuQivs7PdI7SweAVKK9V2JEhzJquEZP4wBgNe5JMQDwEsa0SehpME4h1i7vA5FipIZzVBuPATB6yJtyAOCnKu2ygl6DNRZK1RUtqAr4ytrG1+6Gf4GOsXd4Uw4A/FSp2ibjHhoEgHkCAMLI0e2ND2kgU5v5F8k+401FALBgJt8msx/cpccqHM5nWlQI0LSnyuODn250UMMAsG3btrJx9auS2mDFDgDtYjzfJmuLuUvPVnhuqrdFhQBNmXdc9z3XX39+w+kpTXXCvW/blu/Lca6UNLPq0gBAUm4+rnypDZrPq/VH+Vs52j9DCwBCY9pY/fLV2y77TjMHNz0KZ/uVl9ytWO1cGfNpSUx8BbBqe8ezQZfQWLX+191cLS32RkMIVIz0rzHXnPO+d2ze1exJy4rf2694215J7/n0pz//29Wu5Ftcq+Nl1bXcStuWMX8iqf7OIACWZc9Yj844NsQNi64rLbGd876ZgRYWg6ZYfSjoElrGaF6yzymWvO99V1y07DWpV9T+9u53/+KUpM+t5Nx29tEH3P9PBADAMz8+0Ku3ne0o5oR0VcDK0hv9fH3vsS0qBM3a/o7Nfx50De2CtisAgSmW43rqUIh3GS/V368g72Y0lqP/H+2LAAAgUN95ZiToEhZXrUq1+gMAv/XCcS0sBvAeAQBAoPZOZLVvIoSDAYuFug+VbVLf3ruuhcUA3iMAAAjcV358jBouut9K1cqSo//ve+7EFhYD+IMAACBwz01k9fDz/UGXcYSVCvXv/qdrPbp/39oW1gP4gwAAIBR2/Wit5oohWBioWKzb92+No888eEaLCwL8QQAAEAqFUlx3fn+DXDfAroBqRSrVX/X8y3s3aSyfbmFBgH8IAABC47mJrO5+NKDmddeV8nNSnc3/fjy9Vt98joF/6BwEAACh8r09w/raE2ta+6KuK83NSO7iV/8XCsO67eFTW1sT4DMCAIDQue/xNfrSY2vVkpkBrivlZuvu+revMKxbvneW/3UALRaCETcA8GrffGpE+VJMl5/zouJOnXb51apWpFxOsotd/I0emliv//zRa/x5bSBgBAAAofXgvkEdnEnrqvP3aai7/rK8K1Iq1p3uVzNx/ecTp+nRg8PeviYQIgQAAKF2cCatG+/bpAs3jemNm8ZWv3FQrSYVcgtL/S7i0PyAPv3QGcqV2PcLnY0AACD0qjVHX318jR5+vl9vOvmwzj5uWo5ZZrdArbZw118uLTrSf7LSqy88sUl7Jnu9KRoIOQIAgLYxlU/pv354nO57/Bide/ykzj5uSoPZpbbstVKlsrCrX7X8qgu/q5j25Qf15ac36IWZHl9rB8KGAACg7cwWE/raE2v0tSdGtaZvXhuH8jp+OK/R7nkNpAtyapWFC3+lopde9WsmrkItqRdn+/TooRE9dmhATIZCVBEAALQxo0MzaR2aSeuBZxcG7DnGqi9dUm+qot6uknKlpAqVmCbyaVVdLvbAUQQAAB3FtUZThS5NFbok0awP1EMcBgAggmgBQCB60lVtGMzpmP6iju3NaSCVV8YUFbMLU7OsjCo2pkI1qcliRs9ODujhA0PKMzULADxBAEDL9KUrOnfDpE5dO6M1vfOveNSRlF2YqlUpyZTKStmKUrF5DXTP6qTug7p0g1HBzejHEyP68lPHqVjh1xcAVopvUPhubX9RP3/KIZ28Zk6m0dztWEyKZaSujFQpS/PFny7YYq0yJq/XDed13sg+vVgY0n/9+DUaz3X5/yYAoMMQAOCb3nRFm8/cr9PXzaruHqtLSSQXfiplqVhYaB04wlhX69Nj+q3XTeiZ2VHd/ugpKlUY0gIAzSIAwBev3TCpzWceUCpea3xwI0eDwHxBKhZf/ph1dVLPQf3+hZP6rydP0SP7WbsdAJpBAICn4jFXbz/3RZ21fsr7J+/KSPHEoru3xdyyrtj0qDYNrdedj3TO7m09aVcD2YqSjjRdjGu6EFPVg0wFAAQAeCaTqupdF+zVuv7Fd1jzRDwh9fZJc7OS+4orobU6c+B5jV4wp3/6zrly3RbsJe+RmGN1wmhFp6wraeNoVev6qxpOF2WOrmj3kvfqGkfFakKH80k9/GK3vv4ka9cDWD4CADyRSVX1az+3R2v6io0PXi3HkXp6pdzsy8YFHDWanNZvXfAD/cP954U+BBw7WNC5x03qtLXTyqReuctd8siPFt5nuSyV5+W4rrKxkk7oLemE3jn98mkHNVN9QQ8dWquv7TlO7io3ywMQDQQArFoiZvXuC1p08T/KcaTuXmluRotd8Qbjs7ruZx7WP91/TutqWoaTRuf0xk2HtWE439wJsZiUTktdaalSWpgd8ZPwY9UXz+vnj31aF67fq4cOr9PdT56gao1BkQDqIwBglax++bx9Wtvfwov/UY4jdfcsdAfYV88yOCY5qSvOfFqfezQ8YwIGsmVddtaL2rRmbmVPYCQlU1IiJZXnpUJBL51hEbNVnTeyT2ePHNA9z27S919Y40ndADoPtwhYldefMKHT180EV0AsLmWydR8+a/AFnbl2ooUF1fe6jZN6/0VPrvzi/1JGUqpL6utf+Dd4hbgq+oUTH9Ov/8xDSnoxEwNAxyEAYMUGu0u65IwDQZdx5I643hLBVr908uNKOMF1jMdjrq46/zn9wjkvKB7zuA7HWRgUmVp8MaS1XZP64Bvu19qeJrsaAEQGAQArtuXM/UrEVrDAjx8y3ZJZfMBf3Ja19ZwnW1zQgq5ETe/5uT0641ifW0kyWSmTWfShpMq69rzv66ThaX9rANBWCABYkY3DOW+asr3iOFJX/SWBN/Ue0kDmlfsP+CsVd/VrFz6r44dadPedStftDnFsTe864yGdNEQIALCAAIAVecuph4Iu4dVSaS10ji/Cuvrl059uWSlxx+pXL9ijta2cGSEtdAV0pRd9yFhX7zzzYboDAEgiAGAFjukrtu6udjmMkVKpug8fl51QKt6asQCXnfWiNgb1b5TOLCydvAjH1nT1ax9kYCAAAgCW73UbwzGqflF1BsNJC3fAbz7ped9LOGP9tM7bOOn76ywp2y05sUUfSqqs9573aIsLAhA2BAAsizFWp66bDbqM+mKxhZ86zhjxt+sinazpbWfu9/U1mmKMlK0/PXJd16TOOzaE3TgAWoYAgGU5brCgbLIadBlLq9P8LUk9saKvUwIvPWO/MqmQ/PvEE0v+W2w56Sk5hnWDgagiAGBZjhv0caMfr8SXWODSujp73ZgvLzvcXdI5x/mwC+JqZDJ1x0UmVNGWU/a2shoAIbLspYB37Nx9lnXsdUa6WNJGSfXbGTvMuHVlTbQz07EDIRz890rxeosCLThxcNqXJXLfePLheksRBMeJLbQClMuLPnzemv2658kT2UAIHWPH7btCsjhJS+Ql7ZV0b82xN1135ZZlDe5pOgDccNddqd5C7K+t7PWGloPIGu5e/EISKsYs/CyyP4AkDWe8b8XIJqs6c31I59h3pesGgJit6OeOf1Hf3Htsi4sC4IGspDMknRFzzf/YcfuuT2Td6Q9u27atqS/qpi7kN9x1V6q7kPiilXl/s+egM/Wl2yAASEsOBMwmSp6/3FnHTcsxIb3xiMWX/Pc4b+3BFhYDwCcxSf89b/q/uHPnzvqDf16iqYt5TyH+N0b2olWVhraXirtKtGge/aot0VWTcLwfpHfGsSG9+z9qicGAA8k5dbEuANAZjN5acPo/1syhDQPAjp27z5L0G6suCm0v5vVGNn5aojPe6yasrkRN64LYDnk56m6WJMlanbvucOtqAeArK73/k7fffUaj4xp+F1rHXtfMceh8jkLaxL1s3r6PDUN5mbA2/x8Vj9edDSBJp46GeHEnAMsVk2LXNjqo4YXdSJd4Uw/aXalWvx85fOpfkK31dqj+Ma1e739FjOTUH/M71NUGszsALIO9tNERzQSA470pBu2uUnVUqYVtnlsdbv0AULXeBpmhbu8HFfpiiYGAXbE2GdwJoClWZkOjYxp3ASjsbZtopdliU4NLg+fWH9SWr3r7HvoyFU+fzzdO/T/3mGUQINBZ6syDfokm+vat/7tkGieIAAAfdUlEQVSnoG0cmq2/2U6o2PoDFqeKi2+Xu1JdiTa5eDpLtd5YZgIAHcRI+xod08zgvt0e1IIO0RYBoFpdcpzfnql+T18u0TazI5buvulJ0Q0AdAor7Wp0TMMAUHPsTZK4NYAkac/hnqBLaKy6VJO80UMHRj19ucYNbe2h6vHgSACBqVnXubnRQQ0DwJG1hT/hSUloey9Op1Ush3w2QLX+nWzRplQoL3sLjCWVa20yS7ZBUpmbb5PxHQCWZKW/v2bbJY81Oq6pb66sO/1BSV9adVVoe9YaPX6wL+gy6rPuQhdAHU9Ojnj+ksVKyAPRUUsGAKOq2yZBBkBdRvbeysTg7zdzbFN/8du2bStn3enLjfRx0R0QeT94bjDoEuorlZbo/ze67xnvZ7VO5lKeP6cvavX/dCvL3xgUQLjUrHRDaWLo8uuvP7+pqUlN/9Uf2V3otz95+92fWFhhyF4qaaOVuldaLdrTi5MZHZhOa23Ylr+1kkrzdR8+NN+nGR+auSfm2mBgpLTk1MhCtU1CDICfMFJO0l4r7bKuc3Mzzf4vtezY/76tl/1I0geXe14n+OgDbkGSt3PI2tR9j6/ROy/YG3QZL1cuaamN7b/w5CZfXvbF6Tb4lbB2yRaAA7k2GNwJNGH71s2MZm0SnX5YkacO9WrfRDboMn7KSpov1H14f3FAL0z701j14lRGlWrI/5SWGBchSY8e9n5sBIBwC/m3FsLsCw8dq1pYBo7NF+re/Vs52vnI6b69dM01enY85D1h5fozI1wT02MHB1pYDIAwCMm3N9rR2FyXvvqEt3PqV6RalUr1xyN85fmTNOvzFLdHXvB2cSHPVevvV3Cg0C++CoDo4a8eq/LNp0b11KHe4AqwVsrP1R35/3xhUN/Ys973Mp480Bfe9RHK5SU3R/rG3uNaWAyAsCAAYFWsle783nEaD2okfD5Xt+k/V83o1u+f1ZIyqq7Rd54dbslrLdsSrSM5N6Mnxmj+B6KIAIBVK1VjuvWbJ7Y2BFgt3PlXFu/bnrcp/eN3XyfXtu5X/IFnh1UK22DASmXJAYBf3nNiC4sBECYh+7ZCu8qX4vqXb5+ow63aLKiQqzuwLe+m9Xf3/4yKldYubjNfiemrjx/T0tdckpVUrD8zYrraowdfZPQ/EFUEAHhmrhjXLV9/jZ486OOYAGuludmFOf+LOFQc0N9+u/UX/6O+s2coPDsmlopSrc7dvzH690dOa209AEKFAABPlauOPvvABt3zyDpVvd4kp1qRZqcX3e3PyuiBAxt143fP9f51l8F1je783vGq1AJei6RWW/Lu/zsHN+rQXIjWcQDQcgQA+MDogWeHdeN9m7yZIWCtVMgv3PkvMuBvpprVjT94ve556oTVv5YHxua69MWHjw2ugKMzI+o4XO7X3U9sbF09AEKJHUDgm4lcSp+5f6NOGM7pwpMP68SRvJbYqefVrJXmiwvr+y+yk13OTWv30yfpkYPh68d+cN+gBjIVvemUQ61/8fxc3WV/825GN333nBYXBCCMCADw3Z7xbu0Z79Zob0lnrx/XKcdMa6hniU0lq5WFXf0q5Vdd+F052p8f0H17jtezk+FefOcrj48qnazq/BMmWvei+bmFkf+LmLdd+scHzg+0iwRAeBAA0DKHZ1O6+5Fj9Ml741o/VNFJa6s6cbSitf1ljaaLysTKCxf/nzTzG5VtXDPzCT0/3aVvPdOrxw/2aHQ0fHf8izO66+FjNVNM6uLTD/j7UtZKublFx0dIUq6W0T9853War4R0sSIALUcAQCBemEjohYmEvvqSzRUTMatscqFloFR1VKy8+k41Hmu/jb6++dSIcqW4Lj/7BSViy+gCaVbNlfKzdZv9n88P6dYfnNnSNREAhB8BAKFRqRlNFzvzV/KhfQPaP5XRFa/bp2P66q/Mt2yl0sIAyUXGVrgmpvv2naRv7AlwQCKA0OrMb1sghMbmUvrnr75Grz9hQm859ZC6EkuMg2ikVlu48C/a5G+0vziozz58mnKlxMpfA0BHIwAALWTtwp4BD+0b1OtPHNfPnjSubLL+Ur2vUqstzIxYbCEkY3Rovk+ff3yTXpwJ+fbEAAJHAAACUKo6+saTo/rWUyPatGZOZx03pRNHcou3Cri1hZH9pdIiK/sZFW1KT0yM6L5njtdsyd9tjwF0DgIAECDXGj1xsFdPHOyVMVZr++e1rj+vNT3zWtc9o954QSmVZIyVK0cVm1ahktRkMaO907168MU1mq8ysh/A8hEAgJCw1mj/VFr7p47OjFgfaD0AOhvzggAAiCBaAAB0FMdY9WdK6kmV1ZsqK19OqFiOa6LYpTLdJcBPEAAAtDGrY/rmtXEkpw2DeY30lNSfKshxK1K1+qrlpGsmpmItpf1zfXr00LAePTgoGkIRVQQAAG2nL13WuRumdPb6KQ1ky694NLbwkzryfyvln+wtEbM1dTsFndxX0Ml9B/Qrp8T0Qn5QX356g/ZN97T4XQDBIgAAaBtD3SW9cdNhnXXctBzT5LLKieTCj+tKxcLL1lBwbE3HZ8b0vrPHNFXp0V1PvUbPjId7kynAKwQAAKEXj7m6cNOY3rhpTDHHbXzCYhxHynZLXelFV1EcSMzp3af/UIfmB/Tph85gFUV0PDq/AITa2r6ifvOiJ/XmUw6t/OL/UrGY1NMrpTOSXr251JquKf3uz35bZ60bX/1rASFGAAAQWq/dMKlrfv4ZDb6qn98DXemFIGBe/TXoqKYrXvOIfuXMp7x/XSAkCAAAQunCTWN6+7kveHPXX088LvX2LbQKLOLswRe0/fxH/Ht9IEAEAAChc9FpB3Xx6Qda82KOI3X3Ss7iIeC4zLiuOf/h1tQCtBABAECo/MyJ43rTyYdb+6KOI/X0LPzvItZnJrTt7MdbWxPgMwIAgNDYMJzTljNbdOf/Sk5sYZbAq8cFSpJO7T+gCze+2NqaAB8RAACEQiZV1VWv2yfT7Px+P8QTUipd9+G3bnhGI92FFhYE+IcAACAUtpx5QN1d1aDLkNJpKbb4EinG1vSus3/U4oIAfxAAAARu41BeZ62fDrqMI4yUydR9tC+e089t3N/CegB/EAAABO6i0w9ICrDp/5XiCSlRfyXANx+/p4XFAP4gAAAI1AnDOR03GMJ+9a76rQBJlXXhBloB0N4IAAAC9foTJ4IuYXHx+MJPHRcc93wLiwG8RwAAEJh0sqZNa+aCLqO+ZKruQ1mnwIwAtLUV7QZ40867B+NO7CIru15WXV4XFVbjsnFbb5IwgGU7bd2Mv0v9rlYiKSlf9+E3nfCC7nzk5NbVg4Z23LbrD4KuoWWM5mXN8zVbu++6bZdNLvf0ZQWAW+6490Qj90+N1VYrGz9SQHRYK5kovWHAXycO54IuYWmOszAlsLb49MQNvWGZuYCfMPpI0CW0lLGKG6f6ydt33ea49o/eu21L0yNUm+4CuPW2e95mrPtDWf03u8KWAwB4qQ0jIQ8A0pLjALpjRUkhbsFAJFgpbqV31hzzwx133ntZs+c1FQBuue2eN7jGfE5S74orBICX6O6qKpsMwcI/jSwRAIxcHdvHOACERp9c93M77th9QTMHNwwAO3fuTBqjT0mqPxoGAJZpOFsKuoTm1Nkg6KjjB2ZbVAjQlC5Z+287d+5MNjqwYQAoxPp+TTIneVMXACzoy5aDLqE5dbYJPmo0SwsAQueEnBl4d6ODGgYA62qrN/UAwE+l4rWgS2hOg4G/XfE26MZA5BhjG167G48BMDrXk2oA4CUSsTYZPNcgAKQIAAincxod0MQgQDPoRSUA8FKu7YwptbUOeR/oOMONDmhmFkBI1+kE0M7K1aX71kPDLr1JUanCrGiE0nijA5oJAA97UAjgiWqtprHxSZXKlaBLwSoVy20SANylA0C+0nCwNdBytolrdzNdAHd4UQzglVK5ovGJSU1MzahabZOBZHiVyXybXDjt0r9jL8z2tKgQoHmOsQ2v3Q0DQNadulWyz3hTEuANa6VicV6HxsY1PT2rmtsmA8rwExO5rkat6+HQIGTumehrUSFA0/bMpmv/2uighgFg27ZtZWv1XkltsmoHosRaKVco6tChcc3M5uQSBNpGpWZ0eK4N9hKr1u9uqiquXCnRwmKAhsqy7tUfuPzyhtfsppYCvuYdW75lrd0qmRDv24l24Nd4addazeXyOnR4Qrl8QVbtcGuJPWPdQZfQWLX+NL/xeZr/ESqzkq7Y/o7Lvt7MwU1vBnTNO7Z8vubWzpPRbZLoeMWKGJ93U6y5rqZn5nTo0IQKxfn2aGKOsKcPhXx7kWpVsvVblR4bG2lhMUBdNSvttMZ57fatm+9q9qRlzV+5bttlT0vadsvOu0YUi73VWB0vY4aWXWqbstL/FDshrorjOIo5ju999tVaTZNTM0ok8urtziqdboOm5gjaM96t2WJCvemQzuqo1G9FtSam+/etbWExaIrRnwddQstYO2GN9lVKyS9d/66LGk77e6UVXcyu2Xb5mKR/X8m57eyjD7gfEAFg1dJdKeUKxZa8VqVS1cTUjFKFovp6u5VM0F8bJtZKDz8/oDeefDjoUl7NWqlUPwDsL/apWmu6ERUtsv2qzR8KuoZ2wW8vWq67O9NodVXPlUpljY1PanJqRtUl+nTReg88OxzOC2m5tOQiQHc9vqmFxQDeC+FfHTpdPB5XT3frB39ZKxWK8zo0NqHpmTm5NWYMhEG+FNcPngvZiuNW0nz9VqrD5X4dmM20rh7ABwQABKKnO6vubDBfoNZKuXxBBw6Pa3YuL8tIwcB99YlRFUoh6l0rFaU641SscXT7I6e2uCDAewQABMIYqb+vR4MDfYrFgvk1tNZqdi6nA4fHlcsXmTEQoGI5rnsfC8mAulpNmi/UffiRiXUaz6dbWBDgDwIAApVJd+mYNcPq7+2R4wTz6+jWXE3PzOrQ4fGWDU7Eqz24b0A/PhCCVfUKOdVbRiJnM/qPR09qbT2ATwgACJyRUXd3RseMDqmnO+v7WgH1VGs1TU8vBIH5eRa+DML/++F6TeVTwRVQyNdd+Mc1Md3yvXPF1yY6Bb/JCA3HcdTX261jRofVnUm3fKbAUZVqTeOT0xqbmFKlwoyBVpqvxPSv394YzPK6pfmFn0VY4+izj56t6WKA4QTwGAEAoROLOerv79XoyFCgC/iUSmUdHp9g18EWm8qn9Jlvb2ztdsHl0sLd/yKsHP3XU2fo6Yn+1tUDtAABAKGViMc1NNCnkeFBJZPBLODzk10HD09oenZOLiMFW+LATFo7vv4azRRb8LmX5qV8btGHrHF0x5Nn6qH9w/7XAbQYAQChl0omNDo8qKHBfsXjwUwVs7LK5QoaG5tk6+EWGc+ldPPXNmnvuF9rRtiFu/46d/7zSummH5yvxw5GZrVzRAwBAG0j3ZXSMaNDGhroUyzWwubhl6hUq5qcnFHdYeLwVG4+rn/51gm678drVHM9/Lqq1aTZmbp9/nvzI/rLr1+gA3NZ714TCJkQrbwBNCed7lJXV5dy+bzmcgW5Lb4jL5XLmssX1JPl4tAK1hp97ck1enR/vy47a79eM7qKXcmtXVjhr1RcNMMV3LQ+9+NT9Qz9/YgAAgDakjELqwlmM2nN5QrK5QstXdEvnyuqO5MNbKZCFE3mUvq3b5+g9QMFXXjyYZ28Zrb5f3/XPTLKv7To9r55N6Ov7NmoH7y4xtuigRAjAKCtHZ06mM2mNTeXV75FC/lUazVVqhV2FwzAC1MZ/fsDG9WTrurk4YM67dg5bRyp6FXrSLmuVK1I5bJULb/qjr9kE9oz3a9v7Nuo/TOt35sCCBoBAB0hHotpoL9XPd0ZzczlVSwu3rfrpWq1RgAI0Fwxrq881q//fCChroTVSWsrOnawqhOHC1rbXVRvoqxEzFXVdVStdSlfielwLqm9E1365pM9mi7G1dOTVV8PF39EEwEAHSV+ZOpgKZvWzExO5UrFt9eq1VgbICzmK0Y/2pfUj/YlJbFLH9AMZgGgI6WSSY2ODGpkaECJhE85l4kAANoYAQAdLZVKas3IoPr7ewObOggAYUQXACLAqDuTVjadXpg6OJdnRT8AkUcAQGQEPXUQAMKELgBEztGpg90s5AMgwggAiC7D3T+A6CIAAAAQQQQAAAAiiAAAAEAEEQAAAIggAgAAABFEAAAAIIIIAAAARBABAACACCIAAAAQQQQAAAAiiAAAAEAEEQAAAIggAgAAABFEAAAAIIIIAAAARBABAACACCIAAAAQQfHlnvCpO3ef5rruNVbaLJn1kgZ9qCuUxq0ra8hMQMewQRcAr+24fVeUPtVJSc9LZpfk3rJ965bHl3Ny0wFg586dybzp+8uaa39LMrFllwkAIZPLF5RIxJVJdwVdCrASgws/9hwj83s7brvn4+XJof91/fXnV5o5uanb2Z07dyYLTt8XZMxvS+LiD6AjWGs1NT2j2blc0KUAq2KluIz53eTQ5OdvvPF7iWbOaSoAFJz+j1mZS1ZXHgCEj7XS7Fxe09Ozok8AHWBzcmjyL5o5sGEA+OTtd59hpfevviYA8JYxxrPnyhWKGp+ckWsJAWhvRvrvn7pz92mNjmsYAKycXxfN/gBCKBbz9qtpfr6ksfFJ1Wqup88LtJKV4jXXXtfouGa6AGj6BxBK8bj39yaVSlWHxydVrVY9f26gVYy0udExDQOAkTZ4Uw4AeCuZSCgRX/Zs5oZqtZoOj02qVCp5/txAK1jp+EbHMKkdQFvr6cn68ryutRqfmFGhOO/L8wP+ajxApmEAcKXnvSkGALyXSXf5No/f6qfTBBkbiPZi9zU6opkWgN0eVAIAvhno71Mm41MIODpNcGZWlmmCaBNGZlejYxoGgJicmyUxJBZAaBkjDfT1qden7gBJyheKGh+fkuvydYjQq1Ud95ZGBzUMAFdvveRhGf2zNzUBgD+MkXp7ujXQ39tE7+fKlMqVIzMEav68AOCNT1x35ZZHGx3U1CDAuXT1d2T01dXXBAD+ymbSGhro93SRoJeqVms6PD6pUrmp5daBlrIyX8m60x9s5timAsAHLr+8NJeubpHRjaI7AEDIdXWlNDo8qLjHCwUd5bquxiemmCGAMHFlzT/kMpW3bdu2rdzMCU1PoP3A5ZeXJP3mzXfe/Y8x17nOylwq2Q2S2EYLQOgkEnGNDA9ofHJalYr3i/oc3UioWq2qt6fb8+cHmjAvmeeM7G4j55+vfsclDy/n5GWvoHHtlZc9JOm3l3teJ/joA25BUjroOgA0JxaLaXR4UBNTM5qf935Rn6MzBNyaq/7+Hkk+DT5A07Zv3cyH0CQWAoooNjxBVBhjNDTQr2w249tr5ApFjU2wkRDaCwEgomqMYkaELEwT7FF/b49vr1EqHdlIiGmCaBMEgIgqlZoaIwJ0lO7ujIYG+nybIVCpVHX48IQvYw4ArxEAIipXKLK0KSIpne7SyNCAYo4/X38119XYOBsJIfwIABFVrVaVLxSCLgMIRDKZ0MjwgBI+bCcsLYyxGZuYUa5Q9OX5AS8QACJsZnbOl5HRQDuIx+MaGR5UKpnw6RWspqdnNT0zR2sbQokAEGHWShNT08rlChKbnCCCHMfR8NCAb7sJSlIuX2AjIYQSASDirJWmZ+d08PCk5vJ5VapVWW5XECHGGA30t2IjoWmmCSJUlr0QEDpTtVrVzExOM8oFXUrbmJnLaWaOf69OMrRuSlMH++S63t8blcplzRT2yq05KubacwHVTUEXAE/RAgAAR0zsH1DvUE7xhD/T+PIzGbmuo57BvC/PDywHAaDDOD5NbQKiYnqsV12ZktJZfwbIlgpJFee6NLhmxpfn94tfaycgOFwtOkwsTq8OsFq5mayslXoG/LlTr1Zimhrr1fCxk748vx8SCb9mSyAoBIAOk+4fDboEoCPMF1Iq5ro04NOdunWNxl8c1PCxUzJO+AcHdg2sCboEeIwA0GH6T369aKkDvFGtxDQ91qvhY6d8e43xFwfUPzKjWDzMewgY9Z/8+qCLgMcIAB0mNbJB3cPHBl0G0DEW7tQHFprrfQrXU4f6lektKJUO5x4dvaPHKjV8fNBlwGMEgA605ueuUFfWv13PgCgaf3FQg2um5fh0pz432S0n5irbF64luruyPRq94FeCLgM+IAB0IBOLa/3FV6t39Fj5dssCRNDkwX519xWU7PLnTr2Y61J5Pqn+kVlfnn95jHpH12v9xVfLxBhc3In4VDuUicW15sJ3qH/sOU0/+T3NTx9SpVJhlT9glWYnupXpnleit6D8bMbz56+U4pqd6NHQ2ilNHBjw/PmXYoxRIpFQ18Aa9W96vVIjNPt3MgJAh0uNbNCakQ1BlwFgBQaDLgAdjS4AAAAiiAAAAEAEEQAAAIggAgAAABFEAAAAIIIIAAAARBABAACACCIAAAAQQQQAAAAiiAAAAEAEEQAAAIggAgAAABFEAAAAIIIIAAAARBABAACACCIAAAAQQQQAAAAiiAAAAEAEEQAAAIggAgAAABFEAAAAhJprg66gMxEAAAChViUA+IIAAAAItWIl6Ao6EwEAABBqcxUTdAkdiQAAAAitUk3KVYOuojMRAAAA4WSlg3kjMQbAFwQAAEAoHSoa5bn790086AIAAHgpK2m8KE3MB11JZyMAAABCY74qHSpw598KBIBlqLkyYjAqAHjGWqniSvM1aa5sFgb80effEgSAZXh6xiRr/GICQCg5kht0De2EQYDLEHdsKegaAACLizli1MAyEACWIeGYPUHXAABYXDxm+Y5eBgLAMiRi+kzQNQAAFpd0zGeDrqGdEACWoU/6SCqmQtB1AABeLhVTsU/6SNB1tBMCwDJ8+CJT7U7oj5kJAAAhYqRMUn/04YsMkweXgUvZCvzOl+xdM2W9Leg6AABSX0pf+Nu3ml8Muo52QwBYod/5kr1ztqwrmBUIAMEwkrqT9qt/d7HzloBLaUt0AazQ315sruxP64OpuIpB1wIAUZOKq9if1ge5+K8cLQCr9OGv2PiM9KFKTe+suPaEmmtStlPWC7SrfB+mDdbzWs177PT3J3X+e+z09ye1x3tsgrGyMceWEo7Zk4jpM33SR+jzX53OuFDBczfe+L1EcmiyvIqnqGzfujnpWUE+2HHHrv8jq/+94iew+uPt79j8Jx6W5Lkdt+9a1Zf/9q2bQ/0dseO2Xf9bRv9nxU9g9Cfbr9r8xx6W5Lkdt+8qS0qs9PzyxGDy+uvPr3hYEjoEXQAAAEQQAQAAgAgiAAAAEEEEAAAAIogAAABABBEAAACIIAIAAAARRAAAACCCCAAAAEQQAQAAgAgiAAAAEEEEAAAAIogAAABABBEAAACIIAIAAAARRAAAACCCCAAAAEQQAQAAgAgiAAAAEEEEAAAAIogAAABABBEAAACIIAIAAAARRAAAACCCCAAAAEQQAQAAgAgiAAAAEEEEAAAAIogAAABABBEAAACIIAIAAAARRAAAACCCCAAAAEQQAQAAgAgiAAAAEEEEAAAAIogAAABABBEAAACIIAIAAAARRAAAACCCCAAAAEQQAQAAgAgiAAAAEEEEAAAAIogAAABABBEAAACIIAIAAAARRAAAACCCCAAAAEQQAQAAgAgiAAAAEEEEAAAAIogAAABABBEAAACIIAIAAAARRAAAACCCCAAAAEQQAQAAgAgiAGBR119/fkVScRVPMetVLX4xUm5V5xs741Ut/jFzqzg59J+hnFW9P1nXhP89Sqt5j8Ujf8vAqxAAsJQXVnqilfZ5WYgfrGtXVWM7vEfJPr/SM007vD93dTU6pg3eo7Tiz1Ay7fD+EBACAOqzZvdKTzVGu7wsxQ+xmL4sqbbC0yvJUuWrXtbjkxV/hlbh/wwVj39Z0krvcGulcvzLXpbjByO74s9Q1g3/Z4jAEABQn7X/LMldwZkVxzi3eF2O19575ZbDkv2PlZxrpH9/97t/ccrrmrxWc+xNWlnIqVnXudnrery2/YqLpo10+0rOtdId17/ronGva/KalW42UnUFp7qOid3keUHoGAQA1LV92+YHrcyyv0Cs1Q1XX3nJk37U5D3zhyvoJ592XPNHvpTjseuu3PKopE8s9zwr/f012y55zIeSPOe49o8kLXc8xqyM84d+1OO17Vu3PG6t/fhyzzOyN1699ZKH/agJnYEAgCXlMpUPyKj5pm5r7943nPiQjyV5avvWzU9J7rsllZo8Zd5Y/ep7t13aNn2rWXf6g5K+1OzxRvbeysTg7/tYkqfeu23LHjnOf5M03+QpJWPMu6656pJn/azLS+XJof8l6Z5mj7cyX5nN1H7Px5LQAQgAWNIHLr+8NJeubjGy/6glugOONFH+1XPDybd/+KKLVtJcGZjtW7f8P2N0saRGF4SnHNd98/vesbmt+lW3bdtWzrrTlxvp41q6O6BmpRtKE0OXt9vI8e1XXnK3jLnISE8vfaR9xnGdi9531aVfaE1l3rj++vMr5YnBt0v62wbdATVJf9/tTl32gcsvbzbUIqJM0AWgfezYufssOfZaSZcYaYOVsZLda612GWNv2r51y+NB17gaO3fuTOZM/3uN7FWSOVtGw7Ial/RDObq9PD746Xa7ML7SJ2+/+wwpdq1kL5W08ch/3mulXdZ1bm6XZv96brzxe4nE4NR7jLFbZXXu0c/QGj3kGHtHpjbzL9u2bSsHXedqfOrO3afVXHudkTZbmQ1G1ljpOVm7uxbTzUe6fQAAAAAAAAAAAAAAAAAAAAAAAAAAAAAAANBG/n+UlNm0gTc/qgAAAABJRU5ErkJggg==;" parent="1" vertex="1">
                    <mxGeometry x="1814" y="279" width="202" height="202" as="geometry"/>
                </mxCell>
                <mxCell id="22" value="Resistor" style="rounded=1;whiteSpace=wrap;html=1;strokeWidth=4;arcSize=4;fillColor=#dae8fc;strokeColor=#6c8ebf;fontStyle=1;fontSize=25;fontColor=#0066CC;" parent="1" vertex="1">
                    <mxGeometry x="355" y="560" width="260" height="60" as="geometry"/>
                </mxCell>
                <mxCell id="23" value="Kapasitor" style="rounded=1;whiteSpace=wrap;html=1;strokeWidth=4;arcSize=4;fillColor=#d5e8d4;strokeColor=#82b366;fontStyle=1;fontSize=25;fontColor=#009900;" parent="1" vertex="1">
                    <mxGeometry x="705" y="560" width="260" height="60" as="geometry"/>
                </mxCell>
                <mxCell id="24" value="Transistor" style="rounded=1;whiteSpace=wrap;html=1;strokeWidth=4;arcSize=4;fillColor=#f8cecc;strokeColor=#b85450;fontStyle=1;fontSize=25;fontColor=#CC0066;" parent="1" vertex="1">
                    <mxGeometry x="1055" y="560" width="260" height="60" as="geometry"/>
                </mxCell>
                <mxCell id="25" value="Dioda" style="rounded=1;whiteSpace=wrap;html=1;strokeWidth=4;arcSize=4;fillColor=#fff2cc;strokeColor=#d6b656;fontStyle=1;fontSize=25;fontColor=#FF8000;" parent="1" vertex="1">
                    <mxGeometry x="1415" y="560" width="260" height="60" as="geometry"/>
                </mxCell>
                <mxCell id="26" value="IC (Integrated Circuit)" style="rounded=1;whiteSpace=wrap;html=1;strokeWidth=4;arcSize=4;fillColor=#e1d5e7;strokeColor=#9673a6;fontStyle=1;fontSize=25;fontColor=#7F00FF;" parent="1" vertex="1">
                    <mxGeometry x="1757.5" y="560" width="315" height="60" as="geometry"/>
                </mxCell>
                <mxCell id="54" style="edgeStyle=orthogonalEdgeStyle;html=1;entryX=0.25;entryY=0;entryDx=0;entryDy=0;strokeColor=#647687;strokeWidth=4;fontSize=26;fontColor=#b85450;" parent="1" source="27" target="44" edge="1">
                    <mxGeometry relative="1" as="geometry"/>
                </mxCell>
                <mxCell id="27" value="Membatasi arus listrik dalam rangkaian" style="rounded=1;whiteSpace=wrap;html=1;strokeWidth=4;arcSize=4;fillColor=#647687;strokeColor=none;fontSize=26;fontStyle=1;fontColor=#ffffff;" parent="1" vertex="1">
                    <mxGeometry x="355" y="680" width="260" height="160" as="geometry"/>
                </mxCell>
                <mxCell id="55" style="edgeStyle=orthogonalEdgeStyle;html=1;entryX=0.75;entryY=0;entryDx=0;entryDy=0;strokeColor=#6d8764;strokeWidth=4;fontSize=26;fontColor=#b85450;" parent="1" source="28" target="44" edge="1">
                    <mxGeometry relative="1" as="geometry"/>
                </mxCell>
                <mxCell id="28" value="Menyimpan dan melepaskan muatan listrik." style="rounded=1;whiteSpace=wrap;html=1;strokeWidth=4;arcSize=4;fillColor=#6d8764;strokeColor=none;fontSize=24;fontStyle=1;fontColor=#ffffff;" parent="1" vertex="1">
                    <mxGeometry x="705" y="680" width="260" height="160" as="geometry"/>
                </mxCell>
                <mxCell id="51" style="edgeStyle=orthogonalEdgeStyle;html=1;entryX=0.25;entryY=0;entryDx=0;entryDy=0;strokeColor=#b85450;strokeWidth=4;fontSize=26;fontColor=#b85450;" parent="1" source="29" target="48" edge="1">
                    <mxGeometry relative="1" as="geometry"/>
                </mxCell>
                <mxCell id="29" value="Sebagai penguat sinyal, saklar, atau pemroses logika" style="rounded=1;whiteSpace=wrap;html=1;strokeWidth=4;arcSize=4;fillColor=#b85450;strokeColor=none;fontSize=25;fontStyle=1;fontColor=#ffffff;" parent="1" vertex="1">
                    <mxGeometry x="1055" y="680" width="260" height="160" as="geometry"/>
                </mxCell>
                <mxCell id="52" style="edgeStyle=orthogonalEdgeStyle;html=1;entryX=0.5;entryY=0;entryDx=0;entryDy=0;strokeColor=#fa6800;strokeWidth=4;fontSize=26;fontColor=#b85450;" parent="1" source="30" target="48" edge="1">
                    <mxGeometry relative="1" as="geometry"/>
                </mxCell>
                <mxCell id="30" value="Mengalirkan arus hanya dalam satu arah" style="rounded=1;whiteSpace=wrap;html=1;strokeWidth=4;arcSize=4;fillColor=#fa6800;strokeColor=none;fontSize=26;fontStyle=1;fontColor=#FFFFFF;" parent="1" vertex="1">
                    <mxGeometry x="1415" y="680" width="260" height="160" as="geometry"/>
                </mxCell>
                <mxCell id="53" style="edgeStyle=orthogonalEdgeStyle;html=1;entryX=0.75;entryY=0;entryDx=0;entryDy=0;strokeColor=#76608a;strokeWidth=4;fontSize=26;fontColor=#b85450;" parent="1" source="31" target="48" edge="1">
                    <mxGeometry relative="1" as="geometry"/>
                </mxCell>
                <mxCell id="31" value="Mengintegrasikan banyak komponen elektronik dalam satu chip untuk fungsi tertentu" style="rounded=1;whiteSpace=wrap;html=1;strokeWidth=4;arcSize=4;fillColor=#76608a;strokeColor=none;fontSize=23;fontStyle=1;fontColor=#ffffff;" parent="1" vertex="1">
                    <mxGeometry x="1785" y="680" width="260" height="200" as="geometry"/>
                </mxCell>
                <mxCell id="34" value="" style="endArrow=none;html=1;fontSize=25;fontColor=#7F00FF;exitX=0.5;exitY=1;exitDx=0;exitDy=0;entryX=0.5;entryY=0;entryDx=0;entryDy=0;fontStyle=0;strokeWidth=4;strokeColor=#6c8ebf;" parent="1" source="7" target="22" edge="1">
                    <mxGeometry width="50" height="50" relative="1" as="geometry">
                        <mxPoint x="600" y="620" as="sourcePoint"/>
                        <mxPoint x="650" y="570" as="targetPoint"/>
                    </mxGeometry>
                </mxCell>
                <mxCell id="35" value="" style="endArrow=none;html=1;fontSize=25;fontColor=#7F00FF;exitX=0.5;exitY=1;exitDx=0;exitDy=0;entryX=0.5;entryY=0;entryDx=0;entryDy=0;fontStyle=0;strokeWidth=4;strokeColor=#6c8ebf;" parent="1" source="22" target="27" edge="1">
                    <mxGeometry width="50" height="50" relative="1" as="geometry">
                        <mxPoint x="495" y="520.0000000000001" as="sourcePoint"/>
                        <mxPoint x="495" y="570" as="targetPoint"/>
                    </mxGeometry>
                </mxCell>
                <mxCell id="36" value="" style="endArrow=none;html=1;fontSize=25;fontColor=#7F00FF;exitX=0.5;exitY=1;exitDx=0;exitDy=0;entryX=0.5;entryY=0;entryDx=0;entryDy=0;fontStyle=0;strokeWidth=4;strokeColor=#82b366;" parent="1" source="23" target="28" edge="1">
                    <mxGeometry width="50" height="50" relative="1" as="geometry">
                        <mxPoint x="495" y="630" as="sourcePoint"/>
                        <mxPoint x="495" y="690" as="targetPoint"/>
                    </mxGeometry>
                </mxCell>
                <mxCell id="37" value="" style="endArrow=none;html=1;fontSize=25;fontColor=#7F00FF;exitX=0.5;exitY=1;exitDx=0;exitDy=0;entryX=0.5;entryY=0;entryDx=0;entryDy=0;fontStyle=0;strokeWidth=4;strokeColor=#82b366;" parent="1" source="13" target="23" edge="1">
                    <mxGeometry width="50" height="50" relative="1" as="geometry">
                        <mxPoint x="845" y="630" as="sourcePoint"/>
                        <mxPoint x="845" y="690" as="targetPoint"/>
                    </mxGeometry>
                </mxCell>
                <mxCell id="38" value="" style="endArrow=none;html=1;fontSize=25;fontColor=#7F00FF;exitX=0.5;exitY=1;exitDx=0;exitDy=0;entryX=0.5;entryY=0;entryDx=0;entryDy=0;fontStyle=0;strokeWidth=4;strokeColor=#b85450;" parent="1" source="14" target="24" edge="1">
                    <mxGeometry width="50" height="50" relative="1" as="geometry">
                        <mxPoint x="845" y="520.0000000000001" as="sourcePoint"/>
                        <mxPoint x="845" y="570" as="targetPoint"/>
                    </mxGeometry>
                </mxCell>
                <mxCell id="39" value="" style="endArrow=none;html=1;fontSize=25;fontColor=#7F00FF;exitX=0.5;exitY=0;exitDx=0;exitDy=0;entryX=0.5;entryY=1;entryDx=0;entryDy=0;fontStyle=0;strokeWidth=4;strokeColor=#b85450;" parent="1" source="29" target="24" edge="1">
                    <mxGeometry width="50" height="50" relative="1" as="geometry">
                        <mxPoint x="1195" y="520.0000000000001" as="sourcePoint"/>
                        <mxPoint x="1195" y="570" as="targetPoint"/>
                    </mxGeometry>
                </mxCell>
                <mxCell id="40" value="" style="endArrow=none;html=1;fontSize=25;fontColor=#7F00FF;exitX=0.5;exitY=0.006;exitDx=0;exitDy=0;entryX=0.5;entryY=1;entryDx=0;entryDy=0;fontStyle=0;strokeWidth=4;strokeColor=#d6b656;exitPerimeter=0;" parent="1" source="30" target="25" edge="1">
                    <mxGeometry width="50" height="50" relative="1" as="geometry">
                        <mxPoint x="1195" y="690" as="sourcePoint"/>
                        <mxPoint x="1195" y="630" as="targetPoint"/>
                    </mxGeometry>
                </mxCell>
                <mxCell id="41" value="" style="endArrow=none;html=1;fontSize=25;fontColor=#7F00FF;exitX=0.5;exitY=1;exitDx=0;exitDy=0;entryX=0.5;entryY=0;entryDx=0;entryDy=0;fontStyle=0;strokeWidth=4;strokeColor=#d6b656;" parent="1" source="15" target="25" edge="1">
                    <mxGeometry width="50" height="50" relative="1" as="geometry">
                        <mxPoint x="1555" y="692.46" as="sourcePoint"/>
                        <mxPoint x="1555" y="630" as="targetPoint"/>
                    </mxGeometry>
                </mxCell>
                <mxCell id="42" value="" style="endArrow=none;html=1;fontSize=25;fontColor=#7F00FF;exitX=0.5;exitY=1;exitDx=0;exitDy=0;entryX=0.5;entryY=0;entryDx=0;entryDy=0;fontStyle=0;strokeWidth=4;strokeColor=#9673a6;" parent="1" source="16" target="26" edge="1">
                    <mxGeometry width="50" height="50" relative="1" as="geometry">
                        <mxPoint x="1555" y="520" as="sourcePoint"/>
                        <mxPoint x="1555" y="570" as="targetPoint"/>
                    </mxGeometry>
                </mxCell>
                <mxCell id="43" value="" style="endArrow=none;html=1;fontSize=25;fontColor=#7F00FF;exitX=0.5;exitY=1;exitDx=0;exitDy=0;entryX=0.5;entryY=0;entryDx=0;entryDy=0;fontStyle=0;strokeWidth=4;strokeColor=#9673a6;" parent="1" source="26" target="31" edge="1">
                    <mxGeometry width="50" height="50" relative="1" as="geometry">
                        <mxPoint x="1925" y="520" as="sourcePoint"/>
                        <mxPoint x="1925" y="570" as="targetPoint"/>
                    </mxGeometry>
                </mxCell>
                <mxCell id="44" value="&lt;strong style=&quot;font-size: 30px;&quot;&gt;komponen pasif&lt;/strong&gt; (tidak menghasilkan energi)" style="rounded=1;whiteSpace=wrap;html=1;strokeWidth=4;arcSize=4;fontSize=30;fontStyle=1;fillColor=#d5e8d4;strokeColor=#82b366;fontColor=#009d4b;" parent="1" vertex="1">
                    <mxGeometry x="355" y="950" width="788" height="120" as="geometry"/>
                </mxCell>
                <mxCell id="48" value="&lt;strong style=&quot;font-size: 31px;&quot;&gt;komponen aktif&lt;/strong&gt; (mengontrol aliran energi)" style="rounded=1;whiteSpace=wrap;html=1;strokeWidth=4;arcSize=4;fontSize=31;fontStyle=1;fillColor=#f8cecc;strokeColor=#b85450;fontColor=#b85450;" parent="1" vertex="1">
                    <mxGeometry x="1220" y="950" width="820" height="120" as="geometry"/>
                </mxCell>
                <mxCell id="24yzA0cmlGh3owxGNx3z-55" value="" style="shape=image;verticalLabelPosition=bottom;labelBackgroundColor=default;verticalAlign=top;aspect=fixed;imageAspect=0;image=data:image/png,iVBORw0KGgoAAAANSUhEUgAAAWEAAAFOCAYAAABXBaw0AAAWMHpUWHRSYXcgcHJvZmlsZSB0eXBlIGV4aWYAAHjajZppdiQ5cKT/4xRzBOzuOA7W93QDHX8+C7Ja3f2kGTGrkslkZATgMLcFwXD/8z9e+D98tdhrqM28j94jX3XUkScvPP58je85fd/Tz1s9/b5K/3w/1PvzMuV//uLP9zT/+X79vUha/z7R7y+y/+tE+edb0QV4nerPzzZ/T1R49+8n+mvIwy3W//qF35/vZ/85YdH/VibfE8+51Bx57bxOpYWfbzrTb1FM4//9sD6aC9UY6e/vf2MsejH/Oj78foCRlq8g/12dYv7n+38VvPzX+9+J/hT8r6/+nT19V01/e+//Ufzw7+r//4r/Tetvtczz51Xg7X/8YnjKfx/ce8ffu98BddYO1voviv5M/udEHLgYhybRmEr9HoXXP6/a9+iUdANT+328uHiMuFOKL2UeKfBCXyX1tJPxvaaZ2vee83vnp8PjfY+SLOdcc043V46/vHd/hhKqivpzXfuufLmyx8tBlZPVdP93j/C/PfC/e7wntDI9FijY+HqUcWUVmdlo2fXMYSxCOr9rlj9ApH8B5c+XBaYzvqJ6VPf8fry89Gep27eqhePyd6QK8U9869M9cG1jGFlVpsalU/HoqaqmTmuU3HJqPVv2DMekRY1fzKUUK5ODSvOy8knh/ZmCf4Mu/+Pg/4xCEMk/n8k9pd9ps/wabP3ThP/6kCpWKN6HisgoGR840Y8GLlj9d0QrO5YfGvn5QFJtYryFWURX6f2d6nlyyZpyvayRj3THbaNYOm+Bu1bz6rOm0KCYvJ6PzW93Blt+J0e0PfJIbz/wO84sa1hthfMBz7J6G+ON0cea52yumcPkDe8ve2/tjFHTGeWtanmW2/YsvHVqvZkLpjKs1P3O2DDYfbmfOc6YdN894c5eqDPTbixsXm3amsz/pfHmY3LFr+dV+Hi1eu+oXvNdpzCp5blHPu75nPCsdyuXprbd/LVWy9v3WjYrh3bxtf2MZCPX7Y2mq7PUAxI444grQTfg4tawLPM+ZVGZLnBaO/XVYKm0Yz6TStfX30l33/Ke735ZiZuZX1tZEDv5neJhTs/Z7u7LxuFFZ7W9n/asilMtWX8r7z5Gg2FXa6pWXnZeWV7ygXFuX+WG7laypesTaukwxxwFuOaOjOxTx+s9ncoZzrJu3Sdiem2iShS1Iah1ckQuYY1OCY0BzMlsWLC74mPkNpgg80iVAdR8aBk+ZQA73do5IKc+5h4zv253BpZ4+auvrjit9Ye6HY0fUgA712mtPXZ988K57hNg2KbQt72RF8N24DR3D2OdfWY/FsdsbSfws+nHDDoGhcuNA2sEfHHeW+aset61MKYNRu/+msBF/rmO2SlF6xPSXBx6QFIp22hxqEEwH5fCr/TTAJd1L/exsGtAoltd1IL0p9IcwIHueL0twNCp1NylXzAGvuNyRu91vXJni0+DfCwJk7foZTSzFlI5TgkLfUNHf9/4AKsFemB+hrrUmN8Q6yreqkpxcmFoy+yVufZa2YJWglUG0ydR9pNp5rWMAcy0dzultb4HYiAmZZC1bwOSEVjFVworXHwzk8CAfYIPUJAz45htDhAyT92z1+QN+kg00HTb/Hy9+s5W3qRb+p5g/6QuZPcj4LDyRtH6uXmzwg5TABjLm8pS8ESTi1QE/NS41FwApbI+92ix27EAn2QfzxY4KGv2TSX8MB5mDipZ+Vm8XrveM2iCqEejirvR1+OmYXdYmx0T8WgKKrEA6O0tm5qyTKdjeXbYp9iCdwbkgMAyNLj2sTATHLzYOwN62zxQ3jXA6d5wZ7TtfgUOtd3qpuoc+LaK7YFZSvTmXvc4+t6mdIoF2Qw0jP3UUNt3edS3TbpwuHfYJM25al8RMoVZDozs6jiAcPJ2W8CGgvpztxPDZfURB6iRVk4TBm9ngpb2osrUiyiO6tTqsMC4J7EyVgF9BxMNvBZGX1egQWkM+qhN9DAuWgUWF3aet5SRjGyjsgwDOdCgBZyHeel31jVh0WSFJQzYDz7RAH6y13btSBBNR4fDfq5i2GTVqlpkAArA/WbyYb0B9VuctxD6Gwwy3wsebK8xxFv6bpRxONoCL0FisRtVuKAAqoULUbbSACScA3DX3AeqGAFF6B3WNlp6M/5HCdbS0q1+8HxgIs2X2rkX6hbdM35A35CalXqhLw806kSIVs5DKXasNP68fuuq71bmpSHl0lk0xOq9uRcd0EDdB0iMHebM985uvgJc7oN2wnZsppGoKxQDq12m4/X4osvpI28r1ZnkSgrIb6xYAfXeE4yz1gtDVopC+b7rIsF0F+P2gk9Ar/rhsoCaCQBbpOciV9EuJ3x5bqN/ueCsWv7se0KviD2KWPZoC0drzI6Foo85/6PbafSj+qeNAaCsKpXYv8g1IUw5oKUv+Ur0PE2FQYNdoCp4l1a81vClYNohufKKZp5HmwhCqQ5dgv9teG9qRF4aTBykDErkaBunZUYVFqx2OScGilqjKJwgr4QkYySwP7PL4lD1nFiHUN4tSL/BHzT2Qd8j2oZ60Br5dPCM32feqwEURsN5aEw8VlYoYD7ICXVKAVk/fQu0kk1YIe4VqTdTS71VVKohbREw4xtH8musaroHt4T3yhf+h5l8YLSo4229n3UjcHx4+gEIedqiiUyrU5nqKMm9UHolpLH8dYwJKa4qQ0a3h4mq4aqYr+h0RiOy0NKYJexQRpuh2EUlsmPGGNGB5sp8A8eEcaayZ0GABz5iROdEAAFV6QTQboPpWD+c0CFu0Vq7G2Z17VcVN+HhgebPeOmWmgqB5+Xw0QFtUvnYvoqi9HO8iM4XEaGTi1CVwVAqEg4dMCkEia48mBraD9tN73wtApsjLZAQKrM7+p59mbS2bfwwLbKkG5KeAQM+FiEz5l4LDggmm4pegfwNx9PqW7WgMTBA+3K2hbhnmhzCWqXTehQAe7speoNqq0/EiLWQgDGIMFuOtDSqFilsVDKAM049CwO3SxxZ2ABT9DGLhI6iIYMjur3xclq1GAwzMRGLLqvIEN43YvIcdJxJIMHIyuO+OLY1zHU6E9PVgUqeEjhLS3Iswh1GsS/rgjvD9wCXwehWOYjbOMYcO14onnK0+suBIzXorrY1kSimyUrbKGUPsK69tOZ8G3t+7HAy0WMVWduGrE+VgxLKUJ2HsrCQeHVmjIV72BESc+2BysMy9BteDRsAJicjOFwLjcG3D4O04SasPuTiIAsDj/s8Kgl4eQSRh94HkgczZIKgAl9C68Bxeb+tDIF0PVZ3q01obeCJDaQxUCMK59iVg5Kj0Mkw7E/m4+bF4kMxKA0QgW83JIIvodNbBllt4L82ogcVmLLF3rb4OeFU6eEdRi94aqkjdACYMGbwaHvkIEiH9FBIDFdRTxmLODkfDAQJ0AGRia0j9jJoBHzJkq8Om6sWmXxGLwls2igY79U2aY3U+D+JGPgB/ZrAhInl0wUjbpXlP9oCGSAPEw2SWkxfEntYqrdP7xlTgtYBr4oOVLzww3BMmmcpBMKUQCqFcZBTw86Q1LQgtfP8YmWAtDNzqZ0jD5rqTJqFYRAirPrjkgkcB9YahRENCtcnMMS7xo8qUSUSBLYX+G8AU+Dy1fCPZPaOm0RYiUbQ45uVDnQzit0kLo/YgdwYdsAYtmR/YFWv0ATvXbX/wvW1QeOTBTL5BQYo2F96CnnJK2ACQOclE/jTesoRHHzLxUsoOSmFNIwhstpxpQtRrzXTNy7P1z+X93p+QdYCYGHvkJr94GIMIm+AYenlm+2PhaGDF806vqogOxSQsHzQeILcCyVjgPFmBIP6qdVAdqgyqsQzMttLpNkhVaEfFjp0n64NflQnrr8J8yVcONe1NYRuY2IKph65IJHgW1nuQQAHH9ZooAq7EBxgS7OeUWUYF66JeIlqIeVtpJQs74rywYym9IF3IVBgJzFzDZFGLvrEBTZUB8rC7/BSjDUf0r8LtmY8NBsYshRTMo5SPBZWzouABeFlxW4sMxwmHSbyT6I7RAWuwAcMirW6IW0SMIOh0NCXDXLiVsCAnWFTFOCKZhkWnbTA51zUsMIpKQI1TsmaE9JuYJprwKDE0NVHjhc9qlyM7kO6le+Qd5rqgHHWbSP6AHoM7dRIKTM6aXhqlBZRau1yCVw+XEhMRCZIjog/kQUf6YRCMHZoAjT1Ylo7rqErR8PY0MvOiShqcZJJ/EHS+OtcaENqRPvRU8cRIsUBVIX5Iqt0qTlakzExYzzs693fXgwRgq5/5IUDKPem8MzJCGpyhP3b/wES1KthHEgbEwpiAtjOyXLIXInHJ4bdsNbaKLh44Oa0Lc6HyEIUxnD1b30BBbmEyEf0BtVP24/DCPnaAmlwLS4zlEMjnsnCKNKdHOEtPCYlZg1sMPEDTqu2v1ifKiOvnS0EJGOADlTa5SZrWHKsKIvhpJBkOMvoFoe9WRkCeoUTtiIEPyIxtBV+Aq7AOR+4Gz6Q4W8tKIASwlh5DCzB68D3o0A99I3R/TTS5fTpEFbt3EJkQQRQTthmKQQU+BfSCOKwnYv3AicbouyHPiPnI/1oMOkE0VMyo7qPQqmxBxluErgBAPqDcYYGAyYANaLZaCiiBd8IhVpEZI1m4sqohHJbwp9ugN0wCOAHK0h/Gq4L64lU4kbqR6oLdaebrkhlfeJM9D00+cPXTMABKeL+OAnCoD1roq3oVzvjqKIFmoNW8CLGoq7IKaS4yLPt9kOPsMQVJ+Qy8n8NNuX179GFc+0zhRp4BdlmjA6Xn0kqE4xv0QGemKvBk6CbmoEB7ed1KBhRQiOZQTgic2ty/Y1mvcgRFoBcwMIB8PSaEYwkETDa4iRlYrqRaQrwprY/IXuchqyfX1AM7T3oaOEQKsHFdTNkHHgW+zfk9YuyF1Qjg0D/gWkWFh+syMHqBuLM7tpcuAq/WVmYrqKYeAoGhA/eWITm6CjXQQEpgDaPEex0q3wmagMnh8cPTXEht4dP4fr3aW9yIIJZREi0ATEDMOZaRYCU+05sDtxEDTacB2tZMAyzQqqjPMDiLb5EkXR6xQgbUII7EkoHptoblBAvtlRYZoE1wNjAso/ghz29RR1ouCPmkrSpivluhINNXXEgAzRhT1Aa4hCVYO3glHV1wYYenNiCG7pMtEaCEEaIyrH8+wowCsdNz5QFwsDF+8JQUP8r+3kRTgSVJHUnOCIswb/aPIMasM0NLC8uU+XCsxhIqfCykphWZtR2JxaYNn430k1lZVmgES5IYqnMWJs3akmUcMoJauOYF7ggJsckNuy0UBy6CM+B2hX4CrIofHR5gAkRtKzdpklcQ6bo8Puo4SN1HCCmRLdcZaTlWM0pa/xzKwGxRDJAmZegzTAEWnvdhTQmYcdc4DIMTifJVSGSIsBHqDyMg4BoE4Z5aI/JSfoNNwEf7dtcbEEnvsnwSCPE0ydvCrNmWscYh3F9wKhtWnEOkqp8OHXDqSkyomu2fzZh5u8mzPhxMNBlpGnKRcy1lc4UB1yy6CVkkPTZMFlUTm90uFc7o7e2A1GjNfiDfuGgmyfpC4uFHeOaHNgZCr6TSzCAqK2PvEXROHskjwSC9WNSj7WkjU3mlkW7jxEy/CZfaQOBJdwsEE3nZe0gIbfaTNRW3OCopW2f+jy//WnWIfoQ9/EIYz8NRreQlramsRRxJRKpNkMJG8IVnDPRjPHjCvBHfYIqhb+sqGL4EDLDOrAuhhVa5ppFJHl1S4nwNpBeyJBWjKg3vAzb0AiyNVcwXNoXI+vyD8/6SMhPOhOF1IErIe8SDA8Dm0d7cXSYtmML57hQqQXwC7CoI2fCQkxiOypNQx0tdDHk0YlwC8VVrmG9yFUR2uSSkKh8ILF5pQA5VwgB4iIyEmzBJo5bcL4wNTH54Qm1nwgoV4eALg4bMxknVEGjy7SmFHFsCXnQg66FiDCqDq613TzjITOYTCRiXEB+78CM1qc+xEhOsTEEJuOVboBmKRocJE7VmqsDGAGT0sqCzEaAf8TqAh/3yBpxTlYZAotNsYvk6RAbaS9pCwcu1F4LJILwvSKfMOCOmru2t4nMxH8C/lQIb7gnPBR2ijQLBJCEFKghY1mynISyzVJfdAazRcalAgoNWNMi/hbzygw8vCPti9nChxeb/RGeA8uxjjSKkdMJueO/48YdbPQemwHd1vpoFEwy0Z8lp0G043wWXv1uUDe1GR+OIPftMM9KjMIITZwYKjZp30UNbmdGjnA0e5t6akyov/aONqpMPU5t8YR8Etzt2k20hMDrAlBHJg6Ad9x8u0Xbg0/74MoqdscikRHHU/32HLCYiHHIZAgtPL1DD3Ica0vGaGhCgQkNvTUFHbIbnLAlCCBsqZEa1Scey84o+FFZbK9Kxpg3OrWxKYmeGEAbq0F58IXYA0f7iG6X0mtK2lu9un/bDxnohgeXwAOna2vdB5rg2tJBR7JMmb5F7WQOujvigcjujzZZrjo93SlmEbF92hhf3x0pHILrTpM25snIoBVTmhPhB36AQJe2ixYQZdyNSXTdIOzg+ttdSsEk/DGdbw8EXl26VztxPDhWPLAoEiKuMtzayKmoAj2Mya26DaEUxGpAWPjs8kn0jLfp5iz6O0eC3uhdVIfwAAXhTeCQwQzoHHwIR0VJSUGmfCZtfwfMpOH+/XboHR+Gnc54aO1zVN12zOPP1rHj3+pDfTkYsjlF9vK7K61oENpOUIriwJVjfvHPrdW97YKIDNZ12wytibqfrT8USHC5y3nKSVLp3mcir1XYvi5YGJTo1kDSveinjVzK+bRHXGLXvcT6UQR5IwL83eTIyBfahqB8oU+nzBUrdxP0PA5yBhsPCSKqTduqQQujhlzoUCIhelzJeN6BAU63fbEwPDknQmSMGCTSF5PGt6VtCbLEI8nemxagd6XjSaUMribkkbWutoOBPp0aZISNRmr0JZDHFRcuRxdrv4iR6vZevYgL+eAs6bjBwrrPIN3fEIvuPZNpXbdKtZ2OracZKmRmrCBIZwb4qP6ibgY9tTlsipGAbYC8c0UACo1CLddVox21nQaFkLrRmkHyp4E4T9fdIJwT68j6W9PfR1TehbHrvqZGQ+CGLo9h104OarVE/pxGu0lEO5LDnzuw37Z20r8YqeKGxrZ23TcYRcnoVWw+xcYwwSxLBnLI0pMMiX4dYtOfk1wiEMmsT4Xsc/WXAgkZY93XuFgsREC2HO4KdFxSYTPXyzhsLD6iomCMZcSEDrxzJH2yaCtCrpMEwgJM8IlY4nwurZFIR/iB2ux8d9nI31Q+EYm2np1FKmq8SrcCGxS3DnUXac9xG2R2UPXtB45IzOqiAeaD1/GJH8A6Ot5k4/GRd+1ZYFDLwrXvsmUecIv6EwCgQnb+NjmZcdiKJgxUrYrk6w/CYEAX3yUwg/Zj8BEeLACySCp5yhnwWVfM2BjdgnO3iImQrbax1rv3gyE2DO7b3+2HCVsSGaku7gn2ZH06dvg0KdFo+hOOzixI/AGq120FMh4SlY5u4Wjb3CUgjgGaAFt/GEBiwg1iLuhH5//C0BGYl3ZhyH4tDNwFjIQ1XrE2/bkBFgeCafsXPVjFX/4wjMkI/xdipoDCW+t2dAAAAARzQklUCAgICHwIZIgAACAASURBVHic7Z15fFTV3f8/3ztZIGCIkEASEjYhJJlJiIBCoGwqxl1Eoda6PRWl9lGrrfbxqdXa9vGnba3aauuKe9WC4r6gIqsEXCDLzISEnQxJIIRlgLAkc7+/P8Kwmcx67z33zpz369XXizp3zvnMhbxz5txzvgeQSCQSiTBIdABJ7LNo06JuGSkZaezj0xVSUol8qe0+9LQRerCidAejGzEnM3EiWEkAVAWKAqgqAEUFqe3E1MZEh0E4BKBVgdrKsO0DY58twbdX5YS9CXsSduXl5R0W/XklknCQEpZERUVjRd/kBCVX9XGOqir9iShbIWSqQCYBfRnclxh9QNTTgDgHADQz804QbYfK20HUyMwNiqJs86k+j0pqfUlWyQ4DskgkISElLAmKk51J1ETDQL5hDOUMAoaAeQiIBjF4EIG6ic4YBgcBbAHzZhBtZGCj6lM3qIq6PqEloc7hcBwRHVASX0gJS06ibmdd6mHfYYeNUehjFCpAARMNJ2Cw6Gx6wypvhkI1xLyWCG4fwX048bBrdO/Re0Vnk8QuUsJxTk1zzXC1vb0EhBEMKiZwEUADROcyD7yVQdUErgKj0qdyZXH/4rWiU0liBynhOKO6obpAsSmjmdXRBIxkYBSBuovOZSFambEGxN8T4TvVh++KsotqRIeSWBcp4RinorGib6JKpbApYwCMAeNsgx6SxQfM+0H4BsAqBq1Uoa4qzizeLjqWxDpICccgrkaXnYnHEzAejPEgnCE6U7zAjA1E+FoBvvYlYLkj3eEWnUlibqSEY4SahqpRPkWZBOaJBEwAUW/RmSS8ixnLQLTUZrMtKcgo+F50Ion5kBK2MNXbq0cQ0zkETAHzFDnNYGKY94NoEQOLuI2/KsotqhQdSWIOpIQthqvBNVBV1KkEOg/gcwmULjqTJGx2MtSFDPqyndu/PDPrzM2iA0nEISVsARYtWpTQL79PGROVMaOMiPJEZ5JoRi3AnxPzgoLMos+IyCc6kMRYpIRNTE1zzXCfz3cRmC8koqmi80j0hRlfgPCpzeb7pCBjRK3oPBJjkBI2Ia4m13nMfAmgXkKkyJUN8QZjAwMfEdFH9kz7l6LjSPRFStgk1DTXnNbW1na5oiiXEnApALmBIs5h5kMg+gDAB/u9+z8cmzfWKzqTRHukhAVTWV+Zk5hkm8bMVwB0jug8EnOiqvyVzUbvttl8741IH+ERnUeiHVLCgnDtcA1jn+9KQJlOhLNE55FYBf6Gmd9t96nzS3JK6kSnkUSPlLDBVG2ryldsygxiXAVCseg8EmvCjCoQ3k6wJczLz8iXBYUsjJSwQbh3uPNY9c0E00wQikTnkcQGzFxNhLmk2OYW9i2UI2MLIiWsM85tzgGk8NVMuJpAZ4rOI4lNmHkNAW+xSm85+ju2is4jCR0pYZ3YtHtT2sEj+69hla4BYbzoPJJ4gZYTqW+2H+I3iwcW7xadRhIcKWEdcDY5f0LATwFcLDqLJG75mIF/OzIdb4oOIgmMlLCGOBud5xDxdQBdCyBBdB5JfMPMPiK8xkyvObIcX4nOI+kcKWENqPBU5CUlJlzPjBsA5IjOI5GcgocYr7CNXrH3ta8THUZyMlLCUcDMCTXbnTcy6EZAzvtKzA0zVkDFy811zS9NmTKlXXQeSQdSwhFS1VA1SVGUnxFwvegsEkmYvEqq+mJhdvES0UEkUsJhs7phdUYSJd0EYBbJY4MkVoV5PYPmJPGROXnZI5tFx4lnpITDwNXguoiJbybCNNFZJBItYOb3iPl5e3bxJ6KzxCtSwiFQ1VTVLwHKLQzcAvngTRJ7eAh4rh3qc/KkaOOREg6Ce3v1+Qz6ORhXiM4ikegK4V2C8kxhv8LPRUeJJ6SEu6CisaJHIttuBdGtIAwRnUciMQJm3kiMp9vI93RJVskB0XniASnhTqhprhmt+tr/Gx1LzySSOIRfVlT+Z0F28Xeik8Q6UsKn4GpyXctQbyPQGNFZJBKRMHgVQXnKnml/XXSWWEZK+Chrt61Nb1Pa7lCIbgeQJjqPRGIKGHtU8JOJPRL/kZ+av1N0nFhEShiAq9E1BlDvANE1orNIJKaE+Y2ERPr78HTHN6KjxBpxL2FXo2smg+8kQqnoLBKJqSGUg+gJe1/7XNFRYom4lfBcnmuz7yi4i1W6iwjZovNIJFaAmRtIweOFfR2PE5FPdJ5YIC4lXO2pziUb/5pI+aXoLBKJJWE8ofr4saKconrRUaxO3Em4uqH6LALuJoVmis4ikVgZBs9NsOHR/Iyib0VnsTJxJWF3Y9XFKin3EDBJdBaJJBZg8BKF+a+FWcUfi85iVeJGws4G5w1QcA8BdtFZJJKYgtnNTH9xZDteER3FisSFhN1N1Xcy070g9BOdRSKJTbiJgD8XZhY9ITqJ1YhpCS/atKhb327p94LofwB0E51HIollGHyYGI8kZiY/nEd5h0XnsQoxK2G3x92Hbb7fguhXorNIJHEF82Pks/2/wpzCFtFRrEBMSnhdS3XukSO4D0SzRWeRSOIS5mdVHx6SS9iCE3MSdm53DiXm3wF0g+gsEkl8w6+gre0he+5IecJzAGJKws6dzkK0434CrhadRSKRAAy8BRV/cmQ73KKzmJWYkXBNU2WRCuUBgK4SnUUikRyHGe/YyPaHgsyCatFZzEhMSLh6e/UIUvF7IpJHEEkk5mS+DQl/yM/MrxIdxGwoogNES01TZZEUsERieqa3c9uDNU01RaKDmA1LS9i501moQnlAClgiMT9EdIWK9gecDc5C0VnMhGWnI5zbnUPB+JNVHsK1th5C847d2LXLC6+3Fa2th3DkSBtUVYWiKEhKSkRKSjekpqagd+9UZPQ9HSkpcn+JJCZ5C21HHpCrJjqwpITXtVTnHmnDn8y8DM3t3oS62q3YsLEBW7c0oaVlb9ht9OnTCwMGZuKMIdnIGz4AhYWDdUgqkYiAX1Hbcb9cR2xBCR/dCfeQ2TZiHD58BN98U4PV369FZeV6HDnSpnkfSUmJGDFiKEaOysfZZxcgOTlJ8z4kEsNgfpZ8tvvifWedpSR8tBbEQ2baily7dguWLK3A18sr4fOphvVrsykY/6MRmDSxBMPzBxrWr0SiJSrzY8mZyb+N51oTlpKwq7H6QRD9XnQOAPjuuxosWLAKNe7NoqOgoHAQysrGYPToAtFRJJLwYf6DPavoQdExRGEZCbubqu9k0MMQXA2tunoDPnh/GWpqNouM0SkFBYNw2eUTUFR0hugokhjD621FamqKLm0z+LAC3BuvZTAtIWFng/MGIvxZZD3gXbu8mDt3IZYvqxQVIWR+NGEEZs48F717p4qOIokBvN5WLFhQgZycPigtHa5TL9zEKt0bj4XhTS/ho0cS/VnkiRiLF6/G668twKFD1pm26tYtGddeV4bJk0eKjiKxMH4Be+o7np2NLc3TT8TMboLtN4VZhXF1VJKpJVzdUH0WKfRXUWfCtbW148U5H2HZsgpN2uuT3gv9+vbG6aefhtNOS0FychJsNgU+n4rDh49g375W7N69D9t37ELLzvCXtHXGhAkl+NlNlyAxMUGT9iTxw6kC9qOniBm8hFXcU5QdP4eHmlbC1Z7qXFLwqKhTkTdvbsRzz76HrVu3R9xGfv5AFNoHIy9vAIYMyQ5r80Vr6yFs3NiAurqtcLs2Ye3aLRHnGDCgH26ZPQ2DBmVF3IYkvuhKwH50FvFc+OgeR3/HVl06MBmmlPBcnmsrbMr/G5HySxH9r15di6eefDuitb55wwdgXGkRzjq7AL169dQs0969+/HtNzVYUV6Nutrw/20mJSXittuvwsiRes3pSWKFYAL2o+/UBJ4ozLT/moiMW/cpCFNK2LW9+m4w/VVE38uWVeLZZ94N+33jxxfjvKlnYdiwXB1Sncy6dfX48otv8fXX4Rekmv3zKzBhwggdUkligVAF7EdXERPfY+9X9Kg+jZsH00nY1eiayeDHiZBtdN+LF6/GC89/ENZ7xoyx47LLJ2DgwEydUnXNli1N+OD9ZVi1yhXW+2bdfJl8YCf5AeEK2I+OIm6AQnfZ+9rn6tG4WTCVhF2NrjFHBVxqdN8rvq7Gv/71TsjXZ2en4+qrp2LkKPFf71d/X4u33voCDQ07Q37PL35xJcaNl1UFJR1EKmA/eomYmcsTE+nO4emObzRv3CSYRsJrt61N9yltfwfRNUb3XV29AX9+5LWQr596/tm4/voLQWSa2wdmxquvfoovPg/93+r/3Hud3NghiVrAfnQbETO/YeuR+Mv81PzQRxkWwjT1hNuUtjtECLipaRf+9c/QRsBEhNmzp+GGGy4ylYCBjmw33HARZs+eFnK2f/3zHTQ1xXXtlLhHKwEDgNvl0SBRJxBd03ag7Q59GhePKUzianJdC/CTANKM7vtPf3wJtbXBl3/16dML/33bVcjL0//BW7TU1dXjn0+9HVL5zOHDB+L+B/7LgFTWxetthae+BXu9rfB6D8LrbQWALsV14vbe1F7dj/3/3Jw+SO2VgpycPvqHDgEtBZyamoKbZp2rQaouYOwB0e32TPvr+nUiBuESrmmuGe3ztT9FoDFG9/3v1xfg00/Lg17Xv38G7vrV1cjMNMcPTyg0NbXg8cfewrZtzUGvvfDCUvz02jIDUpkf71HR1tfvhMfToomgOiM1NQU5uX2Qm9MHhXbjf7FbSsBHYfAqVnF7rG3kECrhisaKHolkewqgG43ue/XqWjz2tzeDXpeVnY7f/OZaZGQYPkiPmubmPfjLX15HYwgP7H7165/E7Rpir7cVLle9rtINRmpqCgrtOcjNTdd9pGxFAR+HXz7oO/zfo/uPbjWwU10RKmFXQ/XdUIxfD8zM+M09T6GxMfA/wtTUHrjvvhvRPyfDoGTas83TjIceehle74GA12Vl9cFf/nqb6ea69cIvXrfLc2x6wSz4hWy352peuczaAj6KyvfYs2Nn/bCwnzj39urzWaWnQRhidN/z5n6F999fGvS6e++9Do4YWD3grN6AR0JY/XH55RMxY+Y5BiQSh1++K8vrREcJiUJ7Luz2XE1GxzEhYABgbCRFubWwX+HnYgJoixAJVzVV9bOR8jQYhp+S3NTUgrt//WTQ66677gKUXTDWgETGsOCzlXjttc+CXvfo32631Nx3qHi9rSgvr4PbZc0jzVJTU1Bamhfx/HHMCPgozHhXJfXW4sziyIu7mAQhS9QSoNwiQsAA8OGHy4NeM3asI6YEDABlF4zF2LGOoNeFcn+shF8+c15YaFkBAyd/Do8nPJHGmoABgAhXJEC5RXQOLTBcwq4G10UMCLl527Y1Y8niNQGvSUnphmuvi82VAtdeVxa0ktuSxWtCWlFhdjpGvrWWl++peL2tmDd3BRYsqAhpLjsWBeyHgVtcO1wXic4RLYZKeHXD6gwmvhlAjpH9+vnii+C7yWbMPAdpaacZkMZ40tJOC2nON5T7ZGb88rXKvG8kuF31mDe3HOXltV1eE8sCPkoO+9Sb125bmy46SDQYKuEkSrqJCNOM7NPPgQOH8NXC7wNeM2RINqZOPdugRGKYOvVsDBkSuDbSVwu/x4EDhwxKpB1ebyvmzVsR0/I9Ea+3FSvL6zDnhYU/GBXHgYABAEQ0rV1pnyU6RzQYJuGqhqpJAITdrOXLK6GqgUuTXnzJeE37rKnZjPnzF+Oh/3sZS5dWoLl5j6btR0qwz6mqKpYvN/9Zeifi8bR0zJcKWucrko4piuOj4ngRsB8CZrk7/GJJDDnzhpkTXNtdPyNA2Hqv8hXVAV8fPDgbY8ZEf4xdTc3mDvm+s/gH/x0A0jPSMHFiCaZPnxx1X5EyZowdHw3+Gps2NXR5TfmKapSVGb6JMSLKy2vjZvTbFf5Rsf+hXbwIGABAOEOF8rNFixZ9PWXKlHbRccLFEAnXbHfeSKDrjeirM7Zta8b69YGLi5xzzqio+6mp2YyH/u/lgNfsbN5zTNAiRXzOOaMwZ07XEl6/3oNt25rRv795N6poOeKLFbS6F5YR8FGIcH2/gvRlAF4QnSVcdJdwhacijwVsSz4pw5rAo6Ru3ZIwcVJJVH00N+8JKuATES3iiZNK8O9/L8ChQ0e6vKZiTZ1pJSxKwP4dbP7CPKmp3QEAvU7Y2XZqoR/v3oOm25UXCKsJ2I/K9F9uj3tpYU6hpb4W6S7hpMSE65mh7WRrmFRXbwj4+pgxdthstojbb27eg7vufCLs981/ZzHS0zumJ4zGZrNhzBg7lizpesledfUGzefJtcDrbcWcFxYa0peWNR3MUKMiGFYVMAAQYRxs6vUAfic6SzjoKmFno/McZtygZx/B8PlUuN2bAl4zanR+VH3Mn784qveKkDDQ8bkDSdjt3gSfT4XNZpqy0/B4WjBv7gpd+9CrdkPHrreOIkn+8pj1nhbTrGO2soD9qOAbnI3OrxxZjq9EZwkVXSVMxNcBJGRNsJ/16+uhqtzl6zabghEjhkbcfnPzHixbWhHx+3c278HSpRVCRDxixFDYbAp8vs5XjagqY/36egwfPtDgZJ2jp4Cj3RYcSX+F9hQU2nNRWpoHr/fg0YJCYoQcCwIGACLKAfg6AJaRsG5DHGeT8ycAXatX+6GyaVNjwNfz8wdGNRURzShYyzYiwWazIT8/sGCD3T+j0EvAqakpGFuah5tmnSukrq8/Q05OH5SVleCmWeciJ9fY2h2xImA/zLiuwz/WQBcJb9q9KY2An8Kg1ReBqK8PXN9j6NDIB+qhjILTM9Iw/crJAa/xj4ZFEOzzB7t/RqCHgE+Ur25HtkdAamoKZswYh7KyEkNkHGsCBgAishHw0zWb1liiCLgukjx4ZP81AF2sR9vh0tgQ+AHIwIFZEbcdygh29uxpSE9Pw9KlFdgZYLOGqLnhYJ8/2P3TG60F7J/vNZN4O6PQnotCey7crnqUl9fpsroiFgV8AhcnpyRcA+BfooMEQ/ORsHObcwCrxh/Y2RXNzbsDvp7dP/Jt5/4NGF1RUDAIBQWDkJGRFnQp2s7mPUHb04Ngnz/Y/dMTrQWck9vHdCPfYBTaczFjZinGluZp2m6MCxgAwCpd49zmHCA6RzA0lzApfDVI7JI0P8yM3bv3BbwmI+P0iNquqdkccGQL4KRpiIKCQUgPckSSCAkH+/y7d+8Dc9cPNvVCawGPLc3DjBnjNGvPSPyrKsrKtPumlNqru2ZtmRbCeFL4atExgqGphN073HlMMM2H3r//YMDXU1K6ITk5MaK2Q5nDLSgYdOzPGRnB1wOLmBdOTk4MWt4y2H3UGq0FPGPmOEuNfrui0J6Lm2adq8myOU99S8AKbLECA1dXeCq0/RqhMZpKmFXfTAKdqWWb0XDw4OGAr/foEVg+gQg2ap3QiXBPlHJniJqSCHYfgt1HLdFSwKmpKZgxc5xpjpjXgo7PVKrJQzu3yxN2gXirQURnJibYZorOEQjNJFy1rSofTKb6sG1tgWt5JCZFNgoGOh64Tb9ycpdi7WzUG+2UxEP/9zKeffY9zUUd7D4Eu49aoaWA/fO/sSRgP6mpKSgrK4l6ntjrbcWCz8SsyjESBn68tnltdDuydESz1RGKTZkBoEir9owgmoOF/Q/dML1jqZq/epp/NNuVnAsKBmFZc9f/8Gvcm4HpXbxWsxmoAZYtrUB6Rhoy0tNQUDjoeJYIMcMBy1oL2Krzv6Fy4u67aCrI+WtwaDnfbDYI5Gj3tc8A8CfRWTpDEwm7driGwcdXiTu7uXOCbbdtb/Np0k9GRhoyMkpCWmI2cWJJwLXFzTs7f9h36nzxzuY9J01fpGek4Ykn7gw99AkEuw96b1uWAo4cLUTsqW+Bx9MSk98ajsG4ylXvesuea18nOsqpaPLTxT7flSAUa9GWliQnJwV83ci5Tj/p6YGnI7qaFw62KSSakXCw+xDsPkaDFHD02O25Uc0R+8/ji2WIUMwJvitF5+iMqCVcWV+ZAyhdfIEWS48egZfheL0HDEpynIyMtKDCPHXU2xzCA7toNnoEuw/B7mOkSAFrg3+OOJpVE/7RcCxDpEyv3FkptJZNZ0Qt4cQk2zQinKVFGK1JSkoI+uR/Zxdf//WkoHBQwNdPFW4oO/MiHQkH+/w9enRDUpL2GyulgLXFv2oiGuLgId1Ztja6QnSIU4lKwjXNNacxs+k+1In0CfL1v7HR+N/+oSxV84+GQ6lP0dlyuFAJ9vmD3b9IkALWB/+IOFK83taYHw0z0zTndmdP0TlOJCoJt7W1XQ5Q8DPUBZKZ2Tvg6/VbjS9QE8pqhvnzF6O5eQ+ee/a9oO1FMxUR7PMHu3/hIgWsL4X23KiWrsX6aFhR6BwwLhed40SikrCiKJdqFUQvcvr3Dfj6ho3bDEpyMsFGrzuPntYRan2KSAn2+YPdv3CQAjaGaB7UxcNoWAEuE53hRCKWsKvJdR4BppfwwEGZAV+vq91qUJKTCWXjRigEK5MZjGCfP9j9CxUpYOM4cQ1xJMT6SgmV+bKqbVVTRefwE7GEmfkSAKavAnLGGYEfhu7evQ8bN3Z96rBehFJZLRjRjoI3bmwIWuAo2P0LBSlg48nJ6RPxaDjWV0oQUTdFUUxRaheIUMI1zTXDAfUSrcPoQVpaT+Tm9gt4zZrVYn7zRzsajnYUHOxz5+b2Q1padM8wpIDFEc1ouL5+p4ZJzAeBL65prjRFVaeIJOzz+S4iUs7QOoxeOIqGBHz9m2/cBiU5mYyMNNx3340RvfeW2dOiGgUDwT93sPsWDClgsUQzGna7PBqnMRlEQ31ttotExwAikPCiRYsSwHyhHmH0omTEsICvb9vWDKdzo0FpTiYjIw2Ph7ndePqVk6M+hcPp3Iht25oDXhPsvgVCCtgcRDoajocHdCBcuIgXCT+CLWwJ98vvU0ZEppnUDgW7YwhOP/20gNcsXvS9QWl+SEZGGu773Y0hTU1Mv3Jy1HPJQPDPe/rpp8HuiGwkLAVsHqIZDbsEnfxsFESY2q+pT5noHGH/FmAi4aEjYWypA59+Ut7l6ytXunD55ROROyDw/LFeFBQMwhNP3NmxOWNZBWrcHVXZ0o8Wg09PD14UPlTqt27HypWugNeMLXVE1LYUsPkoLR2OefXh/5146mN8JIxjPvtYZIawJOxqcA1kVsvMUPowXMaPLw4oYQD4+OMV+PmtYjcAHls1cbREZoYGy9hO5eOPg/9Ajh8fWT0mrRb7SwFrR2pqZIuYvN5WeL2tmpzkYV7ofFfD9wPt2aO2iEoQ1nSEqqhTicjUR4V0xaBBWSgqDvwscfnySqwVcLJFV+gh4LU1m7F8eWXAa4qKz8CgQeGfQj1v3gpNTgWWAtaW1NSUKDZvGHu0lQCGq0qS0OnVsCRMoPP0CmIE550XvM7QvHmLDEgijlA+Xyj3qTO0+PoqBawPkT6gi/WNG4B4r4Us4ert1SMAtvQZ2aNG5SMvLzfgNbW1W/Dhh8sNSmQsH364HLW1gb915eXlYtSo8E+CkSNgcxPxlMTemB8Jg4Bza7dXjxDVf8gSJqZzCJSuZxgjuOTSHwW95j9vfYm6OjHbmfWirm4r/vPWl0GvC+X+dIYWX1tj+Ygd0UQ6JaHFL1cLkN7G4gqRhS5hYIqeQYxi5MjhIY305rzwoZCTN/Tg4MHDmPPCh0GvGzUqHyNHRva1NdKR1onMm1seLz/0Qoj0+KKYXy/cgTC/hSThmoaqUWCOCQkDwJVXBf8o27Y14+l/zTcgjf48/a/5QTdmAKHdl65ITU2J+im619sqRawjdnvgqbiu8O6N/b8PYp5S1VA1SkTfIUnYpyiTQGSqQsjRMGBAP1wVgnBWr67F88+/b0Ai/Xj++fexOoTaGFddNQUDolwjXRrlEeyAFLGeRPpLcm88/F0Q9VQUZZKIrkObjmCeqHMOw5l2xSTkh1B7YcniNXjpxY/0D6QDL734EZYsXhP0uvyCQZh2RfT//gqjPHDSjxSxfkQi4jiZjhDmuaASdjW67ESYYEQYo7nxxouQmBh8v8rChd/hmaffNSCRdjzz9LtYuPC7oNclJibgxhu1q2MS7YGTfqSI9SG1l+mrzwqDCBNcjS670f0GlTATjwdI2zNuTEJOTl/cfHNoJ50sX16Jhx9+NWj9XdHs3r0PDz/8atANGX5uvvly5ORod3qG/8BJKeLYIR6WqXVAvRXi8Ub3GlTCBBgeykjGjS8K+YGUy7kRD9z/XEhzrCJYvboWD9z/HFwhVoS78qopGDe+SPMcUsTmJba3IEePKsB3ASVc0VjRFxzbEgaAK66YhPOmhrZLbPfufXjsb2/i9dcXwOdTdU4WGj6fitdfX4DH/vZmyCP186aehSs0mAfuCilicxLJUsJ4uu/MGF/RWKHdV8MQCCjhRJVKQbBM8fZouPHGi8M6Ov6zT8tx96+fxLJloX3t14tlyypx96+fxGefBi5OdCITJpbgxhv1P91Fith89JIj4YAQ4YwEShhrZJ+BpyNsyhiDcpiC2bOnYdKkM0O+vrl5N5595l384cE5WLUqcGlIrVm1yoU/PDgHzz7zLpqbd4f8vkmTzsTs2dN0THYyUsTmIrWXlHAwCGyohIMtDYgrCQPAzbdcju4pyfjs05Uhv2fdunqsW1ePd3OWYOKkEowfX4xevbRfVr137358/XUVli6pgMezI+z3X3DhWFx77QWa5wqGX8RaCNQvYq3EHm/Ew8YLDTDUe11WBq5uqC5QCN/E0iaNcPjk4xV4443PI35/cfFQjCgZBodjCPr3z4i4Hf/RS5UV61BVtT7idq655nxcdLHY4jhajmS1HGHHE25XPRYsCL/m812/ulSHNKblgKryWUXZRTVGdNblSFixKaPBHJcCBoCLLh6HrOx0zHnhA+zZsz/s91dVrT8mzV69emLQoCz0z8lAv7690bv3aeh5Wgq6dUuCTVHgU1UcOnQE+/e1Yteufdi+Yxe2eZqxeXMj9u4Nv+8TfWqZvAAAIABJREFUSUvriZtmXYYzzxRfBlqOiMUTF7vfoqcHgLMAGCLhLkfCzqbqvxPoDiNCmJk9e/bj1Vc+EXYiczScfXYhrr/hoqiPrdcaOSIWx4IFFXBHcHZcnI2EweB/ODKLfmlEX10+mCNgpBEBzE5aWk/c8cuZmDXrMvTsaY0f9J49UzBr1mW445czTSdgQD6ssxrx+AvOSP91KuGa5prhDAipKGRWJk8Zib89djvKysz9rLKsbAz+9tjtmDzF3L9DpYjFEMnpJ/G51ZlGVnoqI6vrGiadSlhtby8hUDze+YD06NEd111/IR758y80O/lYKyZOLMEjf/4Frrv+QvToYY2/OiliaxCPI2EAKQk2xZAf8s6nIwjCjvqwAjk5fXHL7Gn466O348KLSpGS0k1IjpSUbrjwolL89dHbccvsaZrWgDAKKWJjieTeaFGw35IY5MFOH8w5m5wfEaD/lqoYQWVG+YpqrFrlwurv9a8rMXLUcIwZY0fpuCIo1OWzVUshH9bpT6TL08rKSlAYYUF4K8PAx45MxyV69/ODn+C6nXWpbe2HqwEaoHfnscihQ0dQVbUebtcm1NZtRf3W7VG3mTugH4bnDUChfTCKi4eiW7ckDZKaDylifYl0ZcRNs86N1/tYfzDpUNHo3qP36tnJDyRcvb16nML0tZ6dxhMHDx5G/dbtaGjYie07dmHXLi+8ew+gtfUQjhxpg6oyFIWQlJSIlJRuSO3VA717p6Jf397Izk5H7oB+6N49WfTHMAwpYv2Y88LCiO5rvC1POxGFbOML+hWs0LOPH2zWsDEKWc8e44zu3ZORN3wA8obLLxahIDd06Eck91OLk1KsDHN7IQBdJfyDB3M+RqGeHUokwZAP67QnkmkIIG5XRhzDCB/+QMIKUKB3pxJJMKSItaU+wnPicnPieyRMRPl693GShJ3sTGIiQxYoSyTBkCLWjkhHwvE+HQFwvtPp1PVJ+EkSpiYaRsBgPTuUSMJBijh6IhVwoT037qcjCDSY+rQN07OPk6cjyKdrZxJJJEgRR4fLHel8cJxu0jgFn2ozTsIMJS6OMpJYDyniyHC76iOqFwEA9jjcoNEZik1fL548HQEM0bMziSQapIjDJ9JRcE5un7ifivCjtxdPno5glhKWmBop4tCJahRcKEfBx9HXi6fMCdMgPTuTSLRAijg0ysvrIn6vXBVxIjRIz9aPSbiisaIvg3XtTCLRCiniwLhd9RF/Hrkq4mSYeXBFY4VuJQqPSTg5QcklkJiajJKI8XpbO752RrgY38pIEXdNNKNg+UDuZIgoWWFFt7oDx2pHqD7O0asTibZ4va1wueqx8pQftNTUFBTac1Baas79Nm5XveYlEWWtiR8yb96KiO9FTm4f5MT5LrnOsCm2/gC+06PtYyNhVVX669GBRFs8nhbMeWHhDwQMdEhkZXldxNWy9GTBgopj/9MaOSI+Tnl5bcQP4wCY9he4aEhVdfPjMQkTUbZenUi0weNpwby5wQs6mU0kJ9axjbSweDCkiDv+fXT2yzlU5Ci4a1Qd/XhMwgohU69OJNETqoD9mEUknRUSlyLWno680VVclKPgAOjox+PTEZASNivhCtiPaJEEOslBilhbor2XhfZcOQoOjP4SJsB6p0TGAZEK2I8okYRylI4UsTbMm7ciqnlgACgtzdMoTcyi/xI1BksJm4xoBezHaJGEc5aZFHF0LFhQEbWAy8pKLL0axAgIyNCrbQUAFm1a1I0Y8ruIidBKwH6MEkkkh0lKEUdGpAd3nkhObp+4PEk5bJjT6+rqdDnsUQGAjJSMNBD11KMDSfhoLWA/eoskGilIEYeHFgIG5MO4kCHqeaTXkdP1aFoBAPaxLo1LwkcvAfvRSyRaSEGKODS0EvCMmePkw7gwSFDUND3aVQBAISVVj8Yl4aG3gP1oLRKtpADod6ZZrIhYq3stV0OEj69d7aVHuwoAEPmkhAVjlID9aCUSLQVcVlai6/yk1UWs1b3Oye2DsrISDRLFGZR4mh7NKgDQ7oOcDxaI0QL2E61IrCRgP1YVsVb3OjU1RQo4cnTxpAIANkIPPRqXBEeUgP1EKhIrCtiP1USs6b2+QC5HixQG6+LJjgdziiJP9BOAaAH7CVckVhawH6uIWMt7LR/ERY0uv706NmswZB1hgzGLgP2EKpJYELAfs4tYCthk6OTJjgdzzLosQpZ0jpYCzsntg5tmnWuISGJJwH7MKmIpYBNCSNKj2Y7pCOJEPRqX/BCtBTxjxjhDRBKLAvZjNhFLAZsUVvWTMFhJCHKdRAP0ELAfPUUSywL2YxYRSwGbGIYunjxawEdVAl8miRY9BexHD5HEg4D9iBaxFLDp0cWTHY0q0sF6YoSA/WgtkngRsB9RIpYCtgA6ebKjVVXVpXGJsQL2o6VItMAqAvZjtIilgC2CTp48qnZFWlgHRAjYj1lEbDUB+zFKxFLAVkIfT3ZImNR2PRqPZ0QK2I9oERslYI+nxZLV16SALYZOnjy6Tpja9Gg8XjGDgP2IErGRAp43d4XlymBKAVsPvTx5dJ0wHdaj8XjETAL2Y7SIjRawH6uIeM4LC6WALQgT6+LJo9MROKRH4/GGGQXsxygRixKwHyuIWCukgA2GFF086V9zIf68FovT8VXTnAL2o7dIRAvYTzyIWApYCLp4suNkDahSwlHgn+PTAr0E7EcvkZhFwH5iWcRSwGJQffp4smNOGLZ9ejQeL2hx7Digv4D9aC2S1NQU5OTqL4Vwp3tiUcRSwOKw2fTxpL+UpZRwhJSX11pKwH5Eb9ENl0jn22NJxFLAgtHJkx0nayT49urReKzj8bRgZXld1O0YLWA/VhFxtA88Y0HEUsDi8an6eFIBAJUTpITDRKsHcaIE7MfsItZqxYnbVa/ZsrATMULEUsDmQElQ9ujSLgAk7EnYBeCAHh3EKlqMrEQL2I9ZRazlkr9Ce65uDw71FLEUsElg3o++2KVH0woA5OXlHQbQrEcHsYjbVR/1PLBZBOzHbCLWWsB6nzCsh4ilgM0DE3Y6yHFEj7aP1WZj5p16dBCLRDsKNpuA/ZhFxFYTsB8t758UsLkgkG6D1OMFMom269VJLBGtgFNTU0wpYD+iRWxVAfvR4v5JAZsPVnmHXm0fl7DKUsJB8Hhaon64U3aBsVKIBFEitrqA/URz/6SAzYmiUJNubR/7E1GjXp3ECuXltVG930o/YEaLOFYE7CeS+2elfx/xhsrQX8LM3KBXJ7GAx9MS1cO4saV5lvsBM0rEsSZgP/77F2w3Ycd1UsBmRk8/HpOwoijb9OokFohmFJyT2welpcM1TGMceos4VgXsx/8MYGxpXqev5+T2wU2zzpUCNjl6+pH8f6hqqBplU5Tv9OrIykQrirt+damGacSg5fpfv9i93oMxLeDO8Hpb4alvQWqvFCleC6HYbKMLMgq+16PtBP8fVFLrbVAOAuiuR0dWxhXFw7iuRkBWwy9OLUSs9c46qwgY6LiPhXbxpTAlocPgQ22+No9e7R+bjijJKtkBYIteHVmZaFZEWHUaojO0nprQAisJWGJRGFuKM4t1Wz2mnPT/mDfr1ZFViUbAsSgHM9TT9SMFLDECAjbp2f7JEibaqGdnVsTljkzCHV87rXfUeyiYQcRSwBKjYLBxEmZASvgUIl2WVhojc8FdIVLEUsASQyFlg57NnyRh1afq2pnViHQqIpZHwSciQsRSwBKjIdB6Pds/WcKKqmtnViPSqYhYHwWfiJEilgKWCIFhnIQTWhLqWJUP5/xEOhVhxHlrZsIIEUsBS0TAwKaDmQejPz4nACdJ2OFwHIFCNXp2aBUinYootOeaYuWA0egpYilgiTh47Wga3aZnD8qp/4GY1+rZoVWo90Q2Cs6N411QeohYClgiEmbo7sMfSpjg1rtTKyCnIiJDaxF76lt0PcVZIgkEqfrPDCSc+h98BLfCencbu8TjVMSp6LHFWfS6ZBG0tOyFp34HGhtb0Ny8G7t378O+fa04ePAw2trbAQZsNhu6dUtEj57dkdbrNPRJ74XMfr3RPycDubn9RH8Ey8MJ7NK7jx9I+HDiYVf3I8lbARqgd+dmJhJ5xMOytFCRIg6fpqZdcDo3oMa9GXXr6rF7lzeq9hITEzBsWC7y8wfC7hiM4cMHapQ0XuCtKYkpukuYOvuPzibnRwRcrHfnZsXtqo/oGKOyshIp4lPQo/paLIm4uXkPVpY78c03bmzapG9J77S0nhg9ugBjx9qRXzBI175ihI/tmY5L9O7kByNhACBwFUBxK+G9EQoj3ueDO0OOiDunsnI9Fi36Ht99a9xipD179uPLL7/Fl19+i4EDMzF5ykice+5oKMoPHg1JAABcZUQvnd99RqURnZsVr/dgRO+zuhj0QvThoWbi229r8Mc/vIi//uV1QwV8Klu2NOGVlz/Bbf/9N3zwwTL4fKqwLGZFNciDnUrYp3IlAGv+KxeEFHBg4l3EtbVb8cjDr+HvT/wHdXVbRcc5htd7AHP/sxB3/vJxfLVQnungh8GtCQlqdEerh0inc8IA4Gx0LifCeCNCmI1581aEvUQtJ7ePqY+yNwvxNkfc1taOt978AgsWrBIdJSQKCgbh6p9MxRln9BcdRTC83J5ZNMGInrqeDCLW5SgPK+DdG/50hJlFYCbiaURcWbkO9/7PvywjYACoqdmM3z/wPN5/b6noKEJhYLVRfXX6YA4AiPAd5HphiQ7Ew8O6+fMXY/47i6NuJzs7HQMGZiI7Ox0ZGacjLa0nevTojqSkBBAR2tt9ONh6CHu9B9DSshdNjS2or9+BjRsb4PP5Iu533ryvsG69B7NmXYq0tNOi/hxWg8i48za7nI6obqguUAjfgKinUWHMwuOPfRj2e8aW5sXUUUZGEItTE+3tPjz99HysWhnZ8tKePbtj5KjhKC4eisLCwUhN7RFRO8yMtWu3oLp6A9asqUP91shO50lP74Wf3zod+flxtMaYeT8zjXFkOwzZPdylhAHA1VS9EKBzjAhiJiKRsFwjHBmxJOKWlr148h/zsH59+GdCnnlmHiZMLMHZZxfqkAzYuHEbli+rwpIlq3H4cPj1aG67/SqMHevQIZkZ4a/smUXnGtVbl9MRR1kFIO4kLDGOWJmaaGzcicf+9hYaG3eG9b4JE0twwQVjMXBgpk7JOhgypD+GDOmPmT8+F58vWIVPPinH/v2h3++nnnwbhw4dweTJI3VMaRoMncQPuEqbQSuNCmJ1It3gIbH+w7qmphY8+tc3whLwmWfm4Y9/uhmzZ0/TXcAn0q1bEi67fAL+/o+7cOmlPwrrvS88/wEWLzbseZUwjPZeQAmrUFcxI+6OPBI9rxiPWFXEe/cewBOP/wfbt+8K6fqePbvjltnT8Ou7r8GQIeKWgSUnJ+LHV5+H/3toNuz2wSG/74XnP8DKlU4dkwmGeX07t5tHwsWZxduJ8LVRYayMJ8L6w5LjWFHE/3zqbXg8O0K69syRw/H/Hr4VEyeapz7yoEFZ+N/f3oArr5wc8nueevJtrF27Rb9QIiFaUZJVEtpfqEYE3TSuIP4knNqru+gIcYuVRPzC8x/A7Q7tNPTLLpuAX//6J+jdO1WXLNFyxfTJuOtXV6N79+SQrn/m6fnYs2efzqmMh1V1hdF9BpWwLwHLAQ7tu1YcE8kGD0nnWEHECxasCnl+9Mb/uhgzf2zYw/aIGTUqH7+7/7+QmRm8ENXOnXvxwgvhryIyNYzdRLblRncbVMKOdIebGcuMCGMW5JywePQQsVZs3NiA1179NKRrf37rdJx33lma9a03Awdm4n/uvQ65uX2DXluxpi6mdtYxeKk9y657/eBTCa2GHVHs3OkQSE0NfzrCrFtnrYzWIi4vr9UgFfD665+FdN3s2dPwox8Va9KnkWRkpOFXv74mpBHxvHlfYcOGbQakMgAW47mQJGyz2ZaAeb/eYcxCbm56RO+TD+e0R0sRu13hb6I4lY8++hp1tcGroP302jJMMNEDuHDJyEjD7XfMCGmO+K03vzAgkb4w8z4b1CUi+g5JwgUZBd+DaJHeYcxCJCNhAKivD2+hviQ0tBKx19sa1S/KXbu8eHveV0Gvm3r+2bjwwtKI+zELAwdm4ue3XhH0upqazZYvg0lEiwuyi4UULQu5pD4DcSThyH7YtRhpSTrHL2KRvPfeUrS3By6Kk5eXixtuuMigRPozalR+SMvX3n13iaULw4v0W+gSbuOvAMTNUC+So4qiHWlJAlNeXhd1G5F+y/F4doQ02rs+hgTs54rpk4Nu6Ni9ex8+/tiaq1kZ3MLEwb/i6ETIEi7KLapkqAv1DGMmcnIiOy9OTknow4IFFXC76qNuJ9JvOZ99FnwT1YwZ52DQoKyI2jc7P7nm/KDXfPbpSqiqFUfD9GVRvyJhR7qFdcIfg77UK4jZkA/nzINWAo60yt2uXV4sXhR4TXBObl9cPm1iRO1bgUGDsoLWmvB6D2ChBeeGGSzUa8GqqJ1EO7d/mUSJtQBivnBupF9b5aYNbdFKwEBHudFIWBLCpoxpl2sj4ObmPZq0cyoZGWlRtzHtiklYtGh1wOprixetxtSpZ0fdl1Ewo1ZhRejyjrAkfGbWmZtdTdWfAxQHEk5BTm6fsM+a888LRzqdITmOlgKeMTPy8/+WLQv8TXXo0ByMLY2+1m5z8x7cdecTUbfTGdOvnIzp0ydH1UZyciIuuqgUc+d2PSu5ZUsT1tZsRn7BoKj6Mgoi/tye5RBaCCOs6QgAIOYFegQxI5GKVKtNAfGM1gKO9O/S5dyIHTt2B7xm6vnWGflFy/llY5CcnBjwmpURnioiAmKbcJ+FLeGCzKLPmGH91dkhYI9wDtFT3yLnhqPALAIGgO++Xxvw9T59emH8eOvtiouUbt2SMGlS4MLu331XY1CaKGF8sX3tdutJmIh8IIS2cd7i+KckImHBZxUap4kPzCRgoKM+QiDGjS+Kqn0r8qMJgX/p7NmzH7W15i91yYRPp0yZ0i46R9gSBgCbzfcJ4qTYu70wstGw19uqmUziBbMJuL5+R9AHZWPG2KPqw4oMGdIfuQP6BbzG5QytxKcomNUNvnbfJ6JzABFKuCBjRC0DH2kdxoxEOhIGtNlcEC+YTcAAgo7msrLSY3ZdcDDOPDMv4OvmL/qufDQiZ4QpHt5EJGEAIKKPmPmQlmHMSGpqSsTrS+VoODTMKGAAQU9NdjiGaNKPFSkqOiPg6+vWmfrf/SEiMs0gMmIJ2zPtX4LoAy3DmJXS0sC/9QMhR8OBMauAAWDz5saArw/PH6BZX6GSnpHW6f+MJj9/IGw2W5evt7W1o75+u4GJQoeBD+yZdtNsPAtrnXAnfABgphZBzEyka4aBjtHwggUVEW8UiGXMLGBVZXjqAx81dsYZOZr1FwrpGWl44ok7O31t/vzFmP/OYsOyEBGGDMkOOOLd5mlGbm7guWNBmGrwGPFIGAD2e/d/qKriCl8YSWlp5PtT3K56uXb4FMwsYABBT0/u0aO7JrvQrEyw0zeaQjyB2kiYeaHNZosdCY/NG+u12ehdrcKYmZycPlE9pHO7PHLt8FHMLmAAaGnZG/D1zMzemvdpNTKzAt/3lp2B76EIFIXeK8goMNUJpVFJGADabL73AP5GizBmJ5opBa+3FQs+q4j7Y5CsIGAA2Ls38EEyffr00qVfKxHsHuzZayrXgRnfJtiS3hOd41SilvCI9BEeZo6L0XA0KyUA7Q+ctBpWETAA7N8fuBBTamoP3fq2Cr2C3IMDQe6h8ajz89LzTHfyQtQSBoB2nzqfGVVatGV2olkpARx/UBdvWEnAAHD48JGAr3dPCX72WqzTPaVbwNcPHWozKElIVJLN9o7oEJ2hiYRLckrqQHhbi7bMTmpqStQrHeLtQZ3VBAwAvvbAxckTErpenhUvBLsHPl/go6CMhIF37H3t60Tn6AxNJAwACbaEecxcrVV7ZiYnN7qHdACwsrwu5kfEXm8r5s1bYTkBAwAo8MvMxsQwMxzsJgS5h4bBqGaVTTtI1EzC+Rn5a4kwV6v2zIwWo2GgY0Q854WFMfmwzj//Hcna6s4wVMAAEhMDL6E/csRUX7WFcORI4No3iQnRbkPQCOK5RdlFpi3tppmEAYAU21xmXqNlm2ZFKxH7ZRVL25s9nhZNf7kYLWAA6N4t8Jxv64GY37EflAMHAj94695d/Lw5M68hxWbqwaGmEi7sW1hHwFtatmlmCu25Ua2W8OP1tqK8vC4m5onLy2sxb+4KzdoTIWAAOO20wAeC7tljruVXItizJ/AyvmD30AgIeKuwb6Gpawdo/n2BVXqLbHQpwIFPBYwBvN5WzUZ7Xm8rVh6tMxHN7jxR+Fd9aDX9AIgTMACknX5awNf1OgvOSjQ3Bz5x5PQg91B3GF9zMpl+UKi5hB39HVvd26vfZKaYlrAe0gE6Hti5XR4U2nMsI+Py8tpjv0C0QqSAgeAHYzY2toBhnmdPImho2Bnw9YyM0w1K0jmk8Bv23kVbhYYIAV1mztsP8Zu2ZLoIwMV6tC8avQR8Yvt+GZeW5mky5aEHesgXEC9goGMUl5KSjNbWw52+rqoqtmxujLqe8Ikj6p079RtdNzfvOakvLepebN3SFPD1rCDbmvWEgY9Tknq+ISxAGOgi4eKBxbudTc5/g/kCIoqpBZV6C7izvsrL61B2QYlwMfnxeFp024JtBgH7yc3th9rargdS69bVRy3hZcsqDKl+tmxpBZYt7VgSGagaW6h4vQeCjoRzghT40QtmVkH078GnD7bEnJGmD+ZOxJHpeJMIr+nVvgiMFPCp/c6buwJzXlgorAiQv0D9nBcWYt7cFTEvYAAYPCQ74Os1NWY/PUI/3O7Axxed3jtVWH0NIrzqyHS8KaTzCNB1IR8zvUaE8wAYW3hVB0QJ+NQM8+auOFbfOPdoZbfUVH2eQnu9rXC56uHxtOj+uc0mYAAYNiwXn326ssvXq6vWG5jGXFQF+ex5w4RNoXmYyVKDP10l7MhyfOVudL7ChPv07EdvzCDgE+kYlR4/OqmjsFAOcnPToxaZX7xul8eQTSSpqSmmmmo5kfz8QQFfP3jwMFavrsXIkdZ4gKolq78PvJyyoHCQMUFOgRiv2LMclqpxrvuWFrbRK+zjKUQYp3dfemA2AXeG/0Ge/yGZf2Sc2qv7sT/nniC5vUfl6vUe7Fhmt/egkF17ZhYwAPTq1QPDhuUGPD1iZbkz7iT8zTfuoFXmHI7AZ9DpAmPFEV/7q8Z3HB26S9je177Ouc35MmzWk7AVBNwZ3mOSbQXQkd1sO/JSU1Nw06xzRccIypkj8wJKeMWKavz02jL06tXTwFRi8T/g64rBg7OFFL0n4pdKckpMvTGjM3R7MHcizXXNLwGw1G8oLQWcmpqCsVGWwIwlCu25lhAwAJx1VkHQaxZ++Z0BSczBli1NWLMmsOfOPrvQoDTHYeDVgn6OlwzvWAMMqbAxZcqUdndD1YtMNA5EQ43oMxq0FvCJwtFjXa2VMOMDuEBkZaWj0D4YblfXqwE+/3wVLrl0PJKSEsNuPz099NOSM9K7vk6rdoLx2WddP6j0M7bUEXH7kcCMDYpNeZGIzFM7MwwM3fDjbHTeS4SHjewzXPQUsNbtW4nU1BTMmFmq20oOPVm+rBLPPBP48Jgrpk/ClVdOMSiRGDZu3IYH7n8+4DWjzyrAnXf+2KBEHTDjfx1ZjkcM7VRDDJmO8JPER+Yws+nOePKjt4D9/72srCRupif8UzE3zTrXkgIGgB9NGIHefVIDXvPeu0uxY0fgWgpW5935S4JeM2XKKAOSHIeZ3zvCR+YY2qnGGCrhvOyRzcT8PADTnfNkhIBPfL20dDhumnVuTMvYP/drlRoYgTj//DEBX2dm/Oc/XxqUxniWLq0IOheclzcAI0YYN9vIjG3EyvMjs0c2G9apDhgqYQCwZxd/QsBzRvcbCCMFfOq1fhlHe1KHmeiYehinSb1ls3DhhWODroBYtdKFxYtXG5TIOHbt8uKNfy8Iet2FF5UakOY4CuFZe7b9E0M71QHDJQwA7VCfA8EUJzSLEvCp75sxY5zlZeyX702zzrXUw7dQsNlsuOzyCUGve+XlT+Dx7DAgkXG89NLHIa0LDmUliWYQ3k3ibs8a16F+CKvE597uPl9VfU8T0RBRGcwg4M7wF3k329rerhhbmge7Pdeyc77h8Lv7nsXmzY0BrxlyRn88+OBNUBQhYxxNmfufhfjgg2VBr7v/gZ9h+PABBiQCwNioqvyLov5FwYfnFkBoOVRXQ/XdUOivIvo2q4BPxOtthae+BS53velWU/i3SsfCfG84VFWux1/+8nrQ684eU4g77phpQCL9+PLLb/HySx8Hva6sbAyuu/5CAxIdReV77NlFjxrXob4IlXBFY0WPRLI9BdCNRvZrBQGfipHFdLrCL954GfV2xauvfILPP/8m6HWTp4zErFmXGZBIe5Yvr8IzT88Pel2/fr3xyJ9/EfRgVO3gl9vYd1tJVskBgzrUHeEHA9Q0VI32KfQUgQI/ftYIKwr4VPwj5HpPy7E/64FfuoA1j1zSC1VVcd9vn0F9ffC5XyuKeNnSCjz7bGgrSe/5zU8xYsQwnRN1wMAqm812W0FGQUxtURQuYQBwNbmuBfOTIERf7j8AsSDgzvDXivB/Lr+cAQQsznNqoZ/U1O4AoEk1tlinrq4ef/xDaMtTzx5TiNtuu8oSc8SfflqOf78e2lTr9CsnY/r0yfoGOs5ugO6wZ9qDzwVZDFNIGACqG6v/qBDdr2cf8+atiDkBS8Tx1Vff48U5H4Z07ZAz+uOWWy5HTo6Y0yZC4ZVXPsEXIUyzAMCYsXbcfvsMnRMdR2X+U1FW0QOGdWggpvnVnNgj8R9g1vVMKC1Gd1LAEj/nnDMqpGVrALBxwzbc/7vnTLmOePPmRvzxD3NCFvDQoTm49dbM9hwYAAAL2klEQVTpOqc6AeY32rjtSeM6NBbTjIQBoHan8+x2H54AQ7dV39EcTikFLOmMF1/8CF8tDH2acsxYO3784/PQt6/Y04gB4P33lmLevNBroGdlpePe/73OsKOLmFEO4E5HliO03xAWxFQSBgDXDtdM9qmPE1HgA76iIBIRSwFLAvHcc+9h6ZLAdXZPhIgw7YqJuPTSH0VUfS1aVpY78d77S+EJ4eGin379euPue65BVla6jsmOw4wGBv+qKKvoP4Z0KAjTSRgAXNur7wbru344HBFLAUtCIdwRMQD07Nkd558/BueeN9qQwvBff12FLz7/BuvXh1e+JSenL+6868fIzDTwgS3xPfZ+sbMeuCtMKWFmtrmbXI+CEN253EEIRcRSwJJwmDt3IT54P/gOs84YN64IY0sdmh+XtHlzI1atcmHF19Voadkb9vsLCwfjv2+7Cr169dA0V0AYT7gy3XfPpJmWrBEcDqaUMABUe6pzKQGPEkjXbUeBRCwFLImEcFZNdEb37skoKh6KgoKBGDYsFwMHZYX1g9rcvAcbNnhQu3YrnM6NaGzcGXGWyZNHYtbNxq5zZvBcbsfdRTlF1ti3HyWmlTAAOBvXnA1K+AuBJunZT2cilgKWRENdXT1eevHDkDZ0BENRFGRl9UFGRhrS0k5DSo9uSEpKBBHQ3u7DwdbD8HoPoKVlL5qaduHAgcDFdkLluusvRFmZIXuojsHMS5hxT1F20beGdiwQU0sYANyNVRcz6C8g0vXgqhNFLAUs0QJVVfH6a5+FtMXZTOQNH4Brr70AQ4bo9my8C9hNzL8pzCoOXrAihjC9hAHA2eC8gRR+BKBMPfspL6+F2+WRApZoSlXlesyduzBo9TXRJCTYcNWMc3DJJeON75y5iZnudWQ7XjG+c7FYQsIA4G6qvlMFHiFQsugsEkkkLFiwCh+8vwx79+4XHeUHnHPuaEybNhG9ewc+xkknDhP43sLMoidEdC4ay0gYAFyN1Q+C6Peic0gkkeLz+fDppyvx+eersKvFKzoOJk8ZiQsuGCt2OzXzH+xZRQ+KCyAWS0m4juuS25oO/z8Q/Up0FokkWpYvq8TSZRVwuzYZ2m/fvqdjwoQRmDR5pKiR73GYH0vcl/zbvLy8w2KDiMNSEgYAt8fdh22+h0A0W3QWiUQLGht34ttva7BmdR3WrdNnVVZGRhpKzszD6FH5sDuEHWZzMszPHlQP/250/9GRr6GLASwnYaBjDbGSgD8BdIPoLBKJluzdewBr127GunX12LSxAfX129HaGv4gMSe3LwYNysLQoTkYPnwgcnPNVr2NX1HbcX+8rAUOhCUlDACu+tXDODHpjwRcLTqLRKInu3fvQ3PzHuzZvQ/79rXi4KHDaGtrBxiwJShITk5Cz57d0atXT/Tp0wv9+vWGopj3R5uBt0ihB+x97etEZzED5v2bCgFng7MQhD8S4UrRWSQSSSjw26zS7x3ZDrfoJGbBNPWEI8GR7XDbyPYHAMEPw5JIJEJh5nd94D9JAZ+MpUfCftY2rS1u57YHiegK0VkkEskPYeZ3E4gfzM8srhKdxWxYeiTsJz8zv8pGCb8H+G3RWSQSyanw26oUcJfExEjYj7PBWUgK7od8WCeRmAIG3oIKOQURgJiSMNCxagKJiffJ5WsSiWj4FSjKQ3IVRGBiTsLA0XXENtwnN3RIJIJgflb14SG5Djg4MSlhoGNnnc/m+60itzhLJMbC/NhB9fDD8b4TLlRiVsLAsVoT/8uEe2X1NYlEdw6D+ZHEfckPx3MtiHCJaQn7cTdV38nA/+hdj1giiVuYm4jw53gtRxkNcSFh4GhheOLf6H1Ch0QSf7CbVfpLPBZk14K4kTAAuBvdF6vku0fvM+skkniBmZco4L/G25FEWhJXEgaA6obqs0jB3Xqf4iyRxDoMnssqHo2nQzn1IO4kDADObc4BpOAuEO4UnUUisSSMJ1QfPyaXoEVPXEoYAJhZce9w/gpMdwEw+lhZicSSMKOBFH7c1bfm8Zk00yc6TywQtxL249rhmsk+9U4iKhWdRSIxM8woZ/Dfi7KK/iM6SywR9xIGgNqdzrPb2/iXILpGdBaJxJQwv8GgvzuyHN+IjhJrSAkfZa13bXrbgbY7FNDtIKSJziORmITdKvNTbdz25Mjskc2iw8QiUsKn4GpyXctQbyPQGNFZJBKRMLCKQE/ZM+2vi84Sy0gJd0J1Q/VZioJfAHSj6CwSiRj4ZcWW8M+CjILvRCeJdaSEu+C7bd+ldKfkX4DoVhBMcka4RKIzjI1gfrqNfE+XZJUcEB0nHpASDoJ7u/t8VVV/TgR5dJIktiG8q7bzs0X9ixaIjhJPSAmHQFVTVb8EKLcwcAuAHNF5JBItYcY2hfBsEnd7dmjW0B2i88QbUsJh4Nrhuoh96s1ENE10FolEC5j5PWLleXu2/RPRWeIVKeEwWbttbXq70j6LgFkgnCE6j0QSCczYAOCFI3xkjlx6JhYp4QhxN1RNUkn5GRGuF51FIgmTV0lRXizsW7hEdBCJlHBULFq0KKFfQfqNKtN/EWGc6DwSSUAYK4j4pYJ+jpeISNZ9MAlSwhrg9rjzYFOvV8E3EJF8cCcxGx5ivHLE1/5qSU5JnegwkpOREtYQZ6PzHCK+jhnXEZFNdB5JfMPMKhFeZabXHFmOr0TnkXSOlLAOOJucPyHgpwAuFp1FEp8w8DGAfzsyHW+KziIJjJSwTqzZtCYtOSXhGlbpGhDGi84jiRMYX5PCb3RP6vnG4NMH7xEdRxIcKWGdcW5zDqAEvppVXE1EZ4rOI4lNmHkNAW9xMr3l6O3YKjqPJHSkhA2iwlORl5hgm8nAjwnkEJ1HEiMwqkE8lxTb3MK+hfKhmwWREjaYtc1r89t97TPAuIoIxaLzSCxLJQPvsMpvF2UX1YgOI4kcKWFBuOpdwzjBdyWRMh3AWaLzSKwBM74F1Plks71j72tfJzqPJHqkhAVTubMyx9ZGVzDTNEWhc0TnkZgTZl6oKPRegi3pvbz0PI/oPBLtkBI2Cc7tzp5gXK4Al6nMlxFRN9GZJMI5xMAHAD6w2WwfFGQU7BMdSKI9UsImpGpb1VRFUS4m8MUgGio6j8RYmNUNgPIREX1kz7R/KTqPRF+khE1MjadyuE+xXQTChUSYKjqPRGcYXzDhU1+775MROSNqRceRGIOUsAVYxIsS+jX1KWOiMoDOBzBcdCaJNjCjlog/J7Yt2L52+4IpU6a0i84kMRYpYYvhavh+oKokTSXQeQScCyBddCZJeDC4BaAvGfyloipf2LPtW0RnkohDStjC1G6vHtHGdA6AKcQ8BUQ9RWeSdA4z7yOixQwsYuKvivoVVYrOJDEHUsIxQlVD1ShFUSaBeSIRJgDUW3SmuIexm8FLwbTUBnVJQXbx96IjScyHlHAM4mp02RXi8SownhnjSR7DZBzM60G0glV1BZFtuT3L7hIdSWJupIRjnIrGir4JlDCWwGMBjGHQGAJ6iM4VMzDvB+EbAKsYtLKd21eWZJXIE4slISMlHGdUN1QXADiLFIwiYCRAIwGkiM5lFRjcSsBqBlYTKd+xj793ZDvconNJrIuUcJxT6akcnmBTSkAYwaBiAooB5IrOZR54K0DVAFepjMqEhISKgowCuYZXohlSwpKT+G7Xd716tPWwM7cX+hiFRJQPcD6BBovOpjcMbAJ4LTPWkko1nMCulMQU1xm9z9grOpskdpESlgTF6XQmUZ+2YT7VNkyxKWcQMATgIQANYubBRJQsOmOoMPgQGFsI2MTgTSBlA4HWg7H+YObButE0uk10Rkl8ISUsiYqKxoq+CisDbIqtP6lqf5UoG4RMAJkA+hKQAeZ0Q9YwM+9nwk4CNbPKOxSFmlRGEzM3KIqyTbH5PG0+eIozi7frnkUiCREpYYnu1NXVJR/pdeT0BEVN87WrvUCJpwHoyeAeAFLA6AZCElhNAiMBgAJFAVQVgKKC1HZiamPiwyDlEIBW1ae22my2fWDs86m+vUqCsgd9sctBjiNCP6xEIpFIJBKJRCKRSELg/wMlvoKItxKmpAAAAABJRU5ErkJggg==;" parent="1" vertex="1">
                    <mxGeometry x="2010" y="80.39" width="132.76" height="125.61" as="geometry"/>
                </mxCell>
            </root>
        </mxGraphModel>
    </diagram>
</mxfile>